<?xml version="1.0" encoding="UTF-8"?>
<svg id="_图层_2" data-name="图层 2" xmlns="http://www.w3.org/2000/svg" viewBox="0 0 496.24 411.83">
  <defs>
    <style>
      .cls-1, .cls-2 {
        fill: #fff;
      }

      .cls-3 {
        font-family: AdobeSongStd-Light-GBpc-EUC-H, 'Adobe Song Std';
        font-size: 12px;
        font-weight: 300;
      }

      .cls-4 {
        fill: #ffc000;
      }

      .cls-4, .cls-5, .cls-6, .cls-7, .cls-8 {
        stroke-width: 0px;
      }

      .cls-9, .cls-2 {
        font-family: Consolas-Bold, Consolas;
        font-size: 18px;
        font-weight: 700;
      }

      .cls-5 {
        fill: #73b3dd;
      }

      .cls-6 {
        fill: #ed7d31;
      }

      .cls-7 {
        fill: #70ad47;
      }

      .cls-8 {
        fill: #205867;
      }
    </style>
  </defs>
  <g id="_图层_3" data-name="图层 3">
    <g>
      <g>
        <rect class="cls-6" x="0" width="80.59" height="34.2"/>
        <text class="cls-2" transform="translate(20.5 21.81)"><tspan x="0" y="0">wrap</tspan></text>
      </g>
      <g>
        <rect class="cls-6" x="103.91" width="80.59" height="34.2"/>
        <text class="cls-2" transform="translate(124.42 21.81)"><tspan x="0" y="0">wrap</tspan></text>
      </g>
      <g>
        <rect class="cls-6" x="311.74" width="80.59" height="34.2"/>
        <text class="cls-2" transform="translate(332.24 21.81)"><tspan x="0" y="0">wrap</tspan></text>
      </g>
      <g>
        <rect class="cls-6" x="207.83" width="80.59" height="34.2"/>
        <text class="cls-2" transform="translate(228.33 21.81)"><tspan x="0" y="0">wrap</tspan></text>
      </g>
      <g>
        <rect class="cls-6" x="415.66" width="80.59" height="34.2"/>
        <text class="cls-2" transform="translate(436.16 21.81)"><tspan x="0" y="0">wrap</tspan></text>
      </g>
    </g>
    <g>
      <g>
        <rect class="cls-6" x="0" y="59.15" width="80.59" height="34.2"/>
        <text class="cls-2" transform="translate(20.5 80.95)"><tspan x="0" y="0">wrap</tspan></text>
      </g>
      <g>
        <rect class="cls-6" x="103.91" y="59.15" width="80.59" height="34.2"/>
        <text class="cls-2" transform="translate(124.42 80.95)"><tspan x="0" y="0">wrap</tspan></text>
      </g>
      <g>
        <rect class="cls-6" x="311.74" y="59.15" width="80.59" height="34.2"/>
        <text class="cls-2" transform="translate(332.24 80.95)"><tspan x="0" y="0">wrap</tspan></text>
      </g>
      <g>
        <rect class="cls-6" x="207.83" y="59.15" width="80.59" height="34.2"/>
        <text class="cls-2" transform="translate(228.33 80.95)"><tspan x="0" y="0">wrap</tspan></text>
      </g>
      <g>
        <rect class="cls-6" x="415.66" y="59.15" width="80.59" height="34.2"/>
        <text class="cls-2" transform="translate(436.16 80.95)"><tspan x="0" y="0">wrap</tspan></text>
      </g>
    </g>
    <g>
      <rect class="cls-5" y="349.74" width="496.24" height="62.09"/>
      <text class="cls-2" transform="translate(89.78 385.49)"><tspan x="0" y="0">Shared Memory / L1 Cache (192k)</tspan></text>
    </g>
    <g>
      <g>
        <rect class="cls-4" x="0" y="107.95" width="118.5" height="31.29"/>
        <text class="cls-2" transform="translate(14.71 128.3)"><tspan x="0" y="0">Scheduler</tspan></text>
      </g>
      <g>
        <rect class="cls-7" x="0" y="234.48" width="118.5" height="100.66"/>
        <text class="cls-1" transform="translate(9.77 278.73)"><tspan class="cls-9"><tspan x="0" y="0">Functional</tspan></tspan><tspan class="cls-9" x="23.5" y="21.6">Units</tspan><tspan class="cls-3" x="72.98" y="21.6"></tspan></text>
      </g>
      <g>
        <rect class="cls-8" x="0" y="139.24" width="118.5" height="100.66"/>
        <text class="cls-2" transform="translate(9.77 172.68)"><tspan x="0" y="0">Registers </tspan><tspan x="29.69" y="21.6">File</tspan><tspan x="0" y="43.2">(16k x 4)</tspan></text>
      </g>
    </g>
    <g>
      <g>
        <rect class="cls-4" x="377.75" y="107.95" width="118.5" height="31.29"/>
        <text class="cls-2" transform="translate(392.46 128.3)"><tspan x="0" y="0">Scheduler</tspan></text>
      </g>
      <g>
        <rect class="cls-7" x="377.75" y="234.48" width="118.5" height="100.66"/>
        <text class="cls-1" transform="translate(387.51 278.73)"><tspan class="cls-9"><tspan x="0" y="0">Functional</tspan></tspan><tspan class="cls-9" x="23.5" y="21.6">Units</tspan><tspan class="cls-3" x="72.98" y="21.6"></tspan></text>
      </g>
      <g>
        <rect class="cls-8" x="377.75" y="139.24" width="118.5" height="100.66"/>
        <text class="cls-2" transform="translate(387.51 172.68)"><tspan x="0" y="0">Registers </tspan><tspan x="29.69" y="21.6">File</tspan><tspan x="0" y="43.2">(16k x 4)</tspan></text>
      </g>
    </g>
    <g>
      <g>
        <rect class="cls-4" x="251.83" y="107.95" width="118.5" height="31.29"/>
        <text class="cls-2" transform="translate(266.55 128.3)"><tspan x="0" y="0">Scheduler</tspan></text>
      </g>
      <g>
        <rect class="cls-7" x="251.83" y="234.48" width="118.5" height="100.66"/>
        <text class="cls-1" transform="translate(261.6 278.73)"><tspan class="cls-9"><tspan x="0" y="0">Functional</tspan></tspan><tspan class="cls-9" x="23.5" y="21.6">Units</tspan><tspan class="cls-3" x="72.98" y="21.6"></tspan></text>
      </g>
      <g>
        <rect class="cls-8" x="251.83" y="139.24" width="118.5" height="100.66"/>
        <text class="cls-2" transform="translate(261.6 172.68)"><tspan x="0" y="0">Registers </tspan><tspan x="29.69" y="21.6">File</tspan><tspan x="0" y="43.2">(16k x 4)</tspan></text>
      </g>
    </g>
    <g>
      <g>
        <rect class="cls-4" x="125.92" y="107.95" width="118.5" height="31.29"/>
        <text class="cls-2" transform="translate(140.63 128.3)"><tspan x="0" y="0">Scheduler</tspan></text>
      </g>
      <g>
        <rect class="cls-7" x="125.92" y="234.48" width="118.5" height="100.66"/>
        <text class="cls-1" transform="translate(135.68 278.73)"><tspan class="cls-9"><tspan x="0" y="0">Functional</tspan></tspan><tspan class="cls-9" x="23.5" y="21.6">Units</tspan><tspan class="cls-3" x="72.98" y="21.6"></tspan></text>
      </g>
      <g>
        <rect class="cls-8" x="125.92" y="139.24" width="118.5" height="100.66"/>
        <text class="cls-2" transform="translate(135.68 172.68)"><tspan x="0" y="0">Registers </tspan><tspan x="29.69" y="21.6">File</tspan><tspan x="0" y="43.2">(16k x 4)</tspan></text>
      </g>
    </g>
  </g>
</svg>