<?xml version="1.0" encoding="UTF-8"?>
<svg id="_图层_2" data-name="图层 2" xmlns="http://www.w3.org/2000/svg" viewBox="0 0 537.52 380.01">
  <defs>
    <style>
      .cls-1, .cls-2, .cls-3, .cls-4, .cls-5, .cls-6 {
        stroke-miterlimit: 10;
      }

      .cls-1, .cls-3, .cls-4, .cls-5, .cls-6 {
        stroke: #262424;
      }

      .cls-1, .cls-7 {
        fill: #fff;
      }

      .cls-8 {
        fill: #808183;
      }

      .cls-8, .cls-9, .cls-10, .cls-7, .cls-11 {
        font-family: SimHei, SimHei;
      }

      .cls-12, .cls-13 {
        font-family: AdobeSongStd-Light-GBpc-EUC-H, 'Adobe Song Std';
        font-weight: 300;
      }

      .cls-12, .cls-13, .cls-10 {
        fill: #262424;
      }

      .cls-2 {
        stroke: #fff;
        stroke-dasharray: 3.09 3.09;
        stroke-linecap: round;
      }

      .cls-2, .cls-5 {
        fill: none;
      }

      .cls-9 {
        fill: #a6a8aa;
      }

      .cls-14, .cls-13, .cls-10, .cls-7 {
        font-size: 12px;
      }

      .cls-3 {
        fill: #e6e6e7;
      }

      .cls-15 {
        fill: #51924b;
      }

      .cls-4 {
        fill: #d0d1d3;
      }

      .cls-5 {
        stroke-width: 2px;
      }

      .cls-11, .cls-6 {
        fill: #32a457;
      }
    </style>
  </defs>
  <g id="_图层_1-2" data-name="图层 1">
    <g>
      <rect class="cls-1" x=".5" y=".7" width="535.71" height="115.78" rx="8.55" ry="8.55"/>
      <rect class="cls-1" x=".5" y=".5" width="137.02" height="115.99" rx="10.24" ry="10.24"/>
      <text class="cls-14" transform="translate(10.41 43.28)"><tspan class="cls-12" x="0" y="0" xml:space="preserve">算子状态：  </tspan><tspan class="cls-8" x="64.97" y="0">未执行</tspan></text>
      <text class="cls-13" transform="translate(10.76 63.93)"><tspan x="0" y="0">性能指标：10000 次/S</tspan></text>
      <text class="cls-13" transform="translate(11.14 83.86)"><tspan x="0" y="0" xml:space="preserve">实际性能：          次/S</tspan></text>
      <rect class="cls-15" x="34.79" y="91.06" width="60.06" height="18.5" rx="5.26" ry="5.26"/>
      <text class="cls-7" transform="translate(52.54 104.04)"><tspan x="0" y="0">运行</tspan></text>
      <text class="cls-10" transform="translate(141.31 21.66)"><tspan x="0" y="0">介绍性的文本内容，直接存储在前端，如果内容过多则只展示一部分</tspan><tspan x="0" y="14.4">，点击下面的展开按钮，打开浮窗页面展示所有内容。</tspan></text>
      <line class="cls-5" x1="325.68" y1="112.47" x2="334.17" y2="106.63"/>
      <line class="cls-5" x1="326.42" y1="112.47" x2="317.93" y2="106.63"/>
      <rect class="cls-1" x="1.31" y="128.75" width="535.71" height="115.78" rx="8.55" ry="8.55"/>
      <rect class="cls-1" x="1.31" y="128.54" width="136.21" height="115.99" rx="10.24" ry="10.24"/>
      <text class="cls-13" transform="translate(47.87 145.01)"><tspan x="0" y="0">算子名称</tspan></text>
      <rect class="cls-6" x="8.86" y="134.71" width="27.41" height="10.68" rx="4.95" ry="4.95"/>
      <rect class="cls-3" x="19.42" y="135.1" width="16.84" height="9.91" rx="4.95" ry="4.95"/>
      <text class="cls-14" transform="translate(11.22 171.32)"><tspan class="cls-12" x="0" y="0" xml:space="preserve">算子状态：  </tspan><tspan class="cls-11" x="64.97" y="0">执行中</tspan></text>
      <text class="cls-13" transform="translate(11.57 191.97)"><tspan x="0" y="0">性能指标：10000 次/S</tspan></text>
      <text class="cls-13" transform="translate(11.96 211.9)"><tspan x="0" y="0" xml:space="preserve">实际性能：          次/S</tspan></text>
      <rect class="cls-15" x="35.61" y="219.1" width="60.06" height="18.5" rx="5.26" ry="5.26"/>
      <text class="cls-10" transform="translate(142.12 149.7)"><tspan x="0" y="0">介绍性的文本内容，直接存储在前端，如果内容过多则只展示一部分</tspan><tspan x="0" y="14.4">，点击下面的展开按钮，打开浮窗页面展示所有内容。</tspan></text>
      <line class="cls-5" x1="326.49" y1="240.51" x2="334.98" y2="234.67"/>
      <line class="cls-5" x1="327.23" y1="240.51" x2="318.75" y2="234.67"/>
      <ellipse class="cls-2" cx="65.64" cy="228.35" rx="4.79" ry="5.04" transform="translate(-142.24 113.29) rotate(-45)"/>
      <rect class="cls-1" x="1.31" y="263.72" width="535.71" height="115.78" rx="8.55" ry="8.55"/>
      <rect class="cls-1" x="1.31" y="263.52" width="136.21" height="115.99" rx="10.24" ry="10.24"/>
      <text class="cls-13" transform="translate(47.87 279.98)"><tspan x="0" y="0">算子名称</tspan></text>
      <rect class="cls-4" x="8.86" y="269.69" width="27.41" height="10.68" rx="4.95" ry="4.95"/>
      <rect class="cls-3" x="8.86" y="270.07" width="16.84" height="9.91" rx="4.95" ry="4.95"/>
      <text class="cls-14" transform="translate(11.22 306.29)"><tspan class="cls-12" x="0" y="0" xml:space="preserve">算子状态：  </tspan><tspan class="cls-9" x="64.97" y="0">未执行</tspan></text>
      <text class="cls-13" transform="translate(11.57 326.95)"><tspan x="0" y="0">性能指标：10000 次/S</tspan></text>
      <text class="cls-13" transform="translate(11.96 346.88)"><tspan x="0" y="0">实际性能：20000 次/S</tspan></text>
      <rect class="cls-15" x="35.61" y="354.07" width="60.06" height="18.5" rx="5.26" ry="5.26"/>
      <text class="cls-10" transform="translate(142.12 284.68)"><tspan x="0" y="0">介绍性的文本内容，直接存储在前端，如果内容过多则只展示一部分</tspan><tspan x="0" y="14.4">，点击下面的展开按钮，打开浮窗页面展示所有内容。</tspan></text>
      <line class="cls-5" x1="326.49" y1="375.49" x2="334.98" y2="369.65"/>
      <line class="cls-5" x1="327.23" y1="375.49" x2="318.75" y2="369.65"/>
      <text class="cls-7" transform="translate(53.36 367.06)"><tspan x="0" y="0">运行</tspan></text>
    </g>
  </g>
</svg>