<?xml version="1.0" encoding="UTF-8"?>
<svg id="_图层_2" data-name="图层 2" xmlns="http://www.w3.org/2000/svg" viewBox="0 0 1324.49 684.05">
  <defs>
    <style>
      .cls-1 {
        fill: none;
      }

      .cls-1, .cls-2, .cls-3 {
        stroke: #000;
        stroke-miterlimit: 10;
        stroke-width: 2px;
      }

      .cls-4 {
        stroke-width: 0px;
      }

      .cls-4, .cls-5 {
        fill: #000;
      }

      .cls-2 {
        fill: #fff;
      }

      .cls-5 {
        font-family: AdobeSongStd-Light-GBpc-EUC-H, 'Adobe Song Std';
        font-size: 36px;
        font-weight: 300;
      }

      .cls-3 {
        fill: #999;
      }
    </style>
  </defs>
  <g id="_图层_1-2" data-name="图层 1">
    <g>
      <g>
        <rect class="cls-3" x="1" y="1" width="300" height="79.1"/>
        <g>
          <path class="cls-4" d="M132.69,26.82c.25.25.36.43.36.54,0,.14-.14.22-.47.22h-11.84v8.96c0,11.12-.5,15.95-4.14,20.19l-.36-.25c2.63-4.5,2.88-7.85,2.88-19.69v-7.02c0-1.51-.04-3.78-.11-4.61l2.23,1.58h8.39l1.22-1.76,1.84,1.84ZM132.26,47.34c-5.44,3.46-6.98,5-7.63,6.3-.14.25-.22.36-.32.36-.07,0-.18-.04-.25-.14l-1.48-1.66c.86-.47,1.12-.86,1.12-2.09v-13.14c0-1.48-.07-3.92-.14-5.26l1.91,1.48h3.64l.72-1.22,2.02,1.37c.14.07.22.18.22.25,0,.14-.11.22-.97.83v6.84c0,2.09-.29,2.84-1.94,3.82-.14.11-.25.14-.32.14-.14,0-.22-.14-.25-.43-.14-.79-.5-1.15-2.56-1.84l.11-.47c.97.22,1.66.32,2.16.32,1.12,0,1.22-.61,1.22-2.2v-6.62h-4.18v16.7l6.7-3.82.25.47ZM142.09,36.5c.18.07.25.14.25.22s-.07.14-.22.25l-.86.58c.04,1.08.04,2.02.04,2.88,0,2.95-.18,4.86-.5,6.98-.54,3.64-4.03,7.02-11.63,9.72l-.29-.32c5.98-3.1,9.61-5.87,10.33-8.96.36-1.55.54-3.82.54-7.27,0-1.44-.04-3.13-.11-5.04l2.45.97ZM148.96,26.39c.29.29.4.47.4.58,0,.14-.14.18-.5.18h-7.16c-.54,1.15-1.3,3.02-2.23,5.58h5l.79-1.33,2.12,1.48c.18.11.29.22.29.32,0,.18-.14.25-1.12.94v5.72c0,2.74.07,4.46.18,6.08v.29c0,.54-.11.65-.83.97-.36.14-.58.25-.76.25-.25,0-.29-.22-.29-.76,0-1.4.07-3.6.07-5v-8.17h-8.85v9.18c0,1.51.04,2.84.11,4.03v.22c0,.43-.14.54-.94.94-.29.14-.5.25-.65.25-.22,0-.29-.22-.29-.65v-.47c.07-1.26.11-3.17.11-5v-6.16c0-1.33-.04-3.49-.11-4.72l2.09,1.58h2.41c.4-1.8.61-3.71.79-5.58h-2.45c-.76,0-1.8.14-2.41.4l-1.01-1.33c.9.07,1.8.14,2.63.14h9.32l1.33-1.87,1.94,1.91ZM141.15,48.02c4.1,1.94,6.26,3.2,7.38,4.86.25.4.36.79.36,1.19,0,.79-.43,1.48-.79,1.48-.47,0-.76-.29-1.33-1.44-.58-1.15-2.48-3.38-5.8-5.69l.18-.4Z"/>
          <path class="cls-4" d="M185.76,44.13c-2.23.18-3.02.79-3.56,1.73-.07.11-.14.18-.29.18-.04,0-.11,0-.22-.04-4.64-1.08-8.64-2.45-11.84-4.36-2.05,1.37-5.08,2.88-8.28,4.21l1.15.86h12.56l1.04-1.44,2.3,1.66c.22.14.32.25.32.36s-.11.22-.32.32l-1.12.58v3.89c0,1.22.04,2.27.14,3.89v.29c0,.47-.11.61-.86.94-.36.14-.58.22-.72.22-.22,0-.25-.18-.25-.47v-2.02h-13.43v1.33c0,.43-.07.65-.68.9-.47.22-.79.32-.97.32-.22,0-.29-.14-.29-.47,0-.14,0-.32.04-.54.14-1.66.22-3.49.22-4.75v-2.88c0-.72,0-1.69-.07-2.59-2.99,1.19-6.05,2.23-8.64,2.81l-.07-.5c7.41-2.84,12.63-5.29,16.56-7.85-2.23-1.62-3.96-3.56-5.08-6.05-2.77,3.64-4.79,5.76-6.8,7.56l-.22-.43c3.2-3.82,5.44-7.02,8.06-12.31l2.09,1.4c.18.11.29.22.29.32s-.11.18-.36.25c-.68.14-.94.32-1.51,1.12-.25.36-.5.72-.76,1.04h10.87l1.4-1.26,2.16,1.94c.18.14.25.25.25.32,0,.14-.14.22-.43.29-1.15.29-1.62.58-2.09,1.08-1.19,1.33-3.49,3.42-5.26,4.75,3.74,1.94,8.24,2.99,12.78,2.99.65,0,1.26-.04,1.87-.07v.47ZM184.93,29.3c.07.07.11.14.11.22,0,.11-.07.22-.25.22-1.33.07-2.23.72-4.43,3.38l-.43-.25,1.8-3.49h-23.61c-.36,4.39-2.59,4.75-3.17,4.75-.4,0-1.12-.14-1.12-.79,0-.29.14-.65.4-.83,1.94-1.44,3.02-2.38,3.42-5.47h.54v1.55h23.22l1.04-1.48,2.48,2.2ZM175.82,54.14v-6.62h-13.43v6.62h13.43ZM163.8,34.38c1.4,2.23,3.42,4.07,5.83,5.54,2.41-1.73,4.25-3.53,5.76-5.54h-11.59ZM166.46,23.62c2.88.79,4.46,1.66,4.72,2.74.04.22.07.4.07.58,0,.97-.68,1.55-1.22,1.55-.47,0-.58-.14-.9-1.12-.36-1.04-1.48-2.48-2.84-3.31l.18-.43Z"/>
        </g>
      </g>
      <g>
        <rect class="cls-2" x="1.15" y="80.1" width="300" height="79.1"/>
        <g>
          <path class="cls-4" d="M106.26,105.83c.25.25.36.43.36.54,0,.14-.14.22-.47.22h-11.84v8.96c0,11.12-.5,15.95-4.14,20.19l-.36-.25c2.63-4.5,2.88-7.85,2.88-19.69v-7.02c0-1.51-.04-3.78-.11-4.61l2.23,1.58h8.39l1.22-1.76,1.84,1.84ZM105.83,126.35c-5.44,3.46-6.98,5-7.63,6.3-.14.25-.22.36-.32.36-.07,0-.18-.04-.25-.14l-1.48-1.66c.86-.47,1.12-.86,1.12-2.09v-13.14c0-1.48-.07-3.92-.14-5.26l1.91,1.48h3.64l.72-1.22,2.02,1.37c.14.07.22.18.22.25,0,.14-.11.22-.97.83v6.84c0,2.09-.29,2.84-1.94,3.82-.14.11-.25.14-.32.14-.14,0-.22-.14-.25-.43-.14-.79-.5-1.15-2.56-1.84l.11-.47c.97.22,1.66.32,2.16.32,1.12,0,1.22-.61,1.22-2.2v-6.62h-4.18v16.7l6.7-3.82.25.47ZM115.66,115.52c.18.07.25.14.25.22s-.07.14-.22.25l-.86.58c.04,1.08.04,2.02.04,2.88,0,2.95-.18,4.86-.5,6.98-.54,3.64-4.03,7.02-11.63,9.72l-.29-.32c5.98-3.1,9.61-5.87,10.33-8.96.36-1.55.54-3.82.54-7.27,0-1.44-.04-3.13-.11-5.04l2.45.97ZM122.53,105.4c.29.29.4.47.4.58,0,.14-.14.18-.5.18h-7.16c-.54,1.15-1.3,3.02-2.23,5.58h5l.79-1.33,2.12,1.48c.18.11.29.22.29.32,0,.18-.14.25-1.12.94v5.72c0,2.74.07,4.46.18,6.08v.29c0,.54-.11.65-.83.97-.36.14-.58.25-.76.25-.25,0-.29-.22-.29-.76,0-1.4.07-3.6.07-5v-8.17h-8.85v9.18c0,1.51.04,2.84.11,4.03v.22c0,.43-.14.54-.94.94-.29.14-.5.25-.65.25-.22,0-.29-.22-.29-.65v-.47c.07-1.26.11-3.17.11-5v-6.16c0-1.33-.04-3.49-.11-4.72l2.09,1.58h2.41c.4-1.8.61-3.71.79-5.58h-2.45c-.76,0-1.8.14-2.41.4l-1.01-1.33c.9.07,1.8.14,2.63.14h9.32l1.33-1.87,1.94,1.91ZM114.72,127.04c4.1,1.94,6.26,3.2,7.38,4.86.25.4.36.79.36,1.19,0,.79-.43,1.48-.79,1.48-.47,0-.76-.29-1.33-1.44-.58-1.15-2.48-3.38-5.8-5.69l.18-.4Z"/>
          <path class="cls-4" d="M159.32,123.15c-2.23.18-3.02.79-3.56,1.73-.07.11-.14.18-.29.18-.04,0-.11,0-.22-.04-4.64-1.08-8.64-2.45-11.84-4.36-2.05,1.37-5.08,2.88-8.28,4.21l1.15.86h12.56l1.04-1.44,2.3,1.66c.22.14.32.25.32.36s-.11.22-.32.32l-1.12.58v3.89c0,1.22.04,2.27.14,3.89v.29c0,.47-.11.61-.86.94-.36.14-.58.22-.72.22-.22,0-.25-.18-.25-.47v-2.02h-13.43v1.33c0,.43-.07.65-.68.9-.47.22-.79.32-.97.32-.22,0-.29-.14-.29-.47,0-.14,0-.32.04-.54.14-1.66.22-3.49.22-4.75v-2.88c0-.72,0-1.69-.07-2.59-2.99,1.19-6.05,2.23-8.64,2.81l-.07-.5c7.41-2.84,12.63-5.29,16.56-7.85-2.23-1.62-3.96-3.56-5.08-6.05-2.77,3.64-4.79,5.76-6.8,7.56l-.22-.43c3.2-3.82,5.44-7.02,8.06-12.31l2.09,1.4c.18.11.29.22.29.32s-.11.18-.36.25c-.68.14-.94.32-1.51,1.12-.25.36-.5.72-.76,1.04h10.87l1.4-1.26,2.16,1.94c.18.14.25.25.25.32,0,.14-.14.22-.43.29-1.15.29-1.62.58-2.09,1.08-1.19,1.33-3.49,3.42-5.26,4.75,3.74,1.94,8.24,2.99,12.78,2.99.65,0,1.26-.04,1.87-.07v.47ZM158.49,108.32c.07.07.11.14.11.22,0,.11-.07.22-.25.22-1.33.07-2.23.72-4.43,3.38l-.43-.25,1.8-3.49h-23.61c-.36,4.39-2.59,4.75-3.17,4.75-.4,0-1.12-.14-1.12-.79,0-.29.14-.65.4-.83,1.94-1.44,3.02-2.38,3.42-5.47h.54v1.55h23.22l1.04-1.48,2.48,2.2ZM149.39,133.16v-6.62h-13.43v6.62h13.43ZM137.37,113.39c1.4,2.23,3.42,4.07,5.83,5.54,2.41-1.73,4.25-3.53,5.76-5.54h-11.59ZM140.03,102.63c2.88.79,4.46,1.66,4.72,2.74.04.22.07.4.07.58,0,.97-.68,1.55-1.22,1.55-.47,0-.58-.14-.9-1.12-.36-1.04-1.48-2.48-2.84-3.31l.18-.43Z"/>
          <path class="cls-4" d="M194.39,133.41c.4.32.58.5.58.65,0,.11-.22.14-.65.14h-29.37c-.76,0-1.8.14-2.41.4l-1.01-1.33c.9.07,1.8.14,2.63.14h13.17v-11.16h-8.78c-.76,0-1.8.14-2.41.4l-1.01-1.33c.9.07,1.8.14,2.63.14h9.58v-9.57h-10.51c-.76,0-1.8.14-2.41.4l-1.01-1.33c.9.07,1.8.14,2.63.14h22.79l1.62-2.02,2.48,2.02c.36.29.54.47.54.61s-.25.18-.68.18h-13.64v9.57h7.88l1.48-1.98,2.52,2.05c.32.25.47.43.47.54,0,.14-.18.18-.61.18h-11.73v11.16h11.23l1.48-2.09,2.56,2.09ZM174.66,103.1c2.05,1.04,5.26,2.92,5.26,4.72,0,1.01-.76,2.09-1.3,2.09-.58,0-.86-.47-1.04-1.66-.18-1.26-.97-2.99-3.17-4.79l.25-.36Z"/>
          <path class="cls-4" d="M208.54,109.76c.11.11.18.18.18.25s-.11.11-.29.11h-5.58c-1.66,3.53-3.46,7.09-5.33,10.11l-.47-.22c2.45-5.22,4.54-10.44,6.73-16.7l1.98,1.33c.32.18.47.32.47.43,0,.07-.14.14-.5.25-.83.22-1.01.47-1.3,1.15-.4.94-.79,1.87-1.26,2.84h2.77l.9-1.26,1.69,1.69ZM209.04,127.94l-3.82,3.67c-1.26,1.22-1.48,1.62-1.76,2.27-.07.18-.14.25-.25.25-.07,0-.18-.04-.25-.11l-1.62-1.44c1.19-.97,1.33-1.15,1.33-2.84v-7.09h-1.08c-.76,0-1.8.14-2.41.4l-1.01-1.33c.9.07,1.8.14,2.63.14h1.87v-5.98c-.29.04-.54.14-.9.25l-1.01-1.22c.83.11,1.48.14,2.3.14h2.23l1.08-1.44,1.62,1.8c.11.14.18.25.18.32s-.11.11-.32.11h-3.56v6.01h1.66l1.04-1.44,1.51,1.8c.14.14.22.25.22.32s-.11.11-.25.11h-4.18v7.99l4.46-3.06.29.36ZM230.93,133.01c-1.58.4-2.09.9-2.38,1.73-.07.22-.14.29-.43.29-10.08-.43-12.45-.97-15.23-4.61-1.3,1.98-2.99,3.6-7.06,6.3l-.25-.36c3.31-2.84,5.11-4.61,6.41-7.2-.68-1.22-1.84-4.25-2.7-6.95l.43-.18c.97,2.48,1.73,4,2.81,5.94.68-1.98,1.22-5.58,1.48-10.33h-1.87l-.54.76c-.11.14-.18.22-.29.22-.07,0-.14-.04-.22-.11l-1.73-1.4,1.15-.72,2.66-7.81h-1.76c-.61,0-1.3.11-1.8.29l-.9-1.22c.76.11,1.37.14,2.05.14h2.12l.9-1.3,1.73,1.55c.14.14.22.25.22.32,0,.11-.11.22-.36.29-.61.22-.79.5-1.22,1.66l-2.27,6.55h1.83l.79-1.01,1.76,1.4c.18.11.25.22.25.29s-.07.14-.22.22l-.79.43c-.4,5.51-.94,8.96-2.05,11.23,2.02,2.52,5.26,3.56,10.47,3.56,2.02,0,4.32-.14,6.98-.43v.47ZM231.47,111.99c.18.22.29.36.29.43,0,.11-.14.14-.4.14h-3.56v1.48c0,.43.11,2.59.11,3.1,0,.36-.14.5-.9.86-.29.14-.5.22-.61.22-.25,0-.25-.11-.25-1.19h-3.6v3.85h3.28l1.01-1.51,1.66,1.8c.14.14.25.29.25.36,0,.11-.14.14-.43.14h-5.76v3.85h3.89l1.08-1.48,1.84,1.84c.14.14.22.25.22.32s-.11.11-.32.11h-6.7c0,.54.07,3.2.07,3.82,0,.4-.14.58-.79.9-.4.18-.65.29-.79.29-.18,0-.22-.14-.22-.4v-.22c.07-1.73.11-3.13.11-4.39h-2.84c-.65,0-1.44.11-1.94.36l-.9-1.3c.76.07,1.51.14,2.2.14h3.49v-3.85h-1.98c-.61,0-1.37.11-1.91.36l-.86-1.3c.72.07,1.44.14,2.12.14h2.63v-3.85h-1.87c-.61,0-1.26.11-1.76.32l-.83-1.26c.68.07,1.33.14,1.94.14h2.52v-3.67h-2.99c-.61,0-1.3.14-1.8.32l-1.01-1.26c.76.07,1.48.14,2.16.14h3.64v-3.46h-1.8c-.54,0-1.04.11-1.51.25l-1.04-1.15c.68.07,1.37.11,2.02.11h2.34c0-1.48,0-3.67-.07-4.93l2.48,1.19c.14.07.25.11.25.18,0,.11-.04.14-1.04.79v2.77h3.2l.83-1.44,1.87,1.37c.22.14.32.25.32.36s-.11.18-.97.76v3.2h.79l1.15-1.69,1.73,1.91ZM226.14,111.77v-3.46h-3.6v3.46h3.6ZM226.14,116.24v-3.67h-3.6v3.67h3.6Z"/>
        </g>
      </g>
      <g>
        <rect class="cls-2" x="1.15" y="159.21" width="300" height="79.1"/>
        <g>
          <path class="cls-4" d="M130.32,205.74l-9.83,4.82c-.76.36-1.69,1.19-1.98,1.66-.07.14-.18.25-.29.25s-.22-.11-.36-.25l-1.48-1.66,6.16-2.38v-12.49h-2.66c-.68,0-1.66.14-2.2.36l-.9-1.26c.79.07,1.62.14,2.38.14h3.38v-6.3c0-1.4-.07-3.71-.14-4.97l2.7,1.26c.25.11.4.22.4.36s-.11.25-1.26.97v8.67h2.52l1.26-1.69,1.66,1.69c.22.22.36.4.36.54s-.18.22-.5.22h-5.29v11.84l5.83-2.27.25.47ZM148.61,206.21c.07,3.92.18,4.54,1.15,5.4.18.14.25.25.25.4,0,.11-.04.22-.11.36-1.04,2.48-1.69,2.81-10.04,2.81s-9.11-.32-9.11-4.5v-12.09c-.9.36-2.45,1.01-3.28,1.84l-1.55-.83c.79-.18,1.73-.58,2.41-.86l2.41-1.01v-5.9c0-1.01-.04-2.84-.11-4.28l2.59,1.22c.22.11.32.22.32.36,0,.18-.11.25-1.12.97v6.91l4.9-2.05v-7.96c0-1.44-.04-3.1-.07-4.36l2.59,1.33c.18.11.29.18.29.29s-.11.22-.25.32l-.94.61v9.07l5.4-2.27.68-1.76,2.59,1.44c.14.07.22.18.22.32,0,.11-.07.22-.22.32l-1.19.79c-.07,2.95-.43,8.1-.72,10.62-.25,2.2-.79,2.95-2.41,3.78-.11.07-.18.07-.25.07-.14,0-.25-.11-.29-.29-.29-1.04-.72-1.26-3.31-2.02l.11-.58c1.22.22,2.12.36,2.77.36,1.4,0,1.69-.65,1.94-2.38.32-2.2.61-7.67.61-10.04l-5.94,2.48v7.96c0,.68.07,4.1.07,4.9,0,.65-.14.83-.86,1.26-.25.14-.43.25-.58.25-.22,0-.32-.25-.32-.86,0-.79.07-4.68.07-5.58v-7.23l-4.9,2.05v12.89c0,2.77,0,2.92,7.56,2.92,2.23,0,4.36-.07,5.54-.22,1.98-.25,2.12-.47,2.48-7.23h.58Z"/>
          <path class="cls-4" d="M165.46,205.49l-8.6,3.38c-1.91.76-2.56,1.15-3.06,1.66-.07.07-.18.14-.25.14s-.14-.07-.22-.14l-1.44-1.76,5.76-1.66v-12.81h-2.2c-.68,0-1.66.14-2.2.36l-.9-1.26c.79.07,1.62.14,2.38.14h2.92v-6.16c0-1.4-.07-3.71-.14-4.97l2.7,1.33c.18.07.25.14.25.25,0,.07-.04.14-.18.22l-.97.61v8.71h2.63l1.37-1.91,2.12,2.2c.18.18.25.29.25.36s-.11.11-.32.11h-6.05v12.35l6.01-1.73.14.58ZM185.65,213.27c.18.18.25.29.25.4,0,.07-.11.11-.36.11h-23.4c-.76,0-1.84.14-2.41.36l-1.01-1.3c.86.07,1.8.14,2.63.14h5.33v-18.75c0-1.4-.04-2.27-.11-3.53l2.66,1.4c.22.11.29.22.29.29s-.07.18-.22.25l-.97.65v19.69h5.44v-25.38c0-1.48-.07-3.92-.14-5.26l2.81,1.55c.18.11.25.18.25.29,0,.07-.07.14-.22.25l-1.01.68v11.01h5.08l1.51-1.94,2.2,2.2c.18.18.29.32.29.4,0,.11-.14.14-.36.14h-8.71v16.05h6.41l1.58-2.02,2.2,2.3Z"/>
        </g>
      </g>
    </g>
    <g>
      <rect class="cls-3" x="1.07" y="448.74" width="300" height="79.1"/>
      <g>
        <path class="cls-4" d="M109.48,473.26c.25.18.36.29.36.4,0,.07-.11.18-.32.25-.9.36-1.04.5-1.44,1.33-1.01,2.09-2.05,4.18-3.24,6.26l1.55.72c.22.11.32.18.32.29s-.61.65-.97.97v14.51c0,2.45.04,4.07.14,5.69v.29c0,.47-.11.61-.86.94-.32.14-.58.22-.76.22-.25,0-.32-.22-.32-.83v-.32c.07-2.12.11-4.18.11-6.05v-14.97c-1.58,2.7-3.35,5.36-5.47,7.95l-.47-.32c3.67-5.61,7.06-12.38,9.07-18.9l2.3,1.58ZM131.9,492.12c.29.29.47.47.47.58,0,.14-.22.18-.65.18h-21.81c-.76,0-1.84.14-2.41.36l-1.01-1.3c.86.07,1.8.14,2.63.14h4.97v-10.55h-2.3c-.76,0-1.84.14-2.41.36l-1.01-1.3c.86.07,1.8.14,2.63.14h3.1v-4.82c0-1.44-.04-2.34-.11-3.67l2.45,1.01c.25.11.4.18.4.29,0,.14-.11.22-1.04.94v6.26h6.98v-5.22c0-1.44-.04-2.34-.11-3.67l2.63,1.26c.32.14.47.22.47.36,0,.07-.11.22-.36.4l-.94.72v6.16h2.74l1.55-2.16,2.05,2.12c.22.25.36.43.36.58,0,.18-.22.25-.58.25h-6.12v10.55h3.82l1.4-2.09,2.23,2.12ZM118.04,496.44c.14.11.22.18.22.25s-.07.11-.25.14c-.97.18-1.51.43-1.73.68-2.84,3.1-6.19,6.23-8.96,7.99l-.29-.32c3.71-3.28,7.2-7.92,8.64-10.62l2.38,1.87ZM122.76,492.09v-10.55h-6.98v10.55h6.98ZM121.36,495c4.18,2.05,7.2,4.21,8.06,5.65.25.47.36.94.36,1.4,0,1.04-.58,1.94-1.08,1.94-.4,0-.65-.22-.9-.79-1.48-3.24-2.59-4.64-6.66-7.85l.22-.36Z"/>
        <path class="cls-4" d="M167.18,477.51c.25.22.36.4.36.54s-.18.25-.5.25h-26.06v10.47c0,7.78-1.84,12.35-5.98,16.02l-.36-.29c3.42-4.21,4.68-8.6,4.68-15.84v-9.68c0-1.3-.04-2.59-.11-3.38l2.48,1.91h21.6l1.51-2.09,2.38,2.09ZM167.25,502.09c.25.22.36.4.36.54s-.18.25-.5.25h-23.18c-.76,0-1.8.14-2.41.4l-1.01-1.33c.9.07,1.8.14,2.63.14h11.66c1.69-3.82,5.62-14.43,6.88-20.16l2.52,1.55c.14.11.25.18.25.29,0,.07-.11.18-.32.32-.72.43-.9.54-1.08.94-2.48,6.15-5.43,12.99-7.49,17.06h7.81l1.51-2.09,2.38,2.09ZM144.04,484.31c3.02,3.78,4.61,7.52,4.61,9.29,0,1.51-.9,2.34-1.37,2.34-.5,0-.68-.47-.68-1.37,0-2.77-.72-5.87-2.92-10.04l.36-.22ZM149.94,472.04c3.74,1.3,4.64,2.16,4.64,3.46,0,.97-.68,1.73-1.26,1.73-.32,0-.47-.11-.61-.76-.29-1.26-1.22-2.74-2.95-4.07l.18-.36ZM151.16,482.73c2.95,4.18,4.1,7.56,4.1,8.89,0,1.48-1.01,2.16-1.58,2.16-.61,0-.61-.83-.61-2.09,0-1.91-.61-4.75-2.23-8.75l.32-.22Z"/>
        <path class="cls-4" d="M203.65,476.25c.25.29.4.47.4.61s-.18.18-.54.18h-29.48c-.76,0-1.8.14-2.41.4l-1.01-1.33c.9.07,1.8.14,2.63.14h26.89l1.62-2.12,1.91,2.12ZM201.35,482.66c.22.14.32.25.32.36s-.11.22-.32.36l-1.04.68v17.42c0,1.94-.5,2.63-2.34,3.49-.14.07-.29.11-.36.11-.14,0-.22-.11-.25-.32-.18-1.04-.94-1.69-4.17-2.52l.11-.58c2.09.32,3.35.5,4.1.5,1.12,0,1.15-.36,1.15-1.22v-17.53h-21.63v14.11c0,3.64.04,4.9.14,6.33v.25c0,.43-.11.58-.86.86-.32.14-.58.22-.72.22-.29,0-.36-.22-.36-.76v-.32c.07-1.91.11-4.82.11-6.66v-11.84c0-1.33-.07-3.53-.14-4.72l2.27,1.73h12.85c1.3-2.2,2.05-3.74,2.7-5.29l1.98,1.15c.25.14.36.29.36.4,0,.14-.14.22-.5.29-.36.07-.72.25-1.01.61l-2.7,2.84h6.95l1.08-1.66,2.3,1.69ZM185.87,486.04c.29.18.43.32.43.43s-.18.18-.47.22c-.72.11-1.08.32-1.44.68-1.69,1.62-3.64,3.38-6.55,5.44l-.29-.47c2.27-1.66,4.71-4.54,6.55-7.59l1.76,1.3ZM180.29,477.76c3.38.97,4.39,1.84,4.39,3.13,0,.9-.68,1.48-1.12,1.48s-.65-.32-.79-.86c-.36-1.26-1.15-2.34-2.63-3.38l.14-.36ZM193.93,491.51c.18.11.25.18.25.29,0,.07-.07.18-.25.32l-.79.61v3.06c0,1.08.04,2.05.14,3.49v.25c0,.43-.11.58-.86.86-.32.11-.54.18-.68.18-.22,0-.25-.14-.25-.43v-1.15h-7.56v1.19c0,.47-.07.58-.68.83-.32.11-.58.18-.72.18-.25,0-.32-.18-.32-.68,0-.68.11-4.14.11-4.39v-2.66c0-.79-.04-2.34-.11-3.35l2.09,1.3h6.62l.94-1.37,2.09,1.48ZM191.48,498.21v-6.01h-7.56v6.01h7.56ZM185.08,471.46c2.95.94,4.21,1.87,4.21,3.2,0,.9-.61,1.51-1.15,1.51-.47,0-.65-.25-.76-.83-.18-1.01-.97-2.23-2.52-3.53l.22-.36ZM190.04,485.28c4.1,1.33,6.62,2.52,6.62,4.53,0,.79-.43,1.4-.79,1.4-.32,0-.54-.18-.9-.97-.25-.54-2.3-2.92-5.11-4.57l.18-.4Z"/>
      </g>
      <rect class="cls-2" x="1.07" y="524.84" width="300" height="79.1"/>
      <g>
        <path class="cls-4" d="M73.17,549.36c.25.18.36.29.36.4,0,.07-.11.18-.32.25-.9.36-1.04.5-1.44,1.33-1.01,2.09-2.05,4.17-3.24,6.26l1.55.72c.22.11.32.18.32.29s-.61.65-.97.97v14.51c0,2.45.04,4.07.14,5.69v.29c0,.47-.11.61-.86.94-.32.14-.58.22-.76.22-.25,0-.32-.22-.32-.83v-.32c.07-2.12.11-4.18.11-6.05v-14.97c-1.58,2.7-3.35,5.36-5.47,7.96l-.47-.32c3.67-5.62,7.06-12.38,9.07-18.9l2.3,1.58ZM95.6,568.22c.29.29.47.47.47.58,0,.14-.22.18-.65.18h-21.81c-.76,0-1.84.14-2.41.36l-1.01-1.29c.86.07,1.8.14,2.63.14h4.97v-10.55h-2.3c-.76,0-1.84.14-2.41.36l-1.01-1.3c.86.07,1.8.14,2.63.14h3.1v-4.82c0-1.44-.04-2.34-.11-3.67l2.45,1.01c.25.11.4.18.4.29,0,.14-.11.22-1.04.94v6.26h6.98v-5.22c0-1.44-.04-2.34-.11-3.67l2.63,1.26c.32.14.47.22.47.36,0,.07-.11.22-.36.4l-.94.72v6.16h2.74l1.55-2.16,2.05,2.12c.22.25.36.43.36.58,0,.18-.22.25-.58.25h-6.12v10.55h3.82l1.4-2.09,2.23,2.12ZM81.74,572.54c.14.11.22.18.22.25s-.07.11-.25.14c-.97.18-1.51.43-1.73.68-2.84,3.1-6.19,6.23-8.96,7.99l-.29-.32c3.71-3.28,7.2-7.92,8.64-10.62l2.38,1.87ZM86.45,568.19v-10.55h-6.98v10.55h6.98ZM85.05,571.1c4.18,2.05,7.2,4.21,8.06,5.65.25.47.36.94.36,1.4,0,1.04-.58,1.94-1.08,1.94-.4,0-.65-.22-.9-.79-1.48-3.24-2.59-4.64-6.66-7.85l.22-.36Z"/>
        <path class="cls-4" d="M130.88,553.61c.25.22.36.4.36.54s-.18.25-.5.25h-26.06v10.47c0,7.78-1.84,12.35-5.98,16.02l-.36-.29c3.42-4.21,4.68-8.6,4.68-15.84v-9.68c0-1.3-.04-2.59-.11-3.38l2.48,1.91h21.6l1.51-2.09,2.38,2.09ZM130.95,578.19c.25.22.36.4.36.54s-.18.25-.5.25h-23.18c-.76,0-1.8.14-2.41.4l-1.01-1.33c.9.07,1.8.14,2.63.14h11.66c1.69-3.82,5.62-14.43,6.88-20.16l2.52,1.55c.14.11.25.18.25.29,0,.07-.11.18-.32.32-.72.43-.9.54-1.08.94-2.48,6.16-5.43,12.99-7.49,17.06h7.81l1.51-2.09,2.38,2.09ZM107.73,560.41c3.02,3.78,4.61,7.52,4.61,9.29,0,1.51-.9,2.34-1.37,2.34-.5,0-.68-.47-.68-1.37,0-2.77-.72-5.87-2.92-10.04l.36-.22ZM113.63,548.14c3.74,1.3,4.64,2.16,4.64,3.46,0,.97-.68,1.73-1.26,1.73-.32,0-.47-.11-.61-.76-.29-1.26-1.22-2.74-2.95-4.07l.18-.36ZM114.86,558.83c2.95,4.17,4.1,7.56,4.1,8.89,0,1.48-1.01,2.16-1.58,2.16-.61,0-.61-.83-.61-2.09,0-1.91-.61-4.75-2.23-8.75l.32-.22Z"/>
        <path class="cls-4" d="M167.34,552.35c.25.29.4.47.4.61s-.18.18-.54.18h-29.48c-.76,0-1.8.14-2.41.4l-1.01-1.33c.9.07,1.8.14,2.63.14h26.89l1.62-2.12,1.91,2.12ZM165.04,558.76c.22.14.32.25.32.36s-.11.22-.32.36l-1.04.68v17.42c0,1.94-.5,2.63-2.34,3.49-.14.07-.29.11-.36.11-.14,0-.22-.11-.25-.32-.18-1.04-.94-1.69-4.17-2.52l.11-.58c2.09.32,3.35.5,4.1.5,1.12,0,1.15-.36,1.15-1.22v-17.53h-21.63v14.11c0,3.64.04,4.9.14,6.33v.25c0,.43-.11.58-.86.86-.32.14-.58.22-.72.22-.29,0-.36-.22-.36-.76v-.32c.07-1.91.11-4.82.11-6.66v-11.84c0-1.33-.07-3.53-.14-4.71l2.27,1.73h12.85c1.3-2.2,2.05-3.74,2.7-5.29l1.98,1.15c.25.14.36.29.36.4,0,.14-.14.22-.5.29-.36.07-.72.25-1.01.61l-2.7,2.84h6.95l1.08-1.66,2.3,1.69ZM149.56,562.14c.29.18.43.32.43.43s-.18.18-.47.22c-.72.11-1.08.32-1.44.68-1.69,1.62-3.64,3.38-6.55,5.44l-.29-.47c2.27-1.66,4.71-4.54,6.55-7.59l1.76,1.3ZM143.98,553.86c3.38.97,4.39,1.84,4.39,3.13,0,.9-.68,1.48-1.12,1.48s-.65-.32-.79-.86c-.36-1.26-1.15-2.34-2.63-3.38l.14-.36ZM157.63,567.61c.18.11.25.18.25.29,0,.07-.07.18-.25.32l-.79.61v3.06c0,1.08.04,2.05.14,3.49v.25c0,.43-.11.58-.86.86-.32.11-.54.18-.68.18-.22,0-.25-.14-.25-.43v-1.15h-7.56v1.19c0,.47-.07.58-.68.83-.32.11-.58.18-.72.18-.25,0-.32-.18-.32-.68,0-.68.11-4.14.11-4.39v-2.66c0-.79-.04-2.34-.11-3.35l2.09,1.3h6.62l.94-1.37,2.09,1.48ZM155.18,574.31v-6.01h-7.56v6.01h7.56ZM148.77,547.56c2.95.94,4.21,1.87,4.21,3.2,0,.9-.61,1.51-1.15,1.51-.47,0-.65-.25-.76-.83-.18-1.01-.97-2.23-2.52-3.53l.22-.36ZM153.74,561.38c4.1,1.33,6.62,2.52,6.62,4.54,0,.79-.43,1.4-.79,1.4-.32,0-.54-.18-.9-.97-.25-.54-2.3-2.92-5.11-4.57l.18-.4Z"/>
        <path class="cls-4" d="M202.98,578.23c.4.32.58.5.58.65,0,.11-.22.14-.65.14h-29.37c-.76,0-1.8.14-2.41.4l-1.01-1.33c.9.07,1.8.14,2.63.14h13.17v-11.16h-8.78c-.76,0-1.8.14-2.41.4l-1.01-1.33c.9.07,1.8.14,2.63.14h9.58v-9.57h-10.51c-.76,0-1.8.14-2.41.4l-1.01-1.33c.9.07,1.8.14,2.63.14h22.79l1.62-2.02,2.48,2.02c.36.29.54.47.54.61s-.25.18-.68.18h-13.64v9.57h7.88l1.48-1.98,2.52,2.05c.32.25.47.43.47.54,0,.14-.18.18-.61.18h-11.73v11.16h11.23l1.48-2.09,2.56,2.09ZM183.26,547.92c2.05,1.04,5.26,2.92,5.26,4.72,0,1.01-.76,2.09-1.3,2.09-.58,0-.86-.47-1.04-1.66-.18-1.26-.97-2.99-3.17-4.79l.25-.36Z"/>
        <path class="cls-4" d="M217.13,554.58c.11.11.18.18.18.25s-.11.11-.29.11h-5.58c-1.66,3.53-3.46,7.09-5.33,10.11l-.47-.22c2.45-5.22,4.54-10.44,6.73-16.7l1.98,1.33c.32.18.47.32.47.43,0,.07-.14.14-.5.25-.83.22-1.01.47-1.3,1.15-.4.94-.79,1.87-1.26,2.84h2.77l.9-1.26,1.69,1.69ZM217.64,572.76l-3.82,3.67c-1.26,1.22-1.48,1.62-1.76,2.27-.07.18-.14.25-.25.25-.07,0-.18-.04-.25-.11l-1.62-1.44c1.19-.97,1.33-1.15,1.33-2.84v-7.09h-1.08c-.76,0-1.8.14-2.41.4l-1.01-1.33c.9.07,1.8.14,2.63.14h1.87v-5.98c-.29.04-.54.14-.9.25l-1.01-1.22c.83.11,1.48.14,2.3.14h2.23l1.08-1.44,1.62,1.8c.11.14.18.25.18.32s-.11.11-.32.11h-3.56v6.01h1.66l1.04-1.44,1.51,1.8c.14.14.22.25.22.32s-.11.11-.25.11h-4.18v7.99l4.46-3.06.29.36ZM239.52,577.83c-1.58.4-2.09.9-2.38,1.73-.07.22-.14.29-.43.29-10.08-.43-12.45-.97-15.23-4.61-1.3,1.98-2.99,3.6-7.06,6.3l-.25-.36c3.31-2.84,5.11-4.61,6.41-7.2-.68-1.22-1.84-4.25-2.7-6.95l.43-.18c.97,2.48,1.73,4,2.81,5.94.68-1.98,1.22-5.58,1.48-10.33h-1.87l-.54.76c-.11.14-.18.22-.29.22-.07,0-.14-.04-.22-.11l-1.73-1.4,1.15-.72,2.66-7.81h-1.76c-.61,0-1.3.11-1.8.29l-.9-1.22c.76.11,1.37.14,2.05.14h2.12l.9-1.3,1.73,1.55c.14.14.22.25.22.32,0,.11-.11.22-.36.29-.61.22-.79.5-1.22,1.66l-2.27,6.55h1.83l.79-1.01,1.76,1.4c.18.11.25.22.25.29s-.07.14-.22.22l-.79.43c-.4,5.51-.94,8.96-2.05,11.23,2.02,2.52,5.26,3.56,10.47,3.56,2.02,0,4.32-.14,6.98-.43v.47ZM240.06,556.81c.18.22.29.36.29.43,0,.11-.14.14-.4.14h-3.56v1.48c0,.43.11,2.59.11,3.1,0,.36-.14.5-.9.86-.29.14-.5.22-.61.22-.25,0-.25-.11-.25-1.19h-3.6v3.85h3.28l1.01-1.51,1.66,1.8c.14.14.25.29.25.36,0,.11-.14.14-.43.14h-5.76v3.85h3.89l1.08-1.48,1.84,1.84c.14.14.22.25.22.32s-.11.11-.32.11h-6.7c0,.54.07,3.2.07,3.82,0,.4-.14.58-.79.9-.4.18-.65.29-.79.29-.18,0-.22-.14-.22-.4v-.22c.07-1.73.11-3.13.11-4.39h-2.84c-.65,0-1.44.11-1.94.36l-.9-1.3c.76.07,1.51.14,2.2.14h3.49v-3.85h-1.98c-.61,0-1.37.11-1.91.36l-.86-1.3c.72.07,1.44.14,2.12.14h2.63v-3.85h-1.87c-.61,0-1.26.11-1.76.32l-.83-1.26c.68.07,1.33.14,1.94.14h2.52v-3.67h-2.99c-.61,0-1.3.14-1.8.32l-1.01-1.26c.76.07,1.48.14,2.16.14h3.64v-3.46h-1.8c-.54,0-1.04.11-1.51.25l-1.04-1.15c.68.07,1.37.11,2.02.11h2.34c0-1.48,0-3.67-.07-4.93l2.48,1.19c.14.07.25.11.25.18,0,.11-.04.14-1.04.79v2.77h3.2l.83-1.44,1.87,1.37c.22.14.32.25.32.36s-.11.18-.97.76v3.2h.79l1.15-1.69,1.73,1.91ZM234.74,556.6v-3.46h-3.6v3.46h3.6ZM234.74,561.06v-3.67h-3.6v3.67h3.6Z"/>
      </g>
      <rect class="cls-2" x="1.07" y="603.94" width="300" height="79.1"/>
      <g>
        <path class="cls-4" d="M130.25,650.24l-9.83,4.82c-.76.36-1.69,1.19-1.98,1.66-.07.14-.18.25-.29.25s-.22-.11-.36-.25l-1.48-1.66,6.16-2.38v-12.49h-2.66c-.68,0-1.66.14-2.2.36l-.9-1.26c.79.07,1.62.14,2.38.14h3.38v-6.3c0-1.4-.07-3.71-.14-4.97l2.7,1.26c.25.11.4.22.4.36s-.11.25-1.26.97v8.67h2.52l1.26-1.69,1.66,1.69c.22.22.36.4.36.54s-.18.22-.5.22h-5.29v11.84l5.83-2.27.25.47ZM148.53,650.71c.07,3.92.18,4.54,1.15,5.4.18.14.25.25.25.4,0,.11-.04.22-.11.36-1.04,2.48-1.69,2.81-10.04,2.81s-9.11-.32-9.11-4.5v-12.09c-.9.36-2.45,1.01-3.28,1.84l-1.55-.83c.79-.18,1.73-.58,2.41-.86l2.41-1.01v-5.9c0-1.01-.04-2.84-.11-4.28l2.59,1.22c.22.11.32.22.32.36,0,.18-.11.25-1.12.97v6.91l4.9-2.05v-7.96c0-1.44-.04-3.1-.07-4.36l2.59,1.33c.18.11.29.18.29.29s-.11.22-.25.32l-.94.61v9.07l5.4-2.27.68-1.76,2.59,1.44c.14.07.22.18.22.32,0,.11-.07.22-.22.32l-1.19.79c-.07,2.95-.43,8.1-.72,10.62-.25,2.2-.79,2.95-2.41,3.78-.11.07-.18.07-.25.07-.14,0-.25-.11-.29-.29-.29-1.04-.72-1.26-3.31-2.02l.11-.58c1.22.22,2.12.36,2.77.36,1.4,0,1.69-.65,1.94-2.38.32-2.2.61-7.67.61-10.04l-5.94,2.48v7.96c0,.68.07,4.1.07,4.9,0,.65-.14.83-.86,1.26-.25.14-.43.25-.58.25-.22,0-.32-.25-.32-.86,0-.79.07-4.68.07-5.58v-7.24l-4.9,2.05v12.89c0,2.77,0,2.92,7.56,2.92,2.23,0,4.36-.07,5.54-.22,1.98-.25,2.12-.47,2.48-7.23h.58Z"/>
        <path class="cls-4" d="M165.38,649.99l-8.6,3.38c-1.91.76-2.56,1.15-3.06,1.66-.07.07-.18.14-.25.14s-.14-.07-.22-.14l-1.44-1.76,5.76-1.66v-12.81h-2.2c-.68,0-1.66.14-2.2.36l-.9-1.26c.79.07,1.62.14,2.38.14h2.92v-6.16c0-1.4-.07-3.71-.14-4.97l2.7,1.33c.18.07.25.14.25.25,0,.07-.04.14-.18.22l-.97.61v8.71h2.63l1.37-1.91,2.12,2.2c.18.18.25.29.25.36s-.11.11-.32.11h-6.05v12.35l6.01-1.73.14.58ZM185.58,657.77c.18.18.25.29.25.4,0,.07-.11.11-.36.11h-23.4c-.76,0-1.84.14-2.41.36l-1.01-1.3c.86.07,1.8.14,2.63.14h5.33v-18.75c0-1.4-.04-2.27-.11-3.53l2.66,1.4c.22.11.29.22.29.29s-.07.18-.22.25l-.97.65v19.69h5.44v-25.38c0-1.48-.07-3.92-.14-5.25l2.81,1.55c.18.11.25.18.25.29,0,.07-.07.14-.22.25l-1.01.68v11.01h5.08l1.51-1.94,2.2,2.2c.18.18.29.32.29.4,0,.11-.14.14-.36.14h-8.71v16.05h6.41l1.58-2.02,2.2,2.3Z"/>
      </g>
    </g>
    <g>
      <rect class="cls-3" x="1023.49" y="3.59" width="300" height="79.1"/>
      <g>
        <path class="cls-4" d="M1172.44,48.1c-1.26,0-2.59.79-3.1,1.66-.07.14-.18.22-.32.22-.11,0-.22,0-.32-.07-6.7-2.52-10.58-5.62-13.03-8.39-5.9,4.46-11.16,7.88-16.52,10.01l-.22-.43c5.51-2.99,11.84-7.31,15.91-11.48l2.23.94c.14.07.22.14.22.22,0,.11-.11.18-.32.25-.22.04-.43.11-.61.18,3.53,3.71,10.22,6.34,16.09,6.55v.36ZM1171.43,33.3c.22.18.29.29.29.4s-.14.14-.36.18c-1.62.14-2.59.83-4.21,3.53l-.54-.25,1.66-3.82h-12.02v1.44c0,.47.07,2.84.07,3.38,0,.5-.18.65-.86.86-.29.11-.5.14-.65.14-.25,0-.32-.18-.32-.68,0-.54.04-3.17.04-3.78v-1.37h-11.01c-.11,2.38-.72,3.31-1.8,3.89-.47.25-.9.36-1.26.36-.29,0-.83-.07-.83-.76,0-.32.22-.61.83-1.04,1.44-1.08,2.09-2.02,2.45-4.61h.58c.04.5.04.94.04,1.37h11.01v-2.95h-6.55c-.72,0-1.76.14-2.3.36l-.97-1.3c.83.11,1.73.14,2.52.14h15.84l1.58-2.16,2.38,2.23c.22.22.32.36.32.5s-.18.22-.5.22h-10.58v2.95h11.73l.97-1.33,2.48,2.09ZM1151.46,40.43h-7.38v-.79h7.38v.79ZM1151.6,37.15h-7.38v-.79h7.38v.79ZM1163.87,51.01c.18.18.25.29.25.4,0,.14-.14.18-.43.22-.79.07-1.73.32-2.92,1.12l-4.86,3.2c3.31,1.26,3.92,2.38,3.92,3.42,0,.68-.43.94-.94.94s-.79-.29-1.08-.68c-1.19-1.62-5.4-3.85-9.47-4.61l.04-.47c2.45.04,4.86.5,6.8,1.15l5.44-4.79h-11.84c-.79,0-1.76.18-2.38.43l-1.01-1.33c.9.07,1.87.11,2.7.11h12.35l1.3-1.22,2.12,2.12ZM1152.75,44.96c2.3.54,4.25,1.4,4.39,2.88,0,.79-.32,1.44-.97,1.44-.29,0-.68-.43-.76-.76-.18-.83-1.33-2.34-2.81-3.28l.14-.29ZM1166,37.08h-7.09v-.79h7.09v.79ZM1166.18,40.43h-7.27v-.79h7.27v.79Z"/>
        <path class="cls-4" d="M1185.15,28.19c.29.18.43.29.43.4s-.14.22-.43.32c-.76.29-1.15.65-1.48,1.48-.68,1.69-1.55,3.71-2.56,5.83l1.58.94c.18.11.25.18.25.25,0,.11-.07.18-.94.76v14.58c0,2.23.04,4.07.14,5.69v.29c0,.47-.11.61-.86.94-.32.14-.54.25-.72.25-.25,0-.32-.25-.32-.86v-.32c.07-2.12.11-4.18.11-6.05v-14.9c-1.48,2.95-3.2,5.9-5.11,8.28l-.4-.32c3.38-5.54,5.94-11.95,7.95-18.9l2.34,1.37ZM1207.58,44.93c.32.29.47.47.47.61s-.22.18-.61.18h-9.86v5.76c0,2.74.04,5.26.14,6.88v.29c0,.47-.11.61-.86.94-.36.18-.61.25-.79.25-.25,0-.32-.22-.32-.83v-.36c.07-2.12.11-5.18.11-7.23v-5.69h-9.47c-.76,0-1.8.14-2.41.4l-1.01-1.33c.9.07,1.8.14,2.63.14h10.26v-8.53h-6.12c-1.12,2.48-2.52,4.97-4.03,7.06l-.43-.32c2.41-4.18,3.89-9.21,4.86-13.28l2.38,1.37c.14.11.22.18.22.25s-.11.18-.36.25c-.72.25-.94.5-1.48,1.91-.25.65-.5,1.3-.79,1.94h5.76v-3.67c0-1.48-.07-4.1-.14-5.44l2.66,1.37c.22.11.32.18.32.29s-.07.22-.25.36l-.86.79v6.3h4.32l1.4-1.98,2.34,2.16c.25.22.4.36.4.47,0,.14-.18.18-.54.18h-7.92v8.53h6.41l1.48-2.02,2.12,2.02Z"/>
      </g>
      <rect class="cls-2" x="1023.49" y="82.7" width="300" height="79.1"/>
      <g>
        <path class="cls-4" d="M1135.99,127.2c-1.26,0-2.59.79-3.1,1.66-.07.14-.18.22-.32.22-.11,0-.22,0-.32-.07-6.7-2.52-10.58-5.62-13.03-8.39-5.9,4.46-11.16,7.88-16.52,10.01l-.21-.43c5.51-2.99,11.84-7.31,15.91-11.48l2.23.94c.14.07.22.14.22.22,0,.11-.11.18-.32.25-.22.04-.43.11-.61.18,3.53,3.71,10.22,6.34,16.09,6.55v.36ZM1134.98,112.41c.21.18.29.29.29.4s-.14.14-.36.18c-1.62.14-2.59.83-4.21,3.53l-.54-.25,1.66-3.82h-12.02v1.44c0,.47.07,2.84.07,3.38,0,.5-.18.65-.86.86-.29.11-.5.14-.65.14-.25,0-.32-.18-.32-.68,0-.54.04-3.17.04-3.78v-1.37h-11.02c-.11,2.38-.72,3.31-1.8,3.89-.47.25-.9.36-1.26.36-.29,0-.83-.07-.83-.76,0-.32.22-.61.83-1.04,1.44-1.08,2.09-2.02,2.45-4.61h.58c.04.5.04.94.04,1.37h11.02v-2.95h-6.55c-.72,0-1.76.14-2.3.36l-.97-1.3c.83.11,1.73.14,2.52.14h15.84l1.58-2.16,2.38,2.23c.22.22.32.36.32.5s-.18.22-.5.22h-10.58v2.95h11.74l.97-1.33,2.48,2.09ZM1115.01,119.53h-7.38v-.79h7.38v.79ZM1115.15,116.26h-7.38v-.79h7.38v.79ZM1127.42,130.12c.18.18.25.29.25.4,0,.14-.14.18-.43.22-.79.07-1.73.32-2.92,1.12l-4.86,3.2c3.31,1.26,3.92,2.38,3.92,3.42,0,.68-.43.94-.94.94s-.79-.29-1.08-.68c-1.19-1.62-5.4-3.85-9.47-4.61l.04-.47c2.45.04,4.86.5,6.8,1.15l5.44-4.79h-11.84c-.79,0-1.76.18-2.38.43l-1.01-1.33c.9.07,1.87.11,2.7.11h12.35l1.3-1.22,2.12,2.12ZM1116.3,124.07c2.3.54,4.25,1.4,4.39,2.88,0,.79-.32,1.44-.97,1.44-.29,0-.68-.43-.76-.76-.18-.83-1.33-2.34-2.81-3.28l.14-.29ZM1129.55,116.19h-7.09v-.79h7.09v.79ZM1129.73,119.53h-7.27v-.79h7.27v.79Z"/>
        <path class="cls-4" d="M1148.7,107.29c.29.18.43.29.43.4s-.14.22-.43.32c-.76.29-1.15.65-1.48,1.48-.68,1.69-1.55,3.71-2.56,5.83l1.58.94c.18.11.25.18.25.25,0,.11-.07.18-.94.76v14.58c0,2.23.04,4.07.14,5.69v.29c0,.47-.11.61-.86.94-.32.14-.54.25-.72.25-.25,0-.32-.25-.32-.86v-.32c.07-2.12.11-4.18.11-6.05v-14.9c-1.48,2.95-3.2,5.9-5.11,8.28l-.4-.32c3.38-5.54,5.94-11.95,7.96-18.9l2.34,1.37ZM1171.13,124.03c.32.29.47.47.47.61s-.22.18-.61.18h-9.86v5.76c0,2.74.04,5.26.14,6.88v.29c0,.47-.11.61-.87.94-.36.18-.61.25-.79.25-.25,0-.32-.22-.32-.83v-.36c.07-2.12.11-5.18.11-7.23v-5.69h-9.47c-.76,0-1.8.14-2.41.4l-1.01-1.33c.9.07,1.8.14,2.63.14h10.26v-8.53h-6.12c-1.12,2.48-2.52,4.97-4.03,7.06l-.43-.32c2.41-4.18,3.89-9.21,4.86-13.28l2.38,1.37c.14.11.22.18.22.25s-.11.18-.36.25c-.72.25-.94.5-1.48,1.91-.25.65-.5,1.3-.79,1.94h5.76v-3.67c0-1.48-.07-4.1-.14-5.44l2.66,1.37c.22.11.32.18.32.29s-.07.22-.25.36l-.86.79v6.3h4.32l1.4-1.98,2.34,2.16c.25.22.4.36.4.47,0,.14-.18.18-.54.18h-7.92v8.53h6.41l1.48-2.02,2.12,2.02Z"/>
        <path class="cls-4" d="M1207.13,136.09c.4.32.58.5.58.65,0,.11-.21.14-.65.14h-29.37c-.76,0-1.8.14-2.41.4l-1.01-1.33c.9.07,1.8.14,2.63.14h13.17v-11.16h-8.78c-.76,0-1.8.14-2.41.4l-1.01-1.33c.9.07,1.8.14,2.63.14h9.58v-9.57h-10.51c-.76,0-1.8.14-2.41.4l-1.01-1.33c.9.07,1.8.14,2.63.14h22.79l1.62-2.02,2.48,2.02c.36.29.54.47.54.61s-.25.18-.68.18h-13.64v9.57h7.88l1.48-1.98,2.52,2.05c.32.25.47.43.47.54,0,.14-.18.18-.61.18h-11.73v11.16h11.23l1.48-2.09,2.56,2.09ZM1187.4,105.78c2.05,1.04,5.26,2.92,5.26,4.72,0,1.01-.76,2.09-1.3,2.09-.58,0-.86-.47-1.04-1.66-.18-1.26-.97-2.99-3.17-4.79l.25-.36Z"/>
        <path class="cls-4" d="M1221.28,112.44c.11.11.18.18.18.25s-.11.11-.29.11h-5.58c-1.66,3.53-3.46,7.09-5.33,10.11l-.47-.22c2.45-5.22,4.54-10.44,6.73-16.7l1.98,1.33c.32.18.47.32.47.43,0,.07-.14.14-.5.25-.83.22-1.01.47-1.3,1.15-.4.94-.79,1.87-1.26,2.84h2.77l.9-1.26,1.69,1.69ZM1221.78,130.62l-3.82,3.67c-1.26,1.22-1.48,1.62-1.76,2.27-.07.18-.14.25-.25.25-.07,0-.18-.04-.25-.11l-1.62-1.44c1.19-.97,1.33-1.15,1.33-2.84v-7.09h-1.08c-.76,0-1.8.14-2.41.4l-1.01-1.33c.9.07,1.8.14,2.63.14h1.87v-5.98c-.29.04-.54.14-.9.25l-1.01-1.22c.83.11,1.47.14,2.3.14h2.23l1.08-1.44,1.62,1.8c.11.14.18.25.18.32s-.11.11-.32.11h-3.56v6.01h1.66l1.04-1.44,1.51,1.8c.14.14.22.25.22.32s-.11.11-.25.11h-4.17v7.99l4.46-3.06.29.36ZM1243.67,135.7c-1.58.4-2.09.9-2.38,1.73-.07.22-.14.29-.43.29-10.08-.43-12.46-.97-15.23-4.61-1.3,1.98-2.99,3.6-7.05,6.3l-.25-.36c3.31-2.84,5.11-4.61,6.41-7.2-.68-1.22-1.84-4.25-2.7-6.95l.43-.18c.97,2.48,1.73,4,2.81,5.94.68-1.98,1.22-5.58,1.48-10.33h-1.87l-.54.76c-.11.14-.18.22-.29.22-.07,0-.14-.04-.22-.11l-1.73-1.4,1.15-.72,2.66-7.81h-1.76c-.61,0-1.3.11-1.8.29l-.9-1.22c.76.11,1.37.14,2.05.14h2.12l.9-1.3,1.73,1.55c.14.14.22.25.22.32,0,.11-.11.22-.36.29-.61.22-.79.5-1.22,1.66l-2.27,6.55h1.84l.79-1.01,1.76,1.4c.18.11.25.22.25.29s-.07.14-.22.22l-.79.43c-.4,5.51-.94,8.96-2.05,11.23,2.02,2.52,5.25,3.56,10.47,3.56,2.02,0,4.32-.14,6.98-.43v.47ZM1244.21,114.67c.18.22.29.36.29.43,0,.11-.14.14-.4.14h-3.56v1.48c0,.43.11,2.59.11,3.1,0,.36-.14.5-.9.86-.29.14-.5.22-.61.22-.25,0-.25-.11-.25-1.19h-3.6v3.85h3.28l1.01-1.51,1.66,1.8c.14.14.25.29.25.36,0,.11-.14.14-.43.14h-5.76v3.85h3.89l1.08-1.48,1.84,1.84c.14.14.22.25.22.32s-.11.11-.32.11h-6.7c0,.54.07,3.2.07,3.82,0,.4-.14.58-.79.9-.4.18-.65.29-.79.29-.18,0-.22-.14-.22-.4v-.22c.07-1.73.11-3.13.11-4.39h-2.84c-.65,0-1.44.11-1.94.36l-.9-1.3c.76.07,1.51.14,2.2.14h3.49v-3.85h-1.98c-.61,0-1.37.11-1.91.36l-.86-1.3c.72.07,1.44.14,2.12.14h2.63v-3.85h-1.87c-.61,0-1.26.11-1.76.32l-.83-1.26c.68.07,1.33.14,1.94.14h2.52v-3.67h-2.99c-.61,0-1.3.14-1.8.32l-1.01-1.26c.76.07,1.48.14,2.16.14h3.64v-3.46h-1.8c-.54,0-1.04.11-1.51.25l-1.04-1.15c.68.07,1.37.11,2.02.11h2.34c0-1.48,0-3.67-.07-4.93l2.48,1.19c.14.07.25.11.25.18,0,.11-.04.14-1.04.79v2.77h3.2l.83-1.44,1.87,1.37c.22.14.32.25.32.36s-.11.18-.97.76v3.2h.79l1.15-1.69,1.73,1.91ZM1238.88,114.46v-3.46h-3.6v3.46h3.6ZM1238.88,118.92v-3.67h-3.6v3.67h3.6Z"/>
      </g>
      <rect class="cls-2" x="1023.49" y="156.61" width="300" height="79.1"/>
      <g>
        <path class="cls-4" d="M1136.35,201.12c-1.26,0-2.59.79-3.1,1.66-.07.14-.18.22-.32.22-.11,0-.22,0-.32-.07-6.7-2.52-10.58-5.62-13.03-8.39-5.9,4.46-11.16,7.88-16.52,10.01l-.22-.43c5.51-2.99,11.84-7.31,15.91-11.48l2.23.94c.14.07.22.14.22.22,0,.11-.11.18-.32.25-.22.04-.43.11-.61.18,3.53,3.71,10.22,6.34,16.09,6.55v.36ZM1135.34,186.32c.22.18.29.29.29.4s-.14.14-.36.18c-1.62.14-2.59.83-4.21,3.53l-.54-.25,1.66-3.82h-12.02v1.44c0,.47.07,2.84.07,3.38,0,.5-.18.65-.86.86-.29.11-.5.14-.65.14-.25,0-.32-.18-.32-.68,0-.54.04-3.17.04-3.78v-1.37h-11.01c-.11,2.38-.72,3.31-1.8,3.89-.47.25-.9.36-1.26.36-.29,0-.83-.07-.83-.76,0-.32.22-.61.83-1.04,1.44-1.08,2.09-2.02,2.45-4.61h.58c.04.5.04.94.04,1.37h11.01v-2.95h-6.55c-.72,0-1.76.14-2.3.36l-.97-1.3c.83.11,1.73.14,2.52.14h15.84l1.58-2.16,2.38,2.23c.22.22.32.36.32.5s-.18.22-.5.22h-10.58v2.95h11.74l.97-1.33,2.48,2.09ZM1115.37,193.45h-7.38v-.79h7.38v.79ZM1115.51,190.17h-7.38v-.79h7.38v.79ZM1127.79,204.03c.18.18.25.29.25.4,0,.14-.14.18-.43.22-.79.07-1.73.32-2.92,1.12l-4.86,3.2c3.31,1.26,3.92,2.38,3.92,3.42,0,.68-.43.94-.94.94s-.79-.29-1.08-.68c-1.19-1.62-5.4-3.85-9.47-4.61l.04-.47c2.45.04,4.86.5,6.8,1.15l5.44-4.79h-11.84c-.79,0-1.76.18-2.38.43l-1.01-1.33c.9.07,1.87.11,2.7.11h12.35l1.3-1.22,2.12,2.12ZM1116.66,197.98c2.3.54,4.25,1.4,4.39,2.88,0,.79-.32,1.44-.97,1.44-.29,0-.68-.43-.76-.76-.18-.83-1.33-2.34-2.81-3.28l.14-.29ZM1129.91,190.1h-7.09v-.79h7.09v.79ZM1130.09,193.45h-7.27v-.79h7.27v.79Z"/>
        <path class="cls-4" d="M1149.06,181.21c.29.18.43.29.43.4s-.14.22-.43.32c-.76.29-1.15.65-1.48,1.48-.68,1.69-1.55,3.71-2.56,5.83l1.58.94c.18.11.25.18.25.25,0,.11-.07.18-.94.76v14.58c0,2.23.04,4.07.14,5.69v.29c0,.47-.11.61-.86.94-.32.14-.54.25-.72.25-.25,0-.32-.25-.32-.86v-.32c.07-2.12.11-4.18.11-6.05v-14.9c-1.48,2.95-3.2,5.9-5.11,8.28l-.4-.32c3.38-5.54,5.94-11.95,7.96-18.9l2.34,1.37ZM1171.49,197.95c.32.29.47.47.47.61s-.22.18-.61.18h-9.86v5.76c0,2.74.04,5.26.14,6.88v.29c0,.47-.11.61-.86.94-.36.18-.61.25-.79.25-.25,0-.32-.22-.32-.83v-.36c.07-2.12.11-5.18.11-7.23v-5.69h-9.47c-.76,0-1.8.14-2.41.4l-1.01-1.33c.9.07,1.8.14,2.63.14h10.26v-8.53h-6.12c-1.12,2.48-2.52,4.97-4.03,7.06l-.43-.32c2.41-4.18,3.89-9.21,4.86-13.28l2.38,1.37c.14.11.22.18.22.25s-.11.18-.36.25c-.72.25-.94.5-1.48,1.91-.25.65-.5,1.3-.79,1.94h5.76v-3.67c0-1.48-.07-4.1-.14-5.44l2.66,1.37c.22.11.32.18.32.29s-.07.22-.25.36l-.86.79v6.3h4.32l1.4-1.98,2.34,2.16c.25.22.4.36.4.47,0,.14-.18.18-.54.18h-7.92v8.53h6.41l1.48-2.02,2.12,2.02Z"/>
        <path class="cls-4" d="M1189.63,182.51c.18.18.25.29.25.36,0,.11-.11.14-.29.14-.11,0-.54-.04-.65-.04-.72,0-1.76.11-2.41.25-1.01.22-1.94.43-2.81.61v6.8h2.48l1.19-1.73,1.84,1.8c.29.25.43.43.43.54,0,.14-.18.18-.58.18h-5.36v2.48c1.8.97,5.04,3.02,5.04,4.5,0,.79-.5,1.69-.94,1.69-.47,0-.61-.22-.83-1.19-.22-1.04-1.4-2.88-3.28-4.32v9.75c0,2.74,0,5.44.07,7.06v.25c0,.5-.14.68-.83.97-.32.14-.58.22-.76.22-.22,0-.29-.18-.29-.65v-.5c.11-2.09.18-5.36.18-7.42v-9.21c-1.51,3.42-3.6,6.84-6.95,11.12l-.32-.32c2.7-3.92,6.05-10.19,7.24-14.43h-3.74c-.76,0-1.8.14-2.41.4l-1.01-1.33c.9.07,1.8.14,2.63.14h4.57v-6.48c-2.38.47-4.28.79-6.55,1.12l-.04-.43c6.05-1.73,9.75-2.92,12.56-4.14l1.55,1.8ZM1207.06,188.41c.22.14.29.25.29.32,0,.11-.07.18-.25.29l-1.12.68v4.93c0,2.02.07,3.38.18,5v.25c0,.5-.14.65-.9.97-.36.14-.58.22-.72.22-.25,0-.29-.18-.29-.47v-1.8h-5.72v5.51c0,2.74.04,5.44.14,7.06v.25c0,.58-.14.68-.76.97-.4.18-.65.25-.86.25-.29,0-.36-.25-.36-.86,0-1.12.18-6.52.18-7.74v-5.44h-5.11v1.22c0,.5-.11.65-.72.9-.32.14-.54.22-.68.22-.22,0-.32-.18-.32-.65,0-.14.04-.32.04-.5.07-1.19.11-3.06.11-4.57v-5.11c0-.86-.04-2.59-.11-3.71l1.91,1.69h4.9v-3.96c0-1.48-.07-3.92-.14-5.26l2.59,1.58c.25.14.36.25.36.32,0,.11-.72.61-1.15.9v6.41h5.15l1.04-1.55,2.34,1.66ZM1196.87,198.02v-8.93h-5.11v8.93h5.11ZM1204.25,198.02v-8.93h-5.72v8.93h5.72Z"/>
        <path class="cls-4" d="M1244.14,210.94c-1.84,0-2.66.65-3.24,1.58-.07.14-.14.22-.29.22-.11,0-.25-.04-.5-.14-5.94-2.38-9.32-5.36-11.63-10.65h-1.04c-.9,3.2-2.05,5.08-4.43,6.8-3.38,2.41-7.7,3.71-11.23,4.36l-.18-.43c2.2-.68,7.67-2.59,10.65-5.11,1.66-1.4,2.74-3.06,3.38-5.62h-10.98c-.79,0-1.69.18-2.41.4l-1.01-1.33c.94.07,1.8.14,2.63.14h11.99c.25-1.08.43-2.27.58-3.67l2.34.9c.14.04.22.14.22.22,0,.11-.07.22-.25.32-.61.4-.72.61-.79,1.01-.11.43-.18.83-.29,1.22h11.88l1.55-1.91,2.34,2.16c.18.14.25.29.25.36,0,.11-.11.18-.4.18h-14.22c3.42,5.8,8.06,8.06,15.08,8.46v.54ZM1243.24,188.23c.14.14.25.29.25.36,0,.11-.14.14-.4.14h-14.58v1.8c5.44,1.01,10.37,2.77,11.55,3.82.68.61.97,1.26.97,1.8,0,.61-.32,1.04-.76,1.04-.29,0-.61-.25-1.15-.76-1.91-1.76-5.79-3.92-10.62-5.44,0,1.15.04,2.45.14,3.96v.25c0,.5-.14.65-.9.97-.43.18-.72.29-.9.29-.22,0-.25-.14-.25-.43v-.22c.14-2.34.25-4.32.25-6.91-4.75,4.64-9.21,7.74-14.76,10.62l-.25-.47c5.25-3.1,10.15-7.13,12.96-10.33h-9.9c-.72,0-1.91.25-2.41.4l-1.01-1.33c1.01.07,1.91.14,2.63.14h12.74v-3.49c0-1.48-.07-3.92-.14-5.26l2.66,1.44c.14.07.22.14.22.22s-.07.18-.22.29l-.86.61v6.19h2.88c1.44-2.12,2.81-4.28,4.25-6.88l2.12,1.3c.18.11.29.18.29.25,0,.11-.11.14-.36.22-.79.18-1.01.29-1.62.9-1.3,1.37-2.52,2.66-4.03,4.21h7.16l1.73-2.02,2.3,2.3ZM1217,181.14c1.51.47,5.54,2.34,5.54,4.25,0,.9-.68,1.62-1.08,1.62s-.65-.47-.83-1.01c-.43-1.3-1.76-3.1-3.85-4.57l.22-.29Z"/>
      </g>
    </g>
    <g>
      <rect class="cls-3" x="1023.49" y="448.62" width="300" height="79.1"/>
      <g>
        <path class="cls-4" d="M1151.96,475.81c.18.14.29.22.29.32,0,.07-.11.18-.29.29l-1.19.83v15.05c0,2.74.04,4.07.11,5.22v.21c0,.76-1.51,1.48-1.55,1.48-.14,0-.18-.25-.18-.72v-1.66h-6.91v3.06c0,.4-.07.47-.76.9-.36.22-.58.36-.72.36-.22,0-.25-.25-.25-.83v-.36c.07-2.23.11-4.68.11-7.52v-14.33c0-1.8-.04-2.81-.11-4.03l2.16,1.58h6.12l.94-1.3,2.23,1.44ZM1149.15,485.28v-8.82h-6.91v8.82h6.91ZM1149.15,496.04v-9.97h-6.91v9.97h6.91ZM1171.5,480.92c.18.18.29.32.29.4,0,.11-.14.14-.47.14h-5.51v19.83c0,2.34-.04,2.48-2.74,3.63-.14.04-.22.07-.32.07-.14,0-.22-.07-.25-.29-.29-1.33-.97-1.94-5.22-3.06l.11-.58c2.38.5,3.96.76,4.97.76,1.48,0,1.8-.47,1.8-1.12v-19.26h-8.75c-.65,0-1.51.11-2.12.25l-1.3-1.19c.9.11,1.69.14,2.63.14h9.54v-3.82c0-2.99,0-4-.07-5.22l2.56,1.3c.25.14.4.22.4.32s-.14.22-.4.36l-.83.47v6.59h2.27l1.3-2.02,2.12,2.27ZM1155.16,485.17c2.7,2.09,4.46,3.67,4.46,5.4,0,.9-.54,1.76-1.26,1.76-.47,0-.68-.25-.97-1.69-.29-1.51-.97-3.28-2.59-5.18l.36-.29Z"/>
        <path class="cls-4" d="M1180.44,477.32c.22.11.29.18.29.25,0,.11-.07.18-.25.29l-.94.58v18.47c0,2.74,0,5.33.07,6.55v.18c0,.5-.18.61-.79.94-.4.22-.65.32-.83.32-.25,0-.32-.22-.32-.65v-.36c.11-2.12.18-3.85.18-7.06v-15.59c0-1.48-.07-3.96-.14-5.29l2.74,1.37ZM1180.15,471.42c3.56,1.66,5.08,2.56,5.08,4.18,0,.79-.54,1.8-1.15,1.8-.32,0-.76-.47-.83-1.01-.11-.83-1.04-2.59-3.31-4.64l.22-.32ZM1197.79,482.04c.22.14.29.25.29.36s-.07.22-.29.36l-.83.54v8.78c0,1.69.04,2.7.18,4.28,0,.11.04.22.04.29,0,.47-.22.65-.94.94-.36.14-.58.21-.72.21-.22,0-.25-.18-.25-.47v-1.66h-8.21v1.55c0,.76-1.19,1.12-1.51,1.12-.25,0-.32-.18-.32-.68,0-.25.14-4.1.14-4.9v-8.82c0-.86-.04-2.59-.11-3.71l2.27,1.69h7.27l1.12-1.4,1.87,1.51ZM1195.27,488.01v-5.29h-8.21v5.29h8.21ZM1195.27,494.89v-6.08h-8.21v6.08h8.21ZM1206.28,475.16c.14.11.18.18.18.29,0,.07-.04.14-.18.22l-1.15.68v24.08c0,2.74-.25,3.49-2.92,4.46-.11.04-.22.07-.29.07-.14,0-.22-.11-.25-.32-.25-1.04-.94-1.66-4.36-2.59l.04-.5c2.23.32,3.64.5,4.54.5,1.4,0,1.55-.4,1.55-1.26v-24.98h-12.56c-.76,0-1.8.14-2.41.4l-1.01-1.33c.9.07,1.8.14,2.63.14h12.6l1.3-1.69,2.3,1.84Z"/>
      </g>
      <rect class="cls-2" x="1023.49" y="527.47" width="300" height="79.1"/>
      <g>
        <path class="cls-4" d="M1114.9,554.65c.18.14.29.22.29.32,0,.07-.11.18-.29.29l-1.19.83v15.05c0,2.74.04,4.07.11,5.22v.22c0,.76-1.51,1.48-1.55,1.48-.14,0-.18-.25-.18-.72v-1.66h-6.91v3.06c0,.4-.07.47-.76.9-.36.22-.58.36-.72.36-.22,0-.25-.25-.25-.83v-.36c.07-2.23.11-4.68.11-7.52v-14.33c0-1.8-.04-2.81-.11-4.03l2.16,1.58h6.12l.94-1.3,2.23,1.44ZM1112.09,564.12v-8.82h-6.91v8.82h6.91ZM1112.09,574.88v-9.97h-6.91v9.97h6.91ZM1134.44,559.77c.18.18.29.32.29.4,0,.11-.14.14-.47.14h-5.51v19.83c0,2.34-.04,2.48-2.74,3.64-.14.04-.22.07-.32.07-.14,0-.22-.07-.25-.29-.29-1.33-.97-1.94-5.22-3.06l.11-.58c2.38.5,3.96.76,4.97.76,1.48,0,1.8-.47,1.8-1.12v-19.26h-8.75c-.65,0-1.51.11-2.12.25l-1.3-1.19c.9.11,1.69.14,2.63.14h9.54v-3.82c0-2.99,0-4-.07-5.22l2.56,1.3c.25.14.4.22.4.32s-.14.22-.4.36l-.83.47v6.59h2.27l1.3-2.02,2.12,2.27ZM1118.1,564.01c2.7,2.09,4.46,3.67,4.46,5.4,0,.9-.54,1.76-1.26,1.76-.47,0-.68-.25-.97-1.69-.29-1.51-.97-3.28-2.59-5.18l.36-.29Z"/>
        <path class="cls-4" d="M1143.38,556.17c.22.11.29.18.29.25,0,.11-.07.18-.25.29l-.94.58v18.47c0,2.74,0,5.33.07,6.55v.18c0,.5-.18.61-.79.94-.4.22-.65.32-.83.32-.25,0-.32-.22-.32-.65v-.36c.11-2.12.18-3.85.18-7.06v-15.59c0-1.48-.07-3.96-.14-5.29l2.74,1.37ZM1143.09,550.26c3.56,1.66,5.08,2.56,5.08,4.17,0,.79-.54,1.8-1.15,1.8-.32,0-.76-.47-.83-1.01-.11-.83-1.04-2.59-3.31-4.64l.22-.32ZM1160.73,560.88c.22.14.29.25.29.36s-.07.22-.29.36l-.83.54v8.78c0,1.69.04,2.7.18,4.28,0,.11.04.22.04.29,0,.47-.22.65-.94.94-.36.14-.58.22-.72.22-.22,0-.25-.18-.25-.47v-1.66h-8.21v1.55c0,.76-1.19,1.12-1.51,1.12-.25,0-.32-.18-.32-.68,0-.25.14-4.1.14-4.9v-8.82c0-.86-.04-2.59-.11-3.71l2.27,1.69h7.27l1.12-1.4,1.87,1.51ZM1158.21,566.86v-5.29h-8.21v5.29h8.21ZM1158.21,573.73v-6.08h-8.21v6.08h8.21ZM1169.22,554.01c.14.11.18.18.18.29,0,.07-.04.14-.18.22l-1.15.68v24.08c0,2.74-.25,3.49-2.92,4.46-.11.04-.22.07-.29.07-.14,0-.22-.11-.25-.32-.25-1.04-.94-1.66-4.36-2.59l.04-.5c2.23.32,3.64.5,4.54.5,1.4,0,1.55-.4,1.55-1.26v-24.98h-12.56c-.76,0-1.8.14-2.41.4l-1.01-1.33c.9.07,1.8.14,2.63.14h12.6l1.3-1.69,2.3,1.84Z"/>
        <path class="cls-4" d="M1206.16,580.86c.4.32.58.5.58.65,0,.11-.22.14-.65.14h-29.37c-.76,0-1.8.14-2.41.4l-1.01-1.33c.9.07,1.8.14,2.63.14h13.17v-11.16h-8.78c-.76,0-1.8.14-2.41.4l-1.01-1.33c.9.07,1.8.14,2.63.14h9.58v-9.58h-10.51c-.76,0-1.8.14-2.41.4l-1.01-1.33c.9.07,1.8.14,2.63.14h22.79l1.62-2.02,2.48,2.02c.36.29.54.47.54.61s-.25.18-.68.18h-13.64v9.58h7.88l1.48-1.98,2.52,2.05c.32.25.47.43.47.54,0,.14-.18.18-.61.18h-11.73v11.16h11.23l1.48-2.09,2.56,2.09ZM1186.43,550.55c2.05,1.04,5.26,2.92,5.26,4.71,0,1.01-.76,2.09-1.3,2.09-.58,0-.86-.47-1.04-1.66-.18-1.26-.97-2.99-3.17-4.79l.25-.36Z"/>
        <path class="cls-4" d="M1220.31,557.21c.11.11.18.18.18.25s-.11.11-.29.11h-5.58c-1.66,3.53-3.46,7.09-5.33,10.12l-.47-.22c2.45-5.22,4.54-10.44,6.73-16.7l1.98,1.33c.32.18.47.32.47.43,0,.07-.14.14-.5.25-.83.22-1.01.47-1.3,1.15-.4.94-.79,1.87-1.26,2.84h2.77l.9-1.26,1.69,1.69ZM1220.81,575.39l-3.82,3.67c-1.26,1.22-1.48,1.62-1.76,2.27-.07.18-.14.25-.25.25-.07,0-.18-.04-.25-.11l-1.62-1.44c1.19-.97,1.33-1.15,1.33-2.84v-7.09h-1.08c-.76,0-1.8.14-2.41.4l-1.01-1.33c.9.07,1.8.14,2.63.14h1.87v-5.97c-.29.04-.54.14-.9.25l-1.01-1.22c.83.11,1.48.14,2.3.14h2.23l1.08-1.44,1.62,1.8c.11.14.18.25.18.32s-.11.11-.32.11h-3.56v6.01h1.66l1.04-1.44,1.51,1.8c.14.14.22.25.22.32s-.11.11-.25.11h-4.18v7.99l4.46-3.06.29.36ZM1242.7,580.46c-1.58.4-2.09.9-2.38,1.73-.07.22-.14.29-.43.29-10.08-.43-12.45-.97-15.23-4.61-1.3,1.98-2.99,3.6-7.06,6.3l-.25-.36c3.31-2.84,5.11-4.61,6.41-7.2-.68-1.22-1.84-4.25-2.7-6.95l.43-.18c.97,2.48,1.73,4,2.81,5.94.68-1.98,1.22-5.58,1.48-10.33h-1.87l-.54.76c-.11.14-.18.22-.29.22-.07,0-.14-.04-.22-.11l-1.73-1.4,1.15-.72,2.66-7.81h-1.76c-.61,0-1.3.11-1.8.29l-.9-1.22c.76.11,1.37.14,2.05.14h2.12l.9-1.3,1.73,1.55c.14.14.22.25.22.32,0,.11-.11.22-.36.29-.61.22-.79.5-1.22,1.66l-2.27,6.55h1.83l.79-1.01,1.76,1.4c.18.11.25.22.25.29s-.07.14-.22.22l-.79.43c-.4,5.51-.94,8.96-2.05,11.23,2.02,2.52,5.26,3.56,10.47,3.56,2.02,0,4.32-.14,6.98-.43v.47ZM1243.24,559.44c.18.22.29.36.29.43,0,.11-.14.14-.4.14h-3.56v1.48c0,.43.11,2.59.11,3.1,0,.36-.14.5-.9.86-.29.14-.5.22-.61.22-.25,0-.25-.11-.25-1.19h-3.6v3.85h3.28l1.01-1.51,1.66,1.8c.14.14.25.29.25.36,0,.11-.14.14-.43.14h-5.76v3.85h3.89l1.08-1.48,1.84,1.84c.14.14.22.25.22.32s-.11.11-.32.11h-6.7c0,.54.07,3.2.07,3.82,0,.4-.14.58-.79.9-.4.18-.65.29-.79.29-.18,0-.22-.14-.22-.4v-.22c.07-1.73.11-3.13.11-4.39h-2.84c-.65,0-1.44.11-1.94.36l-.9-1.3c.76.07,1.51.14,2.2.14h3.49v-3.85h-1.98c-.61,0-1.37.11-1.91.36l-.86-1.3c.72.07,1.44.14,2.12.14h2.63v-3.85h-1.87c-.61,0-1.26.11-1.76.32l-.83-1.26c.68.07,1.33.14,1.94.14h2.52v-3.67h-2.99c-.61,0-1.3.14-1.8.32l-1.01-1.26c.76.07,1.48.14,2.16.14h3.64v-3.46h-1.8c-.54,0-1.04.11-1.51.25l-1.04-1.15c.68.07,1.37.11,2.02.11h2.34c0-1.48,0-3.67-.07-4.93l2.48,1.19c.14.07.25.11.25.18,0,.11-.04.14-1.04.79v2.77h3.2l.83-1.44,1.87,1.37c.22.14.32.25.32.36s-.11.18-.97.76v3.2h.79l1.15-1.69,1.73,1.91ZM1237.91,559.23v-3.46h-3.6v3.46h3.6ZM1237.91,563.69v-3.67h-3.6v3.67h3.6Z"/>
      </g>
      <rect class="cls-2" x="1023.49" y="603.94" width="300" height="79.1"/>
      <g>
        <path class="cls-4" d="M1151.96,631.13c.18.14.29.22.29.32,0,.07-.11.18-.29.29l-1.19.83v15.05c0,2.74.04,4.07.11,5.22v.22c0,.76-1.51,1.48-1.55,1.48-.14,0-.18-.25-.18-.72v-1.66h-6.91v3.06c0,.4-.07.47-.76.9-.36.22-.58.36-.72.36-.22,0-.25-.25-.25-.83v-.36c.07-2.23.11-4.68.11-7.52v-14.33c0-1.8-.04-2.81-.11-4.03l2.16,1.58h6.12l.94-1.3,2.23,1.44ZM1149.15,640.6v-8.82h-6.91v8.82h6.91ZM1149.15,651.36v-9.97h-6.91v9.97h6.91ZM1171.51,636.24c.18.18.29.32.29.4,0,.11-.14.14-.47.14h-5.51v19.83c0,2.34-.04,2.48-2.74,3.64-.14.04-.22.07-.32.07-.14,0-.22-.07-.25-.29-.29-1.33-.97-1.94-5.22-3.06l.11-.58c2.38.5,3.96.76,4.97.76,1.48,0,1.8-.47,1.8-1.12v-19.26h-8.75c-.65,0-1.51.11-2.12.25l-1.3-1.19c.9.11,1.69.14,2.63.14h9.54v-3.82c0-2.99,0-4-.07-5.22l2.56,1.3c.25.14.4.22.4.32s-.14.22-.4.36l-.83.47v6.59h2.27l1.3-2.02,2.12,2.27ZM1155.16,640.49c2.7,2.09,4.46,3.67,4.46,5.4,0,.9-.54,1.76-1.26,1.76-.47,0-.68-.25-.97-1.69-.29-1.51-.97-3.28-2.59-5.18l.36-.29Z"/>
        <path class="cls-4" d="M1180.44,632.64c.22.11.29.18.29.25,0,.11-.07.18-.25.29l-.94.58v18.47c0,2.74,0,5.33.07,6.55v.18c0,.5-.18.61-.79.94-.4.22-.65.32-.83.32-.25,0-.32-.22-.32-.65v-.36c.11-2.12.18-3.85.18-7.06v-15.59c0-1.48-.07-3.96-.14-5.29l2.74,1.37ZM1180.15,626.74c3.56,1.66,5.08,2.56,5.08,4.17,0,.79-.54,1.8-1.15,1.8-.32,0-.76-.47-.83-1.01-.11-.83-1.04-2.59-3.31-4.64l.22-.32ZM1197.79,637.36c.22.14.29.25.29.36s-.07.22-.29.36l-.83.54v8.78c0,1.69.04,2.7.18,4.28,0,.11.04.22.04.29,0,.47-.22.65-.94.94-.36.14-.58.22-.72.22-.22,0-.25-.18-.25-.47v-1.66h-8.21v1.55c0,.76-1.19,1.12-1.51,1.12-.25,0-.32-.18-.32-.68,0-.25.14-4.1.14-4.9v-8.82c0-.86-.04-2.59-.11-3.71l2.27,1.69h7.27l1.12-1.4,1.87,1.51ZM1195.27,643.33v-5.29h-8.21v5.29h8.21ZM1195.27,650.21v-6.08h-8.21v6.08h8.21ZM1206.28,630.48c.14.11.18.18.18.29,0,.07-.04.14-.18.22l-1.15.68v24.08c0,2.74-.25,3.49-2.92,4.46-.11.04-.22.07-.29.07-.14,0-.22-.11-.25-.32-.25-1.04-.94-1.66-4.36-2.59l.04-.5c2.23.32,3.64.5,4.54.5,1.4,0,1.55-.4,1.55-1.26v-24.98h-12.56c-.76,0-1.8.14-2.41.4l-1.01-1.33c.9.07,1.8.14,2.63.14h12.6l1.3-1.69,2.3,1.84Z"/>
      </g>
    </g>
    <g>
      <rect class="cls-2" x="486.56" y="183.78" width="300" height="289.55"/>
      <g>
        <rect class="cls-3" x="486.56" y="104.67" width="300" height="79.1"/>
        <g>
          <path class="cls-4" d="M616.37,148.78c-5.22,5.33-7.27,7.95-7.85,9.39-.07.18-.14.29-.22.29-.04,0-.11-.04-.14-.07l-2.05-1.94c1.15-.94,1.62-1.94,1.62-3.49v-12.42h-3.2c-.43,0-1.33.18-1.87.4l-.9-1.3c.65.07,1.33.11,1.76.11h3.53l1.26-1.66,2.56,1.73c.14.07.18.18.18.25s-.04.14-.18.25l-1.44,1.01v12.78l6.51-5.72.43.4ZM605.03,128.23c2.63,1.19,4.79,2.7,5.4,4.03.14.29.18.54.18.83,0,.86-.58,1.62-1.08,1.62-.43,0-.76-.32-1.04-1.37-.32-1.22-1.15-2.63-3.67-4.68l.22-.43ZM635.19,132.73c.18.18.29.32.29.4,0,.11-.14.14-.4.14h-9.25v23.04c0,2.16-.9,3.17-3.02,4.18-.07.04-.14.07-.18.07-.11,0-.22-.11-.25-.29-.4-1.26-.97-1.62-4.54-2.59v-.5c1.98.32,3.31.47,4.25.47,1.73,0,1.98-.5,1.98-1.33v-23.04h-7.45c-.68,0-1.66.14-2.2.36l-.9-1.3c.79.07,1.62.14,2.38.14h14.9l1.73-2.38,2.66,2.63Z"/>
          <path class="cls-4" d="M671.12,151.91c.18.18.25.32.25.4,0,.14-.14.18-.4.18h-15.3c0,2.77.04,5.51.14,7.16v.22c0,.61-.14.76-.94,1.08-.32.14-.58.25-.72.25-.25,0-.32-.25-.32-.86v-.36c.07-2.12.11-5.36.11-7.49h-12.74c-.76,0-1.8.14-2.41.4l-1.01-1.37c.9.07,1.8.14,2.63.14h13.53v-4.61h-8.5v1.12c0,.43-.11.5-.86.83-.29.11-.5.18-.65.18-.22,0-.29-.18-.29-.68v-.32c.07-1.94.11-3.56.11-5.4v-6.77c0-.79-.04-2.34-.11-3.35l2.48,1.87h10.4c2.02-2.38,3.92-5.33,4.82-7.2l2.12,1.62c.11.07.18.18.18.25,0,.11-.14.18-.43.25-.83.18-1.84.9-5.72,5.08h6.23l1.22-1.62,2.45,1.73c.18.14.29.25.29.36s-.11.22-.29.32l-1.15.72v6.23c0,2.3.04,3.24.18,4.82,0,.11.04.22.04.32,0,.43-.22.58-.97.9-.32.14-.54.22-.68.22-.25,0-.25-.14-.25-1.48h-8.89v4.61h11.34l1.84-2.23,2.27,2.48ZM653.95,140.36v-5.04h-8.5v5.04h8.5ZM653.95,146.26v-5.11h-8.5v5.11h8.5ZM646.93,127.36c1.33.76,5.04,3.1,5.04,4.86,0,.9-.65,1.84-1.26,1.84-.43,0-.65-.36-.9-1.62-.18-1.01-1.08-2.77-3.17-4.68l.29-.4ZM664.57,140.36v-5.04h-8.89v5.04h8.89ZM664.57,146.26v-5.11h-8.89v5.11h8.89Z"/>
        </g>
      </g>
      <g>
        <g>
          <path class="cls-4" d="M574.16,410.21c.18.14.29.22.29.32,0,.07-.11.18-.29.29l-1.19.83v15.05c0,2.74.04,4.07.11,5.22v.22c0,.76-1.51,1.48-1.55,1.48-.14,0-.18-.25-.18-.72v-1.66h-6.91v3.06c0,.4-.07.47-.76.9-.36.22-.58.36-.72.36-.22,0-.25-.25-.25-.83v-.36c.07-2.23.11-4.68.11-7.52v-14.33c0-1.8-.04-2.81-.11-4.03l2.16,1.58h6.12l.94-1.3,2.23,1.44ZM571.36,419.67v-8.82h-6.91v8.82h6.91ZM571.36,430.44v-9.97h-6.91v9.97h6.91ZM593.71,415.32c.18.18.29.32.29.4,0,.11-.14.14-.47.14h-5.51v19.83c0,2.34-.04,2.48-2.74,3.64-.14.04-.22.07-.32.07-.14,0-.22-.07-.25-.29-.29-1.33-.97-1.94-5.22-3.06l.11-.58c2.38.5,3.96.76,4.97.76,1.48,0,1.8-.47,1.8-1.12v-19.26h-8.75c-.65,0-1.51.11-2.12.25l-1.3-1.19c.9.11,1.69.14,2.63.14h9.54v-3.82c0-2.99,0-4-.07-5.22l2.56,1.3c.25.14.4.22.4.32s-.14.22-.4.36l-.83.47v6.59h2.27l1.3-2.02,2.12,2.27ZM577.37,419.57c2.7,2.09,4.46,3.67,4.46,5.4,0,.9-.54,1.76-1.26,1.76-.47,0-.68-.25-.97-1.69-.29-1.51-.97-3.28-2.59-5.18l.36-.29Z"/>
          <path class="cls-4" d="M602.64,411.72c.22.11.29.18.29.25,0,.11-.07.18-.25.29l-.94.58v18.47c0,2.74,0,5.33.07,6.55v.18c0,.5-.18.61-.79.94-.4.22-.65.32-.83.32-.25,0-.32-.22-.32-.65v-.36c.11-2.12.18-3.85.18-7.06v-15.59c0-1.48-.07-3.96-.14-5.29l2.74,1.37ZM602.35,405.82c3.56,1.66,5.08,2.56,5.08,4.18,0,.79-.54,1.8-1.15,1.8-.32,0-.76-.47-.83-1.01-.11-.83-1.04-2.59-3.31-4.64l.22-.32ZM619.99,416.43c.22.14.29.25.29.36s-.07.22-.29.36l-.83.54v8.78c0,1.69.04,2.7.18,4.28,0,.11.04.22.04.29,0,.47-.22.65-.94.94-.36.14-.58.22-.72.22-.22,0-.25-.18-.25-.47v-1.66h-8.21v1.55c0,.76-1.19,1.12-1.51,1.12-.25,0-.32-.18-.32-.68,0-.25.14-4.1.14-4.9v-8.82c0-.86-.04-2.59-.11-3.71l2.27,1.69h7.27l1.12-1.4,1.87,1.51ZM617.47,422.41v-5.29h-8.21v5.29h8.21ZM617.47,429.28v-6.08h-8.21v6.08h8.21ZM628.49,409.56c.14.11.18.18.18.29,0,.07-.04.14-.18.22l-1.15.68v24.08c0,2.74-.25,3.49-2.92,4.46-.11.04-.22.07-.29.07-.14,0-.22-.11-.25-.32-.25-1.04-.94-1.66-4.36-2.59l.04-.5c2.23.32,3.63.5,4.54.5,1.4,0,1.55-.4,1.55-1.26v-24.98h-12.56c-.76,0-1.8.14-2.41.4l-1.01-1.33c.9.07,1.8.14,2.63.14h12.6l1.3-1.69,2.3,1.84Z"/>
          <path class="cls-4" d="M665.42,436.41c.4.32.58.5.58.65,0,.11-.22.14-.65.14h-29.37c-.76,0-1.8.14-2.41.4l-1.01-1.33c.9.07,1.8.14,2.63.14h13.17v-11.16h-8.78c-.76,0-1.8.14-2.41.4l-1.01-1.33c.9.07,1.8.14,2.63.14h9.58v-9.57h-10.51c-.76,0-1.8.14-2.41.4l-1.01-1.33c.9.07,1.8.14,2.63.14h22.79l1.62-2.02,2.48,2.02c.36.29.54.47.54.61s-.25.18-.68.18h-13.64v9.57h7.88l1.48-1.98,2.52,2.05c.32.25.47.43.47.54,0,.14-.18.18-.61.18h-11.73v11.16h11.23l1.48-2.09,2.56,2.09ZM645.7,406.1c2.05,1.04,5.26,2.92,5.26,4.72,0,1.01-.76,2.09-1.3,2.09-.58,0-.86-.47-1.04-1.66-.18-1.26-.97-2.99-3.17-4.79l.25-.36Z"/>
          <path class="cls-4" d="M679.57,412.76c.11.11.18.18.18.25s-.11.11-.29.11h-5.58c-1.66,3.53-3.46,7.09-5.33,10.11l-.47-.22c2.45-5.22,4.54-10.44,6.73-16.7l1.98,1.33c.32.18.47.32.47.43,0,.07-.14.14-.5.25-.83.22-1.01.47-1.3,1.15-.4.94-.79,1.87-1.26,2.84h2.77l.9-1.26,1.69,1.69ZM680.08,430.94l-3.82,3.67c-1.26,1.22-1.48,1.62-1.76,2.27-.07.18-.14.25-.25.25-.07,0-.18-.04-.25-.11l-1.62-1.44c1.19-.97,1.33-1.15,1.33-2.84v-7.09h-1.08c-.76,0-1.8.14-2.41.4l-1.01-1.33c.9.07,1.8.14,2.63.14h1.87v-5.98c-.29.04-.54.14-.9.25l-1.01-1.22c.83.11,1.48.14,2.3.14h2.23l1.08-1.44,1.62,1.8c.11.14.18.25.18.32s-.11.11-.32.11h-3.56v6.01h1.66l1.04-1.44,1.51,1.8c.14.14.22.25.22.32s-.11.11-.25.11h-4.17v7.99l4.46-3.06.29.36ZM701.96,436.02c-1.58.4-2.09.9-2.38,1.73-.07.22-.14.29-.43.29-10.08-.43-12.46-.97-15.23-4.61-1.3,1.98-2.99,3.6-7.05,6.3l-.25-.36c3.31-2.84,5.11-4.61,6.41-7.2-.68-1.22-1.84-4.25-2.7-6.95l.43-.18c.97,2.48,1.73,4,2.81,5.94.68-1.98,1.22-5.58,1.48-10.33h-1.87l-.54.76c-.11.14-.18.22-.29.22-.07,0-.14-.04-.22-.11l-1.73-1.4,1.15-.72,2.66-7.81h-1.76c-.61,0-1.3.11-1.8.29l-.9-1.22c.76.11,1.37.14,2.05.14h2.12l.9-1.3,1.73,1.55c.14.14.22.25.22.32,0,.11-.11.22-.36.29-.61.22-.79.5-1.22,1.66l-2.27,6.55h1.84l.79-1.01,1.76,1.4c.18.11.25.22.25.29s-.07.14-.22.22l-.79.43c-.4,5.51-.94,8.96-2.05,11.23,2.02,2.52,5.25,3.56,10.47,3.56,2.02,0,4.32-.14,6.98-.43v.47ZM702.5,414.99c.18.22.29.36.29.43,0,.11-.14.14-.4.14h-3.56v1.48c0,.43.11,2.59.11,3.1,0,.36-.14.5-.9.86-.29.14-.5.22-.61.22-.25,0-.25-.11-.25-1.19h-3.6v3.85h3.28l1.01-1.51,1.66,1.8c.14.14.25.29.25.36,0,.11-.14.14-.43.14h-5.76v3.85h3.89l1.08-1.48,1.84,1.84c.14.14.22.25.22.32s-.11.11-.32.11h-6.7c0,.54.07,3.2.07,3.82,0,.4-.14.58-.79.9-.4.18-.65.29-.79.29-.18,0-.22-.14-.22-.4v-.22c.07-1.73.11-3.13.11-4.39h-2.84c-.65,0-1.44.11-1.94.36l-.9-1.3c.76.07,1.51.14,2.2.14h3.49v-3.85h-1.98c-.61,0-1.37.11-1.91.36l-.86-1.3c.72.07,1.44.14,2.12.14h2.63v-3.85h-1.87c-.61,0-1.26.11-1.76.32l-.83-1.26c.68.07,1.33.14,1.94.14h2.52v-3.67h-2.99c-.61,0-1.3.14-1.8.32l-1.01-1.26c.76.07,1.48.14,2.16.14h3.64v-3.46h-1.8c-.54,0-1.04.11-1.51.25l-1.04-1.15c.68.07,1.37.11,2.02.11h2.34c0-1.48,0-3.67-.07-4.93l2.48,1.19c.14.07.25.11.25.18,0,.11-.04.14-1.04.79v2.77h3.2l.83-1.44,1.87,1.37c.22.14.32.25.32.36s-.11.18-.97.76v3.2h.79l1.15-1.69,1.73,1.91ZM697.17,414.78v-3.46h-3.6v3.46h3.6ZM697.17,419.24v-3.67h-3.6v3.67h3.6Z"/>
        </g>
        <g>
          <path class="cls-4" d="M558.66,344.76c.25.18.36.29.36.4,0,.07-.11.18-.32.25-.9.36-1.04.5-1.44,1.33-1.01,2.09-2.05,4.18-3.24,6.26l1.55.72c.22.11.32.18.32.29s-.61.65-.97.97v14.51c0,2.45.04,4.07.14,5.69v.29c0,.47-.11.61-.86.94-.32.14-.58.22-.76.22-.25,0-.32-.22-.32-.83v-.32c.07-2.12.11-4.18.11-6.05v-14.97c-1.58,2.7-3.35,5.36-5.47,7.96l-.47-.32c3.67-5.62,7.05-12.38,9.07-18.9l2.3,1.58ZM581.09,363.62c.29.29.47.47.47.58,0,.14-.22.18-.65.18h-21.81c-.76,0-1.84.14-2.41.36l-1.01-1.3c.86.07,1.8.14,2.63.14h4.97v-10.55h-2.3c-.76,0-1.84.14-2.41.36l-1.01-1.3c.86.07,1.8.14,2.63.14h3.1v-4.82c0-1.44-.04-2.34-.11-3.67l2.45,1.01c.25.11.4.18.4.29,0,.14-.11.22-1.04.94v6.26h6.98v-5.22c0-1.44-.04-2.34-.11-3.67l2.63,1.26c.32.14.47.22.47.36,0,.07-.11.22-.36.4l-.94.72v6.16h2.74l1.55-2.16,2.05,2.12c.22.25.36.43.36.58,0,.18-.22.25-.58.25h-6.12v10.55h3.82l1.4-2.09,2.23,2.12ZM567.23,367.94c.14.11.22.18.22.25s-.07.11-.25.14c-.97.18-1.51.43-1.73.68-2.84,3.1-6.19,6.23-8.96,7.99l-.29-.32c3.71-3.28,7.2-7.92,8.64-10.62l2.38,1.87ZM571.94,363.58v-10.55h-6.98v10.55h6.98ZM570.54,366.5c4.17,2.05,7.2,4.21,8.06,5.65.25.47.36.94.36,1.4,0,1.04-.58,1.94-1.08,1.94-.4,0-.65-.22-.9-.79-1.48-3.24-2.59-4.64-6.66-7.85l.22-.36Z"/>
          <path class="cls-4" d="M616.37,349c.25.22.36.4.36.54s-.18.25-.5.25h-26.06v10.47c0,7.78-1.84,12.35-5.98,16.02l-.36-.29c3.42-4.21,4.68-8.6,4.68-15.84v-9.68c0-1.3-.04-2.59-.11-3.38l2.48,1.91h21.6l1.51-2.09,2.38,2.09ZM616.44,373.59c.25.22.36.4.36.54s-.18.25-.5.25h-23.18c-.76,0-1.8.14-2.41.4l-1.01-1.33c.9.07,1.8.14,2.63.14h11.66c1.69-3.82,5.62-14.43,6.88-20.16l2.52,1.55c.14.11.25.18.25.29,0,.07-.11.18-.32.32-.72.43-.9.54-1.08.94-2.48,6.16-5.44,12.99-7.49,17.06h7.81l1.51-2.09,2.38,2.09ZM593.22,355.81c3.02,3.78,4.61,7.52,4.61,9.29,0,1.51-.9,2.34-1.37,2.34-.5,0-.68-.47-.68-1.37,0-2.77-.72-5.87-2.92-10.04l.36-.22ZM599.12,343.53c3.74,1.3,4.64,2.16,4.64,3.46,0,.97-.68,1.73-1.26,1.73-.32,0-.47-.11-.61-.76-.29-1.26-1.22-2.74-2.95-4.07l.18-.36ZM600.35,354.22c2.95,4.18,4.1,7.56,4.1,8.89,0,1.48-1.01,2.16-1.58,2.16-.61,0-.61-.83-.61-2.09,0-1.91-.61-4.75-2.23-8.75l.32-.22Z"/>
          <path class="cls-4" d="M652.83,347.74c.25.29.4.47.4.61s-.18.18-.54.18h-29.48c-.76,0-1.8.14-2.41.4l-1.01-1.33c.9.07,1.8.14,2.63.14h26.89l1.62-2.12,1.91,2.12ZM650.53,354.15c.22.14.32.25.32.36s-.11.22-.32.36l-1.04.68v17.42c0,1.94-.5,2.63-2.34,3.49-.14.07-.29.11-.36.11-.14,0-.22-.11-.25-.32-.18-1.04-.94-1.69-4.17-2.52l.11-.58c2.09.32,3.35.5,4.1.5,1.12,0,1.15-.36,1.15-1.22v-17.53h-21.63v14.11c0,3.64.04,4.9.14,6.33v.25c0,.43-.11.58-.86.86-.32.14-.58.22-.72.22-.29,0-.36-.22-.36-.76v-.32c.07-1.91.11-4.82.11-6.66v-11.84c0-1.33-.07-3.53-.14-4.72l2.27,1.73h12.85c1.3-2.2,2.05-3.74,2.7-5.29l1.98,1.15c.25.14.36.29.36.4,0,.14-.14.22-.5.29-.36.07-.72.25-1.01.61l-2.7,2.84h6.95l1.08-1.66,2.3,1.69ZM635.05,357.54c.29.18.43.32.43.43s-.18.18-.47.22c-.72.11-1.08.32-1.44.68-1.69,1.62-3.64,3.38-6.55,5.44l-.29-.47c2.27-1.66,4.71-4.54,6.55-7.59l1.76,1.3ZM629.47,349.26c3.38.97,4.39,1.84,4.39,3.13,0,.9-.68,1.48-1.12,1.48s-.65-.32-.79-.86c-.36-1.26-1.15-2.34-2.63-3.38l.14-.36ZM643.12,363.01c.18.11.25.18.25.29,0,.07-.07.18-.25.32l-.79.61v3.06c0,1.08.04,2.05.14,3.49v.25c0,.43-.11.58-.86.86-.32.11-.54.18-.68.18-.22,0-.25-.14-.25-.43v-1.15h-7.56v1.19c0,.47-.07.58-.68.83-.32.11-.58.18-.72.18-.25,0-.32-.18-.32-.68,0-.68.11-4.14.11-4.39v-2.66c0-.79-.04-2.34-.11-3.35l2.09,1.3h6.62l.94-1.37,2.09,1.48ZM640.67,369.7v-6.01h-7.56v6.01h7.56ZM634.26,342.96c2.95.94,4.21,1.87,4.21,3.2,0,.9-.61,1.51-1.15,1.51-.47,0-.65-.25-.76-.83-.18-1.01-.97-2.23-2.52-3.53l.22-.36ZM639.23,356.78c4.1,1.33,6.62,2.52,6.62,4.54,0,.79-.43,1.4-.79,1.4-.32,0-.54-.18-.9-.97-.25-.54-2.3-2.92-5.11-4.57l.18-.4Z"/>
          <path class="cls-4" d="M688.47,373.63c.4.32.58.5.58.65,0,.11-.22.14-.65.14h-29.37c-.76,0-1.8.14-2.41.4l-1.01-1.33c.9.07,1.8.14,2.63.14h13.17v-11.16h-8.78c-.76,0-1.8.14-2.41.4l-1.01-1.33c.9.07,1.8.14,2.63.14h9.58v-9.57h-10.51c-.76,0-1.8.14-2.41.4l-1.01-1.33c.9.07,1.8.14,2.63.14h22.79l1.62-2.02,2.48,2.02c.36.29.54.47.54.61s-.25.18-.68.18h-13.64v9.57h7.88l1.48-1.98,2.52,2.05c.32.25.47.43.47.54,0,.14-.18.18-.61.18h-11.73v11.16h11.23l1.48-2.09,2.56,2.09ZM668.75,343.32c2.05,1.04,5.26,2.92,5.26,4.72,0,1.01-.76,2.09-1.3,2.09-.58,0-.86-.47-1.04-1.66-.18-1.26-.97-2.99-3.17-4.79l.25-.36Z"/>
          <path class="cls-4" d="M702.62,349.98c.11.11.18.18.18.25s-.11.11-.29.11h-5.58c-1.66,3.53-3.46,7.09-5.33,10.11l-.47-.22c2.45-5.22,4.54-10.44,6.73-16.7l1.98,1.33c.32.18.47.32.47.43,0,.07-.14.14-.5.25-.83.22-1.01.47-1.3,1.15-.4.94-.79,1.87-1.26,2.84h2.77l.9-1.26,1.69,1.69ZM703.13,368.15l-3.82,3.67c-1.26,1.22-1.48,1.62-1.76,2.27-.07.18-.14.25-.25.25-.07,0-.18-.04-.25-.11l-1.62-1.44c1.19-.97,1.33-1.15,1.33-2.84v-7.09h-1.08c-.76,0-1.8.14-2.41.4l-1.01-1.33c.9.07,1.8.14,2.63.14h1.87v-5.98c-.29.04-.54.14-.9.25l-1.01-1.22c.83.11,1.48.14,2.3.14h2.23l1.08-1.44,1.62,1.8c.11.14.18.25.18.32s-.11.11-.32.11h-3.56v6.01h1.66l1.04-1.44,1.51,1.8c.14.14.22.25.22.32s-.11.11-.25.11h-4.18v7.99l4.46-3.06.29.36ZM725.01,373.23c-1.58.4-2.09.9-2.38,1.73-.07.22-.14.29-.43.29-10.08-.43-12.45-.97-15.23-4.61-1.3,1.98-2.99,3.6-7.06,6.3l-.25-.36c3.31-2.84,5.11-4.61,6.41-7.2-.68-1.22-1.84-4.25-2.7-6.95l.43-.18c.97,2.48,1.73,4,2.81,5.94.68-1.98,1.22-5.58,1.48-10.33h-1.87l-.54.76c-.11.14-.18.22-.29.22-.07,0-.14-.04-.22-.11l-1.73-1.4,1.15-.72,2.66-7.81h-1.76c-.61,0-1.3.11-1.8.29l-.9-1.22c.76.11,1.37.14,2.05.14h2.12l.9-1.3,1.73,1.55c.14.14.22.25.22.32,0,.11-.11.22-.36.29-.61.22-.79.5-1.22,1.66l-2.27,6.55h1.83l.79-1.01,1.76,1.4c.18.11.25.22.25.29s-.07.14-.22.22l-.79.43c-.4,5.51-.94,8.96-2.05,11.23,2.02,2.52,5.26,3.56,10.47,3.56,2.02,0,4.32-.14,6.98-.43v.47ZM725.55,352.21c.18.22.29.36.29.43,0,.11-.14.14-.4.14h-3.56v1.48c0,.43.11,2.59.11,3.1,0,.36-.14.5-.9.86-.29.14-.5.22-.61.22-.25,0-.25-.11-.25-1.19h-3.6v3.85h3.28l1.01-1.51,1.66,1.8c.14.14.25.29.25.36,0,.11-.14.14-.43.14h-5.76v3.85h3.89l1.08-1.48,1.84,1.84c.14.14.22.25.22.32s-.11.11-.32.11h-6.7c0,.54.07,3.2.07,3.82,0,.4-.14.58-.79.9-.4.18-.65.29-.79.29-.18,0-.22-.14-.22-.4v-.22c.07-1.73.11-3.13.11-4.39h-2.84c-.65,0-1.44.11-1.94.36l-.9-1.3c.76.07,1.51.14,2.2.14h3.49v-3.85h-1.98c-.61,0-1.37.11-1.91.36l-.86-1.3c.72.07,1.44.14,2.12.14h2.63v-3.85h-1.87c-.61,0-1.26.11-1.76.32l-.83-1.26c.68.07,1.33.14,1.94.14h2.52v-3.67h-2.99c-.61,0-1.3.14-1.8.32l-1.01-1.26c.76.07,1.48.14,2.16.14h3.64v-3.46h-1.8c-.54,0-1.04.11-1.51.25l-1.04-1.15c.68.07,1.37.11,2.02.11h2.34c0-1.48,0-3.67-.07-4.93l2.48,1.19c.14.07.25.11.25.18,0,.11-.04.14-1.04.79v2.77h3.2l.83-1.44,1.87,1.37c.22.14.32.25.32.36s-.11.18-.97.76v3.2h.79l1.15-1.69,1.73,1.91ZM720.23,351.99v-3.46h-3.6v3.46h3.6ZM720.23,356.46v-3.67h-3.6v3.67h3.6Z"/>
        </g>
        <g>
          <path class="cls-4" d="M599.07,302.02c-1.26,0-2.59.79-3.1,1.66-.07.14-.18.22-.32.22-.11,0-.22,0-.32-.07-6.7-2.52-10.58-5.62-13.03-8.39-5.9,4.46-11.16,7.88-16.52,10.01l-.22-.43c5.51-2.99,11.84-7.31,15.91-11.48l2.23.94c.14.07.22.14.22.22,0,.11-.11.18-.32.25-.22.04-.43.11-.61.18,3.53,3.71,10.22,6.34,16.09,6.55v.36ZM598.06,287.23c.22.18.29.29.29.4s-.14.14-.36.18c-1.62.14-2.59.83-4.21,3.53l-.54-.25,1.66-3.82h-12.02v1.44c0,.47.07,2.84.07,3.38,0,.5-.18.65-.86.86-.29.11-.5.14-.65.14-.25,0-.32-.18-.32-.68,0-.54.04-3.17.04-3.78v-1.37h-11.01c-.11,2.38-.72,3.31-1.8,3.89-.47.25-.9.36-1.26.36-.29,0-.83-.07-.83-.76,0-.32.22-.61.83-1.04,1.44-1.08,2.09-2.02,2.45-4.61h.58c.04.5.04.94.04,1.37h11.01v-2.95h-6.55c-.72,0-1.76.14-2.3.36l-.97-1.3c.83.11,1.73.14,2.52.14h15.84l1.58-2.16,2.38,2.23c.22.22.32.36.32.5s-.18.22-.5.22h-10.58v2.95h11.73l.97-1.33,2.48,2.09ZM578.08,294.35h-7.38v-.79h7.38v.79ZM578.23,291.08h-7.38v-.79h7.38v.79ZM590.5,304.94c.18.18.25.29.25.4,0,.14-.14.18-.43.22-.79.07-1.73.32-2.92,1.12l-4.86,3.2c3.31,1.26,3.92,2.38,3.92,3.42,0,.68-.43.94-.94.94s-.79-.29-1.08-.68c-1.19-1.62-5.4-3.85-9.47-4.61l.04-.47c2.45.04,4.86.5,6.8,1.15l5.44-4.79h-11.84c-.79,0-1.76.18-2.38.43l-1.01-1.33c.9.07,1.87.11,2.7.11h12.35l1.3-1.22,2.12,2.12ZM579.38,298.89c2.3.54,4.25,1.4,4.39,2.88,0,.79-.32,1.44-.97,1.44-.29,0-.68-.43-.76-.76-.18-.83-1.33-2.34-2.81-3.28l.14-.29ZM592.62,291.01h-7.09v-.79h7.09v.79ZM592.8,294.35h-7.27v-.79h7.27v.79Z"/>
          <path class="cls-4" d="M611.78,282.11c.29.18.43.29.43.4s-.14.22-.43.32c-.76.29-1.15.65-1.48,1.48-.68,1.69-1.55,3.71-2.56,5.83l1.58.94c.18.11.25.18.25.25,0,.11-.07.18-.94.76v14.58c0,2.23.04,4.07.14,5.69v.29c0,.47-.11.61-.86.94-.32.14-.54.25-.72.25-.25,0-.32-.25-.32-.86v-.32c.07-2.12.11-4.18.11-6.05v-14.9c-1.48,2.95-3.2,5.9-5.11,8.28l-.4-.32c3.38-5.54,5.94-11.95,7.96-18.9l2.34,1.37ZM634.2,298.85c.32.29.47.47.47.61s-.22.18-.61.18h-9.86v5.76c0,2.74.04,5.26.14,6.88v.29c0,.47-.11.61-.86.94-.36.18-.61.25-.79.25-.25,0-.32-.22-.32-.83v-.36c.07-2.12.11-5.18.11-7.23v-5.69h-9.47c-.76,0-1.8.14-2.41.4l-1.01-1.33c.9.07,1.8.14,2.63.14h10.26v-8.53h-6.12c-1.12,2.48-2.52,4.97-4.03,7.06l-.43-.32c2.41-4.18,3.89-9.21,4.86-13.28l2.38,1.37c.14.11.22.18.22.25s-.11.18-.36.25c-.72.25-.94.5-1.48,1.91-.25.65-.5,1.3-.79,1.94h5.76v-3.67c0-1.48-.07-4.1-.14-5.44l2.66,1.37c.22.11.32.18.32.29s-.07.22-.25.36l-.86.79v6.3h4.32l1.4-1.98,2.34,2.16c.25.22.4.36.4.47,0,.14-.18.18-.54.18h-7.92v8.53h6.41l1.48-2.02,2.12,2.02Z"/>
          <path class="cls-4" d="M670.2,310.91c.4.32.58.5.58.65,0,.11-.22.14-.65.14h-29.37c-.76,0-1.8.14-2.41.4l-1.01-1.33c.9.07,1.8.14,2.63.14h13.17v-11.16h-8.78c-.76,0-1.8.14-2.41.4l-1.01-1.33c.9.07,1.8.14,2.63.14h9.58v-9.57h-10.51c-.76,0-1.8.14-2.41.4l-1.01-1.33c.9.07,1.8.14,2.63.14h22.79l1.62-2.02,2.48,2.02c.36.29.54.47.54.61s-.25.18-.68.18h-13.64v9.57h7.88l1.48-1.98,2.52,2.05c.32.25.47.43.47.54,0,.14-.18.18-.61.18h-11.73v11.16h11.23l1.48-2.09,2.56,2.09ZM650.48,280.6c2.05,1.04,5.26,2.92,5.26,4.72,0,1.01-.76,2.09-1.3,2.09-.58,0-.86-.47-1.04-1.66-.18-1.26-.97-2.99-3.17-4.79l.25-.36Z"/>
          <path class="cls-4" d="M684.35,287.26c.11.11.18.18.18.25s-.11.11-.29.11h-5.58c-1.66,3.53-3.46,7.09-5.33,10.11l-.47-.22c2.45-5.22,4.54-10.44,6.73-16.7l1.98,1.33c.32.18.47.32.47.43,0,.07-.14.14-.5.25-.83.22-1.01.47-1.3,1.15-.4.94-.79,1.87-1.26,2.84h2.77l.9-1.26,1.69,1.69ZM684.86,305.44l-3.82,3.67c-1.26,1.22-1.48,1.62-1.76,2.27-.07.18-.14.25-.25.25-.07,0-.18-.04-.25-.11l-1.62-1.44c1.19-.97,1.33-1.15,1.33-2.84v-7.09h-1.08c-.76,0-1.8.14-2.41.4l-1.01-1.33c.9.07,1.8.14,2.63.14h1.87v-5.98c-.29.04-.54.14-.9.25l-1.01-1.22c.83.11,1.48.14,2.3.14h2.23l1.08-1.44,1.62,1.8c.11.14.18.25.18.32s-.11.11-.32.11h-3.56v6.01h1.66l1.04-1.44,1.51,1.8c.14.14.22.25.22.32s-.11.11-.25.11h-4.17v7.99l4.46-3.06.29.36ZM706.74,310.52c-1.58.4-2.09.9-2.38,1.73-.07.22-.14.29-.43.29-10.08-.43-12.46-.97-15.23-4.61-1.3,1.98-2.99,3.6-7.05,6.3l-.25-.36c3.31-2.84,5.11-4.61,6.41-7.2-.68-1.22-1.84-4.25-2.7-6.95l.43-.18c.97,2.48,1.73,4,2.81,5.94.68-1.98,1.22-5.58,1.48-10.33h-1.87l-.54.76c-.11.14-.18.22-.29.22-.07,0-.14-.04-.22-.11l-1.73-1.4,1.15-.72,2.66-7.81h-1.76c-.61,0-1.3.11-1.8.29l-.9-1.22c.76.11,1.37.14,2.05.14h2.12l.9-1.3,1.73,1.55c.14.14.22.25.22.32,0,.11-.11.22-.36.29-.61.22-.79.5-1.22,1.66l-2.27,6.55h1.84l.79-1.01,1.76,1.4c.18.11.25.22.25.29s-.07.14-.22.22l-.79.43c-.4,5.51-.94,8.96-2.05,11.23,2.02,2.52,5.25,3.56,10.47,3.56,2.02,0,4.32-.14,6.98-.43v.47ZM707.28,289.49c.18.22.29.36.29.43,0,.11-.14.14-.4.14h-3.56v1.48c0,.43.11,2.59.11,3.1,0,.36-.14.5-.9.86-.29.14-.5.22-.61.22-.25,0-.25-.11-.25-1.19h-3.6v3.85h3.28l1.01-1.51,1.66,1.8c.14.14.25.29.25.36,0,.11-.14.14-.43.14h-5.76v3.85h3.89l1.08-1.48,1.84,1.84c.14.14.22.25.22.32s-.11.11-.32.11h-6.7c0,.54.07,3.2.07,3.82,0,.4-.14.58-.79.9-.4.18-.65.29-.79.29-.18,0-.22-.14-.22-.4v-.22c.07-1.73.11-3.13.11-4.39h-2.84c-.65,0-1.44.11-1.94.36l-.9-1.3c.76.07,1.51.14,2.2.14h3.49v-3.85h-1.98c-.61,0-1.37.11-1.91.36l-.86-1.3c.72.07,1.44.14,2.12.14h2.63v-3.85h-1.87c-.61,0-1.26.11-1.76.32l-.83-1.26c.68.07,1.33.14,1.94.14h2.52v-3.67h-2.99c-.61,0-1.3.14-1.8.32l-1.01-1.26c.76.07,1.48.14,2.16.14h3.64v-3.46h-1.8c-.54,0-1.04.11-1.51.25l-1.04-1.15c.68.07,1.37.11,2.02.11h2.34c0-1.48,0-3.67-.07-4.93l2.48,1.19c.14.07.25.11.25.18,0,.11-.04.14-1.04.79v2.77h3.2l.83-1.44,1.87,1.37c.22.14.32.25.32.36s-.11.18-.97.76v3.2h.79l1.15-1.69,1.73,1.91ZM701.96,289.28v-3.46h-3.6v3.46h3.6ZM701.96,293.74v-3.67h-3.6v3.67h3.6Z"/>
        </g>
        <g>
          <path class="cls-4" d="M582.04,220.62c.25.25.36.43.36.54,0,.14-.14.22-.47.22h-11.84v8.96c0,11.12-.5,15.95-4.14,20.19l-.36-.25c2.63-4.5,2.88-7.85,2.88-19.69v-7.02c0-1.51-.04-3.78-.11-4.61l2.23,1.58h8.39l1.22-1.76,1.84,1.84ZM581.61,241.14c-5.44,3.46-6.98,5-7.63,6.3-.14.25-.22.36-.32.36-.07,0-.18-.04-.25-.14l-1.48-1.66c.86-.47,1.12-.86,1.12-2.09v-13.14c0-1.48-.07-3.92-.14-5.26l1.91,1.48h3.63l.72-1.22,2.02,1.37c.14.07.22.18.22.25,0,.14-.11.22-.97.83v6.84c0,2.09-.29,2.84-1.94,3.82-.14.11-.25.14-.32.14-.14,0-.22-.14-.25-.43-.14-.79-.5-1.15-2.56-1.84l.11-.47c.97.22,1.66.32,2.16.32,1.12,0,1.22-.61,1.22-2.2v-6.62h-4.18v16.7l6.7-3.82.25.47ZM591.44,230.31c.18.07.25.14.25.22s-.07.14-.21.25l-.86.58c.04,1.08.04,2.02.04,2.88,0,2.95-.18,4.86-.5,6.98-.54,3.64-4.03,7.02-11.63,9.72l-.29-.32c5.98-3.1,9.61-5.87,10.33-8.96.36-1.55.54-3.82.54-7.27,0-1.44-.04-3.13-.11-5.04l2.45.97ZM598.31,220.19c.29.29.4.47.4.58,0,.14-.14.18-.5.18h-7.16c-.54,1.15-1.3,3.02-2.23,5.58h5l.79-1.33,2.12,1.48c.18.11.29.22.29.32,0,.18-.14.25-1.12.94v5.72c0,2.74.07,4.46.18,6.08v.29c0,.54-.11.65-.83.97-.36.14-.58.25-.76.25-.25,0-.29-.22-.29-.76,0-1.4.07-3.6.07-5v-8.17h-8.85v9.18c0,1.51.04,2.84.11,4.03v.22c0,.43-.14.54-.94.94-.29.14-.5.25-.65.25-.22,0-.29-.22-.29-.65v-.47c.07-1.26.11-3.17.11-5v-6.16c0-1.33-.04-3.49-.11-4.72l2.09,1.58h2.41c.4-1.8.61-3.71.79-5.58h-2.45c-.76,0-1.8.14-2.41.4l-1.01-1.33c.9.07,1.8.14,2.63.14h9.32l1.33-1.87,1.94,1.91ZM590.5,241.83c4.1,1.94,6.26,3.2,7.38,4.86.25.4.36.79.36,1.19,0,.79-.43,1.48-.79,1.48-.47,0-.76-.29-1.33-1.44s-2.48-3.38-5.79-5.69l.18-.4Z"/>
          <path class="cls-4" d="M635.1,237.94c-2.23.18-3.02.79-3.56,1.73-.07.11-.14.18-.29.18-.04,0-.11,0-.22-.04-4.64-1.08-8.64-2.45-11.84-4.36-2.05,1.37-5.08,2.88-8.28,4.21l1.15.86h12.56l1.04-1.44,2.3,1.66c.21.14.32.25.32.36s-.11.22-.32.32l-1.12.58v3.89c0,1.22.04,2.27.14,3.89v.29c0,.47-.11.61-.86.94-.36.14-.58.22-.72.22-.21,0-.25-.18-.25-.47v-2.02h-13.43v1.33c0,.43-.07.65-.68.9-.47.22-.79.32-.97.32-.22,0-.29-.14-.29-.47,0-.14,0-.32.04-.54.14-1.66.22-3.49.22-4.75v-2.88c0-.72,0-1.69-.07-2.59-2.99,1.19-6.05,2.23-8.64,2.81l-.07-.5c7.42-2.84,12.63-5.29,16.56-7.85-2.23-1.62-3.96-3.56-5.08-6.05-2.77,3.64-4.79,5.76-6.8,7.56l-.22-.43c3.2-3.82,5.44-7.02,8.06-12.31l2.09,1.4c.18.11.29.22.29.32s-.11.18-.36.25c-.68.14-.94.32-1.51,1.12-.25.36-.5.72-.76,1.04h10.87l1.4-1.26,2.16,1.94c.18.14.25.25.25.32,0,.14-.14.22-.43.29-1.15.29-1.62.58-2.09,1.08-1.19,1.33-3.49,3.42-5.26,4.75,3.74,1.94,8.24,2.99,12.78,2.99.65,0,1.26-.04,1.87-.07v.47ZM634.28,223.11c.07.07.11.14.11.22,0,.11-.07.22-.25.22-1.33.07-2.23.72-4.43,3.38l-.43-.25,1.8-3.49h-23.61c-.36,4.39-2.59,4.75-3.17,4.75-.4,0-1.12-.14-1.12-.79,0-.29.14-.65.4-.83,1.94-1.44,3.02-2.38,3.42-5.47h.54v1.55h23.22l1.04-1.48,2.48,2.2ZM625.17,247.95v-6.62h-13.43v6.62h13.43ZM613.15,228.18c1.4,2.23,3.42,4.07,5.83,5.54,2.41-1.73,4.25-3.53,5.76-5.54h-11.59ZM615.81,217.42c2.88.79,4.46,1.66,4.72,2.74.04.22.07.4.07.58,0,.97-.68,1.55-1.22,1.55-.47,0-.58-.14-.9-1.12-.36-1.04-1.47-2.48-2.84-3.31l.18-.43Z"/>
          <path class="cls-4" d="M670.17,248.2c.39.32.58.5.58.65,0,.11-.22.14-.65.14h-29.37c-.76,0-1.8.14-2.41.4l-1.01-1.33c.9.07,1.8.14,2.63.14h13.17v-11.16h-8.78c-.76,0-1.8.14-2.41.4l-1.01-1.33c.9.07,1.8.14,2.63.14h9.57v-9.57h-10.51c-.76,0-1.8.14-2.41.4l-1.01-1.33c.9.07,1.8.14,2.63.14h22.79l1.62-2.02,2.48,2.02c.36.29.54.47.54.61s-.25.18-.68.18h-13.64v9.57h7.88l1.48-1.98,2.52,2.05c.32.25.47.43.47.54,0,.14-.18.18-.61.18h-11.73v11.16h11.23l1.48-2.09,2.56,2.09ZM650.44,217.89c2.05,1.04,5.26,2.92,5.26,4.72,0,1.01-.76,2.09-1.3,2.09-.58,0-.86-.47-1.04-1.66-.18-1.26-.97-2.99-3.17-4.79l.25-.36Z"/>
          <path class="cls-4" d="M684.32,224.55c.11.11.18.18.18.25s-.11.11-.29.11h-5.58c-1.66,3.53-3.46,7.09-5.33,10.11l-.47-.22c2.45-5.22,4.54-10.44,6.73-16.7l1.98,1.33c.32.18.47.32.47.43,0,.07-.14.14-.5.25-.83.22-1.01.47-1.29,1.15-.4.94-.79,1.87-1.26,2.84h2.77l.9-1.26,1.69,1.69ZM684.82,242.73l-3.82,3.67c-1.26,1.22-1.47,1.62-1.76,2.27-.07.18-.14.25-.25.25-.07,0-.18-.04-.25-.11l-1.62-1.44c1.19-.97,1.33-1.15,1.33-2.84v-7.09h-1.08c-.76,0-1.8.14-2.41.4l-1.01-1.33c.9.07,1.8.14,2.63.14h1.87v-5.98c-.29.04-.54.14-.9.25l-1.01-1.22c.83.11,1.48.14,2.3.14h2.23l1.08-1.44,1.62,1.8c.11.14.18.25.18.32s-.11.11-.32.11h-3.56v6.01h1.66l1.04-1.44,1.51,1.8c.14.14.22.25.22.32s-.11.11-.25.11h-4.18v7.99l4.46-3.06.29.36ZM706.71,247.8c-1.58.4-2.09.9-2.38,1.73-.07.22-.14.29-.43.29-10.08-.43-12.46-.97-15.23-4.61-1.3,1.98-2.99,3.6-7.05,6.3l-.25-.36c3.31-2.84,5.11-4.61,6.41-7.2-.68-1.22-1.84-4.25-2.7-6.95l.43-.18c.97,2.48,1.73,4,2.81,5.94.68-1.98,1.22-5.58,1.47-10.33h-1.87l-.54.76c-.11.14-.18.22-.29.22-.07,0-.14-.04-.22-.11l-1.73-1.4,1.15-.72,2.66-7.81h-1.76c-.61,0-1.29.11-1.8.29l-.9-1.22c.76.11,1.37.14,2.05.14h2.12l.9-1.3,1.73,1.55c.14.14.22.25.22.32,0,.11-.11.22-.36.29-.61.22-.79.5-1.22,1.66l-2.27,6.55h1.84l.79-1.01,1.76,1.4c.18.11.25.22.25.29s-.07.14-.21.22l-.79.43c-.4,5.51-.94,8.96-2.05,11.23,2.02,2.52,5.25,3.56,10.47,3.56,2.02,0,4.32-.14,6.98-.43v.47ZM707.25,226.78c.18.22.29.36.29.43,0,.11-.14.14-.4.14h-3.56v1.48c0,.43.11,2.59.11,3.1,0,.36-.14.5-.9.86-.29.14-.5.22-.61.22-.25,0-.25-.11-.25-1.19h-3.6v3.85h3.28l1.01-1.51,1.66,1.8c.14.14.25.29.25.36,0,.11-.14.14-.43.14h-5.76v3.85h3.89l1.08-1.48,1.84,1.84c.14.14.22.25.22.32s-.11.11-.32.11h-6.7c0,.54.07,3.2.07,3.82,0,.4-.14.58-.79.9-.39.18-.65.29-.79.29-.18,0-.22-.14-.22-.4v-.22c.07-1.73.11-3.13.11-4.39h-2.84c-.65,0-1.44.11-1.95.36l-.9-1.3c.76.07,1.51.14,2.2.14h3.49v-3.85h-1.98c-.61,0-1.37.11-1.91.36l-.86-1.3c.72.07,1.44.14,2.12.14h2.63v-3.85h-1.87c-.61,0-1.26.11-1.76.32l-.83-1.26c.69.07,1.33.14,1.95.14h2.52v-3.67h-2.99c-.61,0-1.3.14-1.8.32l-1.01-1.26c.76.07,1.48.14,2.16.14h3.64v-3.46h-1.8c-.54,0-1.04.11-1.51.25l-1.04-1.15c.68.07,1.37.11,2.02.11h2.34c0-1.48,0-3.67-.07-4.93l2.48,1.19c.14.07.25.11.25.18,0,.11-.04.14-1.04.79v2.77h3.2l.83-1.44,1.87,1.37c.22.14.32.25.32.36s-.11.18-.97.76v3.2h.79l1.15-1.69,1.73,1.91ZM701.92,226.56v-3.46h-3.6v3.46h3.6ZM701.92,231.03v-3.67h-3.6v3.67h3.6Z"/>
        </g>
      </g>
      <g>
        <rect class="cls-2" x="486.56" y="472.66" width="300" height="79.1"/>
        <text class="cls-5" transform="translate(600.73 525.89)"><tspan x="0" y="0">数量</tspan></text>
      </g>
    </g>
    <g>
      <line class="cls-1" x1="301" y1="105.28" x2="468.41" y2="228.64"/>
      <path class="cls-4" d="M465.52,226.51l.75-8.4h.29s6.69,10.74,6.69,10.74c2.76,3.15,5.52,6.31,8.28,9.46-3.83-1.7-7.66-3.41-11.49-5.11l-12.23-3.21-.13-.25,7.83-3.23Z"/>
    </g>
    <g>
      <line class="cls-1" x1="301" y1="551.77" x2="474.11" y2="389.71"/>
      <path class="cls-4" d="M471.49,392.17l-8.12-2.27.07-.29,11.77-4.62c3.6-2.14,7.21-4.28,10.81-6.42-2.37,3.46-4.75,6.91-7.12,10.37l-5.39,11.44-.26.08-1.75-8.29Z"/>
    </g>
    <g>
      <line class="cls-1" x1="1023.49" y1="122.25" x2="800.86" y2="290.31"/>
      <path class="cls-4" d="M803.72,288.15l7.84,3.11-.1.28-12.19,3.35c-3.81,1.75-7.62,3.5-11.43,5.24,2.72-3.19,5.45-6.37,8.17-9.56l6.57-10.8.27-.05.87,8.42Z"/>
    </g>
    <g>
      <line class="cls-1" x1="1023.49" y1="570.73" x2="801.88" y2="444.48"/>
      <path class="cls-4" d="M804.99,446.26l.24,8.43-.29.02-7.9-9.87c-3.11-2.81-6.22-5.62-9.33-8.43,4,1.24,8.01,2.49,12.01,3.73l12.52,1.76.15.23-7.4,4.13Z"/>
    </g>
  </g>
</svg>