<?xml version="1.0" encoding="UTF-8"?>
<svg id="_图层_2" data-name="图层 2" xmlns="http://www.w3.org/2000/svg" viewBox="0 0 1108.43 635.29">
  <defs>
    <style>
      .cls-1, .cls-2 {
        font-family: Consolas-Bold, Consolas;
        font-size: 24px;
        font-weight: 700;
      }

      .cls-3, .cls-4 {
        fill: #ffc000;
      }

      .cls-3, .cls-5, .cls-6, .cls-7, .cls-8, .cls-9, .cls-10 {
        stroke-width: 0px;
      }

      .cls-11 {
        stroke-dasharray: 0 0 11.55 11.55;
      }

      .cls-11, .cls-12 {
        stroke: #fff;
      }

      .cls-11, .cls-12, .cls-4, .cls-13, .cls-14 {
        stroke-miterlimit: 10;
      }

      .cls-11, .cls-12, .cls-13, .cls-14 {
        fill: none;
      }

      .cls-4, .cls-13, .cls-14 {
        stroke: #000;
      }

      .cls-6 {
        fill: #009245;
      }

      .cls-7 {
        fill: #7030a0;
      }

      .cls-8, .cls-2 {
        fill: #fff;
      }

      .cls-13 {
        stroke-width: 2px;
      }

      .cls-9 {
        fill: #ed7d31;
      }

      .cls-10 {
        fill: #5b9bd5;
      }

      .cls-14 {
        stroke-width: 9px;
      }
    </style>
  </defs>
  <g id="A100内存是以">
    <g>
      <rect class="cls-8" x="0" y="0" width="670.46" height="403.6"/>
      <path class="cls-6" d="M670.46,0h-12v2h10v10.11h2V0h0ZM646.46,0h-12v2h12V0h0ZM622.46,0h-12v2h12V0h0ZM598.46,0h-12v2h12V0h0ZM574.46,0h-12v2h12V0h0ZM550.46,0h-12v2h12V0h0ZM526.46,0h-12v2h12V0h0ZM502.46,0h-12v2h12V0h0ZM478.46,0h-12v2h12V0h0ZM454.46,0h-12v2h12V0h0ZM430.46,0h-12v2h12V0h0ZM406.46,0h-12v2h12V0h0ZM382.46,0h-12v2h12V0h0ZM358.46,0h-12v2h12V0h0ZM334.46,0h-12v2h12V0h0ZM310.46,0h-12v2h12V0h0ZM286.46,0h-12v2h12V0h0ZM262.46,0h-12v2h12V0h0ZM238.46,0h-12v2h12V0h0ZM214.46,0h-12v2h12V0h0ZM190.46,0h-12v2h12V0h0ZM166.46,0h-12v2h12V0h0ZM142.46,0h-12v2h12V0h0ZM118.46,0h-12v2h12V0h0ZM94.46,0h-12v2h12V0h0ZM70.46,0h-12v2h12V0h0ZM46.46,0h-12v2h12V0h0ZM22.46,0h-12v2h12V0h0ZM2,1.54H0v12h2V1.54h0ZM2,25.54H0v12h2v-12h0ZM2,49.54H0v12h2v-12h0ZM2,73.54H0v12h2v-12h0ZM2,97.54H0v12h2v-12h0ZM2,121.54H0v12h2v-12h0ZM2,145.54H0v12h2v-12h0ZM2,169.54H0v12h2v-12h0ZM2,193.54H0v12h2v-12h0ZM2,217.54H0v12h2v-12h0ZM2,241.54H0v12h2v-12h0ZM2,265.54H0v12h2v-12h0ZM2,289.54H0v12h2v-12h0ZM2,313.54H0v12h2v-12h0ZM2,337.54H0v12h2v-12h0ZM2,361.54H0v12h2v-12h0ZM2,385.54H0v12h2v-12h0ZM17.94,401.6H5.94v2h12v-2h0ZM41.94,401.6h-12v2h12v-2h0ZM65.94,401.6h-12v2h12v-2h0ZM89.94,401.6h-12v2h12v-2h0ZM113.94,401.6h-12v2h12v-2h0ZM137.94,401.6h-12v2h12v-2h0ZM161.94,401.6h-12v2h12v-2h0ZM185.94,401.6h-12v2h12v-2h0ZM209.94,401.6h-12v2h12v-2h0ZM233.94,401.6h-12v2h12v-2h0ZM257.94,401.6h-12v2h12v-2h0ZM281.94,401.6h-12v2h12v-2h0ZM305.94,401.6h-12v2h12v-2h0ZM329.94,401.6h-12v2h12v-2h0ZM353.94,401.6h-12v2h12v-2h0ZM377.94,401.6h-12v2h12v-2h0ZM401.94,401.6h-12v2h12v-2h0ZM425.94,401.6h-12v2h12v-2h0ZM449.94,401.6h-12v2h12v-2h0ZM473.94,401.6h-12v2h12v-2h0ZM497.94,401.6h-12v2h12v-2h0ZM521.94,401.6h-12v2h12v-2h0ZM545.94,401.6h-12v2h12v-2h0ZM569.94,401.6h-12v2h12v-2h0ZM593.94,401.6h-12v2h12v-2h0ZM617.94,401.6h-12v2h12v-2h0ZM641.94,401.6h-12v2h12v-2h0ZM665.94,401.6h-12v2h12v-2h0ZM670.46,384.11h-2v12h2v-12h0ZM670.46,360.11h-2v12h2v-12h0ZM670.46,336.11h-2v12h2v-12h0ZM670.46,312.11h-2v12h2v-12h0ZM670.46,288.11h-2v12h2v-12h0ZM670.46,264.11h-2v12h2v-12h0ZM670.46,240.11h-2v12h2v-12h0ZM670.46,216.11h-2v12h2v-12h0ZM670.46,192.11h-2v12h2v-12h0ZM670.46,168.11h-2v12h2v-12h0ZM670.46,144.11h-2v12h2v-12h0ZM670.46,120.11h-2v12h2v-12h0ZM670.46,96.11h-2v12h2v-12h0ZM670.46,72.11h-2v12h2v-12h0ZM670.46,48.11h-2v12h2v-12h0ZM670.46,24.11h-2v12h2v-12h0Z"/>
    </g>
    <g>
      <rect class="cls-10" x="25.8" y="315.3" width="618.95" height="79.76"/>
      <text class="cls-2" transform="translate(236.22 361.45)"><tspan x="0" y="0">L2 Cache (40MB)</tspan></text>
    </g>
    <g>
      <rect class="cls-9" x="25.71" y="523.9" width="618.95" height="92.81"/>
      <text class="cls-2" transform="translate(269.2 576.58)"><tspan x="0" y="0">HBM (80GB)</tspan></text>
    </g>
    <g>
      <line class="cls-12" x1="141.69" y1="540.9" x2="141.78" y2="546.9"/>
      <line class="cls-11" x1="141.94" y1="558.45" x2="142.85" y2="621.94"/>
      <line class="cls-12" x1="142.93" y1="627.71" x2="143.01" y2="633.71"/>
    </g>
    <g>
      <line class="cls-12" x1="517.22" y1="540.9" x2="517.3" y2="546.9"/>
      <line class="cls-11" x1="517.47" y1="558.45" x2="518.37" y2="621.94"/>
      <line class="cls-12" x1="518.45" y1="627.71" x2="518.54" y2="633.71"/>
    </g>
    <g>
      <line class="cls-12" x1="406.74" y1="542.48" x2="406.83" y2="548.48"/>
      <line class="cls-11" x1="406.99" y1="560.02" x2="407.9" y2="623.51"/>
      <line class="cls-12" x1="407.98" y1="629.28" x2="408.07" y2="635.28"/>
    </g>
    <g>
      <line class="cls-12" x1="253.02" y1="540.9" x2="253.1" y2="546.9"/>
      <line class="cls-11" x1="253.27" y1="558.45" x2="254.17" y2="621.94"/>
      <line class="cls-12" x1="254.25" y1="627.71" x2="254.34" y2="633.71"/>
    </g>
    <g>
      <line class="cls-13" x1="49.92" y1="422.24" x2="50.86" y2="501.93"/>
      <path class="cls-5" d="M49.96,425.83l7.26,4.3.16-.25-4.8-11.69c-.95-4.08-1.9-8.17-2.85-12.25-.85,4.1-1.7,8.21-2.56,12.31l-4.53,11.8.13.24,7.19-4.47Z"/>
      <path class="cls-5" d="M50.82,498.34l7.15-4.47.17.24-4.53,11.8c-.85,4.1-1.7,8.21-2.56,12.31-.95-4.08-1.9-8.17-2.85-12.25l-4.8-11.69.12-.25,7.3,4.3Z"/>
    </g>
    <g>
      <line class="cls-13" x1="94.29" y1="423.42" x2="95.23" y2="503.11"/>
      <path class="cls-5" d="M94.34,427.01l7.26,4.3.16-.25-4.8-11.69c-.95-4.08-1.9-8.17-2.85-12.25-.85,4.1-1.7,8.21-2.56,12.31l-4.53,11.8.13.24,7.19-4.47Z"/>
      <path class="cls-5" d="M95.19,499.52l7.15-4.47.17.24-4.53,11.8c-.85,4.1-1.7,8.21-2.56,12.31-.95-4.08-1.9-8.17-2.85-12.25l-4.8-11.69.12-.25,7.3,4.3Z"/>
    </g>
    <g>
      <line class="cls-13" x1="138.66" y1="423.42" x2="139.6" y2="503.11"/>
      <path class="cls-5" d="M138.71,427.01l7.26,4.3.16-.25-4.8-11.69c-.95-4.08-1.9-8.17-2.85-12.25-.85,4.1-1.7,8.21-2.56,12.31l-4.53,11.8.13.24,7.19-4.47Z"/>
      <path class="cls-5" d="M139.56,499.52l7.15-4.47.17.24-4.53,11.8c-.85,4.1-1.7,8.21-2.56,12.31-.95-4.08-1.9-8.17-2.85-12.25l-4.8-11.69.12-.25,7.3,4.3Z"/>
    </g>
    <g>
      <line class="cls-13" x1="183.04" y1="423.42" x2="183.97" y2="503.11"/>
      <path class="cls-5" d="M183.08,427.01l7.26,4.3.16-.25-4.8-11.69c-.95-4.08-1.9-8.17-2.85-12.25-.85,4.1-1.7,8.21-2.56,12.31l-4.53,11.8.13.24,7.19-4.47Z"/>
      <path class="cls-5" d="M183.93,499.52l7.15-4.47.17.24-4.53,11.8c-.85,4.1-1.7,8.21-2.56,12.31-.95-4.08-1.9-8.17-2.85-12.25l-4.8-11.69.12-.25,7.3,4.3Z"/>
    </g>
    <g>
      <line class="cls-13" x1="227.41" y1="423.42" x2="228.35" y2="503.11"/>
      <path class="cls-5" d="M227.45,427.01l7.26,4.3.16-.25-4.8-11.69c-.95-4.08-1.9-8.17-2.85-12.25-.85,4.1-1.7,8.21-2.56,12.31l-4.53,11.8.13.24,7.19-4.47Z"/>
      <path class="cls-5" d="M228.3,499.52l7.15-4.47.17.24-4.53,11.8c-.85,4.1-1.7,8.21-2.56,12.31-.95-4.08-1.9-8.17-2.85-12.25l-4.8-11.69.12-.25,7.3,4.3Z"/>
    </g>
    <g>
      <line class="cls-13" x1="271.78" y1="423.42" x2="272.72" y2="503.11"/>
      <path class="cls-5" d="M271.82,427.01l7.26,4.3.16-.25-4.8-11.69c-.95-4.08-1.9-8.17-2.85-12.25-.85,4.1-1.7,8.21-2.56,12.31l-4.53,11.8.13.24,7.19-4.47Z"/>
      <path class="cls-5" d="M272.68,499.52l7.15-4.47.17.24-4.53,11.8c-.85,4.1-1.7,8.21-2.56,12.31-.95-4.08-1.9-8.17-2.85-12.25l-4.8-11.69.12-.25,7.3,4.3Z"/>
    </g>
    <g>
      <line class="cls-13" x1="404.89" y1="423.42" x2="405.83" y2="503.11"/>
      <path class="cls-5" d="M404.94,427.01l7.26,4.3.16-.25-4.8-11.69c-.95-4.08-1.9-8.17-2.85-12.25-.85,4.1-1.7,8.21-2.56,12.31l-4.53,11.8.13.24,7.19-4.47Z"/>
      <path class="cls-5" d="M405.79,499.52l7.15-4.47.17.24-4.53,11.8c-.85,4.1-1.7,8.21-2.56,12.31-.95-4.08-1.9-8.17-2.85-12.25l-4.8-11.69.12-.25,7.3,4.3Z"/>
    </g>
    <g>
      <line class="cls-13" x1="493.64" y1="423.42" x2="494.58" y2="503.11"/>
      <path class="cls-5" d="M493.68,427.01l7.26,4.3.16-.25-4.8-11.69c-.95-4.08-1.9-8.17-2.85-12.25-.85,4.1-1.7,8.21-2.56,12.31l-4.53,11.8.13.24,7.19-4.47Z"/>
      <path class="cls-5" d="M494.53,499.52l7.15-4.47.17.24-4.53,11.8c-.85,4.1-1.7,8.21-2.56,12.31-.95-4.08-1.9-8.17-2.85-12.25l-4.8-11.69.12-.25,7.3,4.3Z"/>
    </g>
    <g>
      <line class="cls-13" x1="582.38" y1="423.42" x2="583.32" y2="503.11"/>
      <path class="cls-5" d="M582.42,427.01l7.26,4.3.16-.25-4.8-11.69c-.95-4.08-1.9-8.17-2.85-12.25-.85,4.1-1.7,8.21-2.56,12.31l-4.53,11.8.13.24,7.19-4.47Z"/>
      <path class="cls-5" d="M583.28,499.52l7.15-4.47.17.24-4.53,11.8c-.85,4.1-1.7,8.21-2.56,12.31-.95-4.08-1.9-8.17-2.85-12.25l-4.8-11.69.12-.25,7.3,4.3Z"/>
    </g>
    <g>
      <line class="cls-13" x1="626.75" y1="423.42" x2="627.69" y2="503.11"/>
      <path class="cls-5" d="M626.8,427.01l7.26,4.3.16-.25-4.8-11.69c-.95-4.08-1.9-8.17-2.85-12.25-.85,4.1-1.7,8.21-2.56,12.31l-4.53,11.8.13.24,7.19-4.47Z"/>
      <path class="cls-5" d="M627.65,499.52l7.15-4.47.17.24-4.53,11.8c-.85,4.1-1.7,8.21-2.56,12.31-.95-4.08-1.9-8.17-2.85-12.25l-4.8-11.69.12-.25,7.3,4.3Z"/>
    </g>
    <g>
      <line class="cls-13" x1="316.15" y1="422.24" x2="317.09" y2="501.93"/>
      <path class="cls-5" d="M316.19,425.83l7.26,4.3.16-.25-4.8-11.69c-.95-4.08-1.9-8.17-2.85-12.25-.85,4.1-1.7,8.21-2.56,12.31l-4.53,11.8.13.24,7.19-4.47Z"/>
      <path class="cls-5" d="M317.05,498.34l7.15-4.47.17.24-4.53,11.8c-.85,4.1-1.7,8.21-2.56,12.31-.95-4.08-1.9-8.17-2.85-12.25l-4.8-11.69.12-.25,7.3,4.3Z"/>
    </g>
    <g>
      <line class="cls-13" x1="360.52" y1="422.24" x2="361.46" y2="501.93"/>
      <path class="cls-5" d="M360.57,425.83l7.26,4.3.16-.25-4.8-11.69c-.95-4.08-1.9-8.17-2.85-12.25-.85,4.1-1.7,8.21-2.56,12.31l-4.53,11.8.13.24,7.19-4.47Z"/>
      <path class="cls-5" d="M361.42,498.34l7.15-4.47.17.24-4.53,11.8c-.85,4.1-1.7,8.21-2.56,12.31-.95-4.08-1.9-8.17-2.85-12.25l-4.8-11.69.12-.25,7.3,4.3Z"/>
    </g>
    <g>
      <line class="cls-13" x1="449.27" y1="422.24" x2="450.2" y2="501.93"/>
      <path class="cls-5" d="M449.31,425.83l7.26,4.3.16-.25-4.8-11.69c-.95-4.08-1.9-8.17-2.85-12.25-.85,4.1-1.7,8.21-2.56,12.31l-4.53,11.8.13.24,7.19-4.47Z"/>
      <path class="cls-5" d="M450.16,498.34l7.15-4.47.17.24-4.53,11.8c-.85,4.1-1.7,8.21-2.56,12.31-.95-4.08-1.9-8.17-2.85-12.25l-4.8-11.69.12-.25,7.3,4.3Z"/>
    </g>
    <g>
      <line class="cls-13" x1="538.01" y1="422.24" x2="538.95" y2="501.93"/>
      <path class="cls-5" d="M538.05,425.83l7.26,4.3.16-.25-4.8-11.69c-.95-4.08-1.9-8.17-2.85-12.25-.85,4.1-1.7,8.21-2.56,12.31l-4.53,11.8.13.24,7.19-4.47Z"/>
      <path class="cls-5" d="M538.9,498.34l7.15-4.47.17.24-4.53,11.8c-.85,4.1-1.7,8.21-2.56,12.31-.95-4.08-1.9-8.17-2.85-12.25l-4.8-11.69.12-.25,7.3,4.3Z"/>
    </g>
    <g>
      <line class="cls-13" x1="66.35" y1="237.28" x2="66.35" y2="295.71"/>
      <path class="cls-5" d="M66.35,225.21c-2.11,5.68-5.7,12.73-9.51,17.09l9.51-3.44,9.51,3.44c-3.81-4.37-7.4-11.42-9.51-17.09Z"/>
      <path class="cls-5" d="M66.35,307.78c-2.11-5.68-5.7-12.73-9.51-17.09l9.51,3.44,9.51-3.44c-3.81,4.37-7.4,11.42-9.51,17.09Z"/>
    </g>
    <g>
      <line class="cls-13" x1="200.42" y1="237.28" x2="200.42" y2="295.71"/>
      <path class="cls-5" d="M200.42,225.21c-2.11,5.68-5.7,12.73-9.51,17.09l9.51-3.44,9.51,3.44c-3.81-4.37-7.4-11.42-9.51-17.09Z"/>
      <path class="cls-5" d="M200.42,307.78c-2.11-5.68-5.7-12.73-9.51-17.09l9.51,3.44,9.51-3.44c-3.81,4.37-7.4,11.42-9.51,17.09Z"/>
    </g>
    <g>
      <line class="cls-13" x1="335.18" y1="237.28" x2="335.18" y2="295.71"/>
      <path class="cls-5" d="M335.18,225.21c-2.11,5.68-5.7,12.73-9.51,17.09l9.51-3.44,9.51,3.44c-3.81-4.37-7.4-11.42-9.51-17.09Z"/>
      <path class="cls-5" d="M335.18,307.78c-2.11-5.68-5.7-12.73-9.51-17.09l9.51,3.44,9.51-3.44c-3.81,4.37-7.4,11.42-9.51,17.09Z"/>
    </g>
    <g>
      <line class="cls-13" x1="469.94" y1="237.28" x2="469.94" y2="295.71"/>
      <path class="cls-5" d="M469.94,225.21c-2.11,5.68-5.7,12.73-9.51,17.09l9.51-3.44,9.51,3.44c-3.81-4.37-7.4-11.42-9.51-17.09Z"/>
      <path class="cls-5" d="M469.94,307.78c-2.11-5.68-5.7-12.73-9.51-17.09l9.51,3.44,9.51-3.44c-3.81,4.37-7.4,11.42-9.51,17.09Z"/>
    </g>
    <g>
      <line class="cls-13" x1="604.69" y1="238.46" x2="604.69" y2="296.89"/>
      <path class="cls-5" d="M604.69,226.39c-2.11,5.68-5.7,12.73-9.51,17.09l9.51-3.44,9.51,3.44c-3.81-4.37-7.4-11.42-9.51-17.09Z"/>
      <path class="cls-5" d="M604.69,308.96c-2.11-5.68-5.7-12.73-9.51-17.09l9.51,3.44,9.51-3.44c-3.81,4.37-7.4,11.42-9.51,17.09Z"/>
    </g>
    <g>
      <rect class="cls-3" x="26.39" y="18.43" width="79.93" height="103.05"/>
      <rect class="cls-7" x="26.39" y="121.47" width="79.93" height="97.1"/>
      <text class="cls-2" transform="translate(46.56 44.01)"><tspan x="0" y="0">SM0</tspan></text>
      <text class="cls-2" transform="translate(39.96 84.3)"><tspan x="0" y="0" xml:space="preserve"> RF</tspan><tspan x="0" y="28.8">256K</tspan></text>
      <text class="cls-2" transform="translate(39.96 155.91)"><tspan x="0" y="0">L1/</tspan><tspan x="0" y="28.8">SMEM</tspan><tspan x="0" y="57.6">192k</tspan></text>
    </g>
    <g>
      <rect class="cls-3" x="564.73" y="18.43" width="79.93" height="103.05"/>
      <rect class="cls-7" x="564.73" y="121.47" width="79.93" height="97.1"/>
      <text class="cls-2" transform="translate(571.9 44.01)"><tspan x="0" y="0">SM107</tspan></text>
      <text class="cls-2" transform="translate(578.3 84.3)"><tspan x="0" y="0" xml:space="preserve"> RF</tspan><tspan x="0" y="28.8">256K</tspan></text>
      <text class="cls-2" transform="translate(578.3 155.91)"><tspan x="0" y="0">L1/</tspan><tspan x="0" y="28.8">SMEM</tspan><tspan x="0" y="57.6">192k</tspan></text>
    </g>
    <g>
      <rect class="cls-3" x="165.3" y="18.43" width="79.93" height="103.05"/>
      <rect class="cls-7" x="165.3" y="121.47" width="79.93" height="97.1"/>
      <text class="cls-2" transform="translate(185.47 44.01)"><tspan x="0" y="0">SM1</tspan></text>
      <text class="cls-2" transform="translate(178.87 84.3)"><tspan x="0" y="0" xml:space="preserve"> RF</tspan><tspan x="0" y="28.8">256K</tspan></text>
      <text class="cls-2" transform="translate(178.87 155.91)"><tspan x="0" y="0">L1/</tspan><tspan x="0" y="28.8">SMEM</tspan><tspan x="0" y="57.6">192k</tspan></text>
    </g>
    <g>
      <rect class="cls-3" x="292.64" y="18.43" width="79.93" height="103.05"/>
      <rect class="cls-7" x="292.64" y="121.47" width="79.93" height="97.1"/>
      <text class="cls-2" transform="translate(312.81 44.01)"><tspan x="0" y="0">SM2</tspan></text>
      <text class="cls-2" transform="translate(306.21 84.3)"><tspan x="0" y="0" xml:space="preserve"> RF</tspan><tspan x="0" y="28.8">256K</tspan></text>
      <text class="cls-2" transform="translate(306.21 155.91)"><tspan x="0" y="0">L1/</tspan><tspan x="0" y="28.8">SMEM</tspan><tspan x="0" y="57.6">192k</tspan></text>
    </g>
    <g>
      <rect class="cls-3" x="416.82" y="18.43" width="79.93" height="103.05"/>
      <rect class="cls-7" x="416.82" y="121.47" width="79.93" height="97.1"/>
      <text class="cls-2" transform="translate(424.58 44.28)"><tspan x="0" y="0">SM...</tspan></text>
      <text class="cls-2" transform="translate(430.39 84.3)"><tspan x="0" y="0" xml:space="preserve"> RF</tspan><tspan x="0" y="28.8">256K</tspan></text>
      <text class="cls-2" transform="translate(430.39 155.91)"><tspan x="0" y="0">L1/</tspan><tspan x="0" y="28.8">SMEM</tspan><tspan x="0" y="57.6">192k</tspan></text>
    </g>
    <g>
      <line class="cls-14" x1="677.51" y1="557.97" x2="833.99" y2="560.24"/>
      <polygon class="cls-5" points="680.01 566.99 664.6 557.79 680.27 549.04 680.01 566.99"/>
      <polygon class="cls-5" points="831.24 569.18 846.91 560.43 831.5 551.23 831.24 569.18"/>
    </g>
    <rect class="cls-4" x="901.68" y="214.64" width="161.17" height="169.77"/>
    <g>
      <rect class="cls-9" x="856.1" y="521.73" width="252.33" height="92.81"/>
      <text class="cls-2" transform="translate(955.88 574.41)"><tspan x="0" y="0">DRAM</tspan></text>
    </g>
    <g>
      <g>
        <line class="cls-13" x1="915.24" y1="421.25" x2="916.18" y2="500.93"/>
        <path class="cls-5" d="M915.28,424.84l7.26,4.3.16-.25-4.8-11.69c-.95-4.08-1.9-8.17-2.85-12.25-.85,4.1-1.7,8.21-2.56,12.31l-4.53,11.8.13.24,7.19-4.47Z"/>
        <path class="cls-5" d="M916.14,497.34l7.15-4.47.17.24-4.53,11.8c-.85,4.1-1.7,8.21-2.56,12.31-.95-4.08-1.9-8.17-2.85-12.25l-4.8-11.69.12-.25,7.3,4.3Z"/>
      </g>
      <g>
        <line class="cls-13" x1="1003.98" y1="421.25" x2="1004.92" y2="500.93"/>
        <path class="cls-5" d="M1004.03,424.84l7.26,4.3.16-.25-4.8-11.69c-.95-4.08-1.9-8.17-2.85-12.25-.85,4.1-1.7,8.21-2.56,12.31l-4.53,11.8.13.24,7.19-4.47Z"/>
        <path class="cls-5" d="M1004.88,497.34l7.15-4.47.17.24-4.53,11.8c-.85,4.1-1.7,8.21-2.56,12.31-.95-4.08-1.9-8.17-2.85-12.25l-4.8-11.69.12-.25,7.3,4.3Z"/>
      </g>
      <g>
        <line class="cls-13" x1="1048.36" y1="421.25" x2="1049.29" y2="500.93"/>
        <path class="cls-5" d="M1048.4,424.84l7.26,4.3.16-.25-4.8-11.69c-.95-4.08-1.9-8.17-2.85-12.25-.85,4.1-1.7,8.21-2.56,12.31l-4.53,11.8.13.24,7.19-4.47Z"/>
        <path class="cls-5" d="M1049.25,497.34l7.15-4.47.17.24-4.53,11.8c-.85,4.1-1.7,8.21-2.56,12.31-.95-4.08-1.9-8.17-2.85-12.25l-4.8-11.69.12-.25,7.3,4.3Z"/>
      </g>
      <g>
        <line class="cls-13" x1="959.61" y1="420.07" x2="960.55" y2="499.75"/>
        <path class="cls-5" d="M959.65,423.66l7.26,4.3.16-.25-4.8-11.69c-.95-4.08-1.9-8.17-2.85-12.25-.85,4.1-1.7,8.21-2.56,12.31l-4.53,11.8.13.24,7.19-4.47Z"/>
        <path class="cls-5" d="M960.51,496.16l7.15-4.47.17.24-4.53,11.8c-.85,4.1-1.7,8.21-2.56,12.31-.95-4.08-1.9-8.17-2.85-12.25l-4.8-11.69.12-.25,7.3,4.3Z"/>
      </g>
    </g>
    <text class="cls-2" transform="translate(962.47 305.8)"><tspan x="0" y="0">CPU</tspan></text>
    <text class="cls-1" transform="translate(727.61 536.86)"><tspan x="0" y="0">PCIE</tspan></text>
  </g>
</svg>