<?xml version="1.0" encoding="UTF-8"?>
<svg id="_图层_2" data-name="图层 2" xmlns="http://www.w3.org/2000/svg" viewBox="0 0 906.62 716.04">
  <defs>
    <style>
      .cls-1 {
        font-size: 24px;
      }

      .cls-1, .cls-2, .cls-3 {
        font-family: Consolas-Bold, Consolas;
        font-weight: 700;
      }

      .cls-4 {
        fill: #e6e6e6;
      }

      .cls-4, .cls-5 {
        stroke: #000;
        stroke-miterlimit: 10;
      }

      .cls-6, .cls-7, .cls-8, .cls-9, .cls-10, .cls-11, .cls-12 {
        stroke-width: 0px;
      }

      .cls-7 {
        fill: #73b3dd;
      }

      .cls-5 {
        fill: none;
        stroke-width: 2px;
      }

      .cls-8 {
        fill: #ed7d31;
      }

      .cls-9 {
        fill: #70ad47;
      }

      .cls-10 {
        fill: #f2f2f2;
      }

      .cls-11 {
        fill: #205867;
      }

      .cls-2 {
        fill: #fff;
        font-size: 18px;
      }

      .cls-3 {
        font-size: 21px;
      }

      .cls-12 {
        fill: #f18712;
      }
    </style>
  </defs>
  <g id="cuda内存结构">
    <rect class="cls-10" x="735.54" y="494.94" width="171.08" height="219.77"/>
    <rect class="cls-10" width="653.28" height="716.04"/>
    <rect class="cls-4" x="72.44" y="50.2" width="529.76" height="356.7"/>
    <g>
      <circle class="cls-6" cx="289.93" cy="279.02" r="5.46"/>
      <circle class="cls-6" cx="387.14" cy="279.02" r="5.46"/>
      <circle class="cls-6" cx="354.73" cy="279.02" r="5.46"/>
      <circle class="cls-6" cx="322.33" cy="279.02" r="5.46"/>
      <g>
        <rect class="cls-7" x="93.88" y="99.07" width="489.3" height="54.17"/>
        <text class="cls-2" transform="translate(274.21 130.85)"><tspan x="0" y="0">Shared Memory</tspan></text>
      </g>
      <g>
        <g>
          <rect class="cls-11" x="93.88" y="182.99" width="99.6" height="44.26"/>
          <text class="cls-2" transform="translate(100.87 209.82)"><tspan x="0" y="0">Registers</tspan></text>
        </g>
        <g>
          <rect class="cls-9" x="93.88" y="256.89" width="169.1" height="44.26"/>
          <text class="cls-2" transform="translate(139.86 283.66)"><tspan x="0" y="0">Thread 0</tspan></text>
        </g>
        <g>
          <rect class="cls-12" x="91.45" y="331.19" width="103.05" height="41.61"/>
          <text class="cls-2" transform="translate(113.29 345.91)"><tspan x="0" y="0">Local </tspan><tspan x="0" y="21.6">Memory</tspan></text>
        </g>
        <g>
          <line class="cls-5" x1="142.98" y1="307.18" x2="142.98" y2="325.16"/>
          <path class="cls-6" d="M142.98,301.15c-1.05,2.84-2.85,6.36-4.76,8.55l4.76-1.72,4.75,1.72c-1.9-2.18-3.7-5.71-4.75-8.55Z"/>
          <path class="cls-6" d="M142.98,331.19c-1.05-2.84-2.85-6.36-4.76-8.55l4.76,1.72,4.75-1.72c-1.9,2.18-3.7,5.71-4.75,8.55Z"/>
        </g>
        <g>
          <line class="cls-5" x1="239.03" y1="162.96" x2="239.03" y2="248.85"/>
          <path class="cls-6" d="M239.03,154.51c-1.48,3.98-3.99,8.91-6.66,11.97l6.66-2.41,6.66,2.41c-2.67-3.06-5.18-7.99-6.66-11.97Z"/>
          <path class="cls-6" d="M239.03,257.29c-1.48-3.98-3.99-8.91-6.66-11.97l6.66,2.41,6.66-2.41c-2.67,3.06-5.18,7.99-6.66,11.97Z"/>
        </g>
        <g>
          <line class="cls-5" x1="207.99" y1="309.06" x2="207.99" y2="394.95"/>
          <path class="cls-6" d="M207.99,300.61c-1.48,3.98-3.99,8.91-6.66,11.97l6.66-2.41,6.66,2.41c-2.67-3.06-5.18-7.99-6.66-11.97Z"/>
          <path class="cls-6" d="M207.99,403.4c-1.48-3.98-3.99-8.91-6.66-11.97l6.66,2.41,6.66-2.41c-2.67,3.06-5.18,7.99-6.66,11.97Z"/>
        </g>
        <g>
          <line class="cls-5" x1="230.12" y1="309.19" x2="230.12" y2="395.08"/>
          <path class="cls-6" d="M230.12,300.74c-1.48,3.98-3.99,8.91-6.66,11.97l6.66-2.41,6.66,2.41c-2.67-3.06-5.18-7.99-6.66-11.97Z"/>
          <path class="cls-6" d="M230.12,403.53c-1.48-3.98-3.99-8.91-6.66-11.97l6.66,2.41,6.66-2.41c-2.67,3.06-5.18,7.99-6.66,11.97Z"/>
        </g>
        <g>
          <line class="cls-5" x1="252.25" y1="309.06" x2="252.25" y2="394.95"/>
          <path class="cls-6" d="M252.25,300.61c-1.48,3.98-3.99,8.91-6.66,11.97l6.66-2.41,6.66,2.41c-2.67-3.06-5.18-7.99-6.66-11.97Z"/>
          <path class="cls-6" d="M252.25,403.4c-1.48-3.98-3.99-8.91-6.66-11.97l6.66,2.41,6.66-2.41c-2.67,3.06-5.18,7.99-6.66,11.97Z"/>
        </g>
        <g>
          <line class="cls-5" x1="143.68" y1="233.08" x2="143.68" y2="251.06"/>
          <path class="cls-6" d="M143.68,227.04c-1.05,2.84-2.85,6.36-4.76,8.55l4.76-1.72,4.75,1.72c-1.9-2.18-3.7-5.71-4.75-8.55Z"/>
          <path class="cls-6" d="M143.68,257.09c-1.05-2.84-2.85-6.36-4.76-8.55l4.76,1.72,4.75-1.72c-1.9,2.18-3.7,5.71-4.75,8.55Z"/>
        </g>
      </g>
      <g>
        <g>
          <rect class="cls-11" x="414.08" y="182.99" width="99.6" height="44.26"/>
          <text class="cls-2" transform="translate(421.07 209.82)"><tspan x="0" y="0">Registers</tspan></text>
        </g>
        <g>
          <rect class="cls-9" x="414.08" y="256.89" width="169.1" height="44.26"/>
          <text class="cls-2" transform="translate(460.07 283.66)"><tspan x="0" y="0">Thread 0</tspan></text>
        </g>
        <g>
          <rect class="cls-12" x="411.66" y="331.19" width="103.05" height="41.61"/>
          <text class="cls-2" transform="translate(433.49 345.91)"><tspan x="0" y="0">Local </tspan><tspan x="0" y="21.6">Memory</tspan></text>
        </g>
        <g>
          <line class="cls-5" x1="463.18" y1="307.18" x2="463.18" y2="325.16"/>
          <path class="cls-6" d="M463.18,301.15c-1.05,2.84-2.85,6.36-4.76,8.55l4.76-1.72,4.75,1.72c-1.9-2.18-3.7-5.71-4.75-8.55Z"/>
          <path class="cls-6" d="M463.18,331.19c-1.05-2.84-2.85-6.36-4.76-8.55l4.76,1.72,4.75-1.72c-1.9,2.18-3.7,5.71-4.75,8.55Z"/>
        </g>
        <g>
          <line class="cls-5" x1="559.24" y1="162.96" x2="559.24" y2="248.85"/>
          <path class="cls-6" d="M559.24,154.51c-1.48,3.98-3.99,8.91-6.66,11.97l6.66-2.41,6.66,2.41c-2.67-3.06-5.18-7.99-6.66-11.97Z"/>
          <path class="cls-6" d="M559.24,257.29c-1.48-3.98-3.99-8.91-6.66-11.97l6.66,2.41,6.66-2.41c-2.67,3.06-5.18,7.99-6.66,11.97Z"/>
        </g>
        <g>
          <line class="cls-5" x1="528.19" y1="309.06" x2="528.19" y2="394.95"/>
          <path class="cls-6" d="M528.19,300.61c-1.48,3.98-3.99,8.91-6.66,11.97l6.66-2.41,6.66,2.41c-2.67-3.06-5.18-7.99-6.66-11.97Z"/>
          <path class="cls-6" d="M528.19,403.4c-1.48-3.98-3.99-8.91-6.66-11.97l6.66,2.41,6.66-2.41c-2.67,3.06-5.18,7.99-6.66,11.97Z"/>
        </g>
        <g>
          <line class="cls-5" x1="550.32" y1="309.19" x2="550.32" y2="395.08"/>
          <path class="cls-6" d="M550.32,300.74c-1.48,3.98-3.99,8.91-6.66,11.97l6.66-2.41,6.66,2.41c-2.67-3.06-5.18-7.99-6.66-11.97Z"/>
          <path class="cls-6" d="M550.32,403.53c-1.48-3.98-3.99-8.91-6.66-11.97l6.66,2.41,6.66-2.41c-2.67,3.06-5.18,7.99-6.66,11.97Z"/>
        </g>
        <g>
          <line class="cls-5" x1="572.45" y1="309.06" x2="572.45" y2="394.95"/>
          <path class="cls-6" d="M572.45,300.61c-1.48,3.98-3.99,8.91-6.66,11.97l6.66-2.41,6.66,2.41c-2.67-3.06-5.18-7.99-6.66-11.97Z"/>
          <path class="cls-6" d="M572.45,403.4c-1.48-3.98-3.99-8.91-6.66-11.97l6.66,2.41,6.66-2.41c-2.67,3.06-5.18,7.99-6.66,11.97Z"/>
        </g>
        <g>
          <line class="cls-5" x1="463.89" y1="233.08" x2="463.89" y2="251.06"/>
          <path class="cls-6" d="M463.89,227.04c-1.05,2.84-2.85,6.36-4.76,8.55l4.76-1.72,4.75,1.72c-1.9-2.18-3.7-5.71-4.75-8.55Z"/>
          <path class="cls-6" d="M463.89,257.09c-1.05-2.84-2.85-6.36-4.76-8.55l4.76,1.72,4.75-1.72c-1.9,2.18-3.7,5.71-4.75,8.55Z"/>
        </g>
      </g>
    </g>
    <text class="cls-3" transform="translate(256.5 80.59)"><tspan x="0" y="0">Thread Block m</tspan></text>
    <rect class="cls-4" x="60.61" y="95.7" width="529.76" height="356.7"/>
    <g>
      <circle class="cls-6" cx="278.1" cy="324.51" r="5.46"/>
      <circle class="cls-6" cx="375.31" cy="324.51" r="5.46"/>
      <circle class="cls-6" cx="342.91" cy="324.51" r="5.46"/>
      <circle class="cls-6" cx="310.51" cy="324.51" r="5.46"/>
      <g>
        <rect class="cls-7" x="82.06" y="144.56" width="489.3" height="54.17"/>
        <text class="cls-2" transform="translate(262.38 176.35)"><tspan x="0" y="0">Shared Memory</tspan></text>
      </g>
      <g>
        <g>
          <rect class="cls-11" x="82.06" y="228.49" width="99.6" height="44.26"/>
          <text class="cls-2" transform="translate(89.04 255.32)"><tspan x="0" y="0">Registers</tspan></text>
        </g>
        <g>
          <rect class="cls-9" x="82.06" y="302.38" width="169.1" height="44.26"/>
          <text class="cls-2" transform="translate(128.04 329.16)"><tspan x="0" y="0">Thread 0</tspan></text>
        </g>
        <g>
          <rect class="cls-12" x="79.63" y="376.69" width="103.05" height="41.61"/>
          <text class="cls-2" transform="translate(101.46 391.4)"><tspan x="0" y="0">Local </tspan><tspan x="0" y="21.6">Memory</tspan></text>
        </g>
        <g>
          <line class="cls-5" x1="131.15" y1="352.68" x2="131.15" y2="370.65"/>
          <path class="cls-6" d="M131.15,346.64c-1.05,2.84-2.85,6.36-4.76,8.55l4.76-1.72,4.75,1.72c-1.9-2.18-3.7-5.71-4.75-8.55Z"/>
          <path class="cls-6" d="M131.15,376.69c-1.05-2.84-2.85-6.36-4.76-8.55l4.76,1.72,4.75-1.72c-1.9,2.18-3.7,5.71-4.75,8.55Z"/>
        </g>
        <g>
          <line class="cls-5" x1="227.21" y1="208.45" x2="227.21" y2="294.34"/>
          <path class="cls-6" d="M227.21,200c-1.48,3.98-3.99,8.91-6.66,11.97l6.66-2.41,6.66,2.41c-2.67-3.06-5.18-7.99-6.66-11.97Z"/>
          <path class="cls-6" d="M227.21,302.79c-1.48-3.98-3.99-8.91-6.66-11.97l6.66,2.41,6.66-2.41c-2.67,3.06-5.18,7.99-6.66,11.97Z"/>
        </g>
        <g>
          <line class="cls-5" x1="196.16" y1="354.55" x2="196.16" y2="440.44"/>
          <path class="cls-6" d="M196.16,346.1c-1.48,3.98-3.99,8.91-6.66,11.97l6.66-2.41,6.66,2.41c-2.67-3.06-5.18-7.99-6.66-11.97Z"/>
          <path class="cls-6" d="M196.16,448.89c-1.48-3.98-3.99-8.91-6.66-11.97l6.66,2.41,6.66-2.41c-2.67,3.06-5.18,7.99-6.66,11.97Z"/>
        </g>
        <g>
          <line class="cls-5" x1="218.29" y1="354.69" x2="218.29" y2="440.58"/>
          <path class="cls-6" d="M218.29,346.24c-1.48,3.98-3.99,8.91-6.66,11.97l6.66-2.41,6.66,2.41c-2.67-3.06-5.18-7.99-6.66-11.97Z"/>
          <path class="cls-6" d="M218.29,449.03c-1.48-3.98-3.99-8.91-6.66-11.97l6.66,2.41,6.66-2.41c-2.67,3.06-5.18,7.99-6.66,11.97Z"/>
        </g>
        <g>
          <line class="cls-5" x1="240.42" y1="354.55" x2="240.42" y2="440.44"/>
          <path class="cls-6" d="M240.42,346.1c-1.48,3.98-3.99,8.91-6.66,11.97l6.66-2.41,6.66,2.41c-2.67-3.06-5.18-7.99-6.66-11.97Z"/>
          <path class="cls-6" d="M240.42,448.89c-1.48-3.98-3.99-8.91-6.66-11.97l6.66,2.41,6.66-2.41c-2.67,3.06-5.18,7.99-6.66,11.97Z"/>
        </g>
        <g>
          <line class="cls-5" x1="131.86" y1="278.57" x2="131.86" y2="296.55"/>
          <path class="cls-6" d="M131.86,272.54c-1.05,2.84-2.85,6.36-4.76,8.55l4.76-1.72,4.75,1.72c-1.9-2.18-3.7-5.71-4.75-8.55Z"/>
          <path class="cls-6" d="M131.86,302.59c-1.05-2.84-2.85-6.36-4.76-8.55l4.76,1.72,4.75-1.72c-1.9,2.18-3.7,5.71-4.75,8.55Z"/>
        </g>
      </g>
      <g>
        <g>
          <rect class="cls-11" x="402.26" y="228.49" width="99.6" height="44.26"/>
          <text class="cls-2" transform="translate(409.25 255.32)"><tspan x="0" y="0">Registers</tspan></text>
        </g>
        <g>
          <rect class="cls-9" x="402.26" y="302.38" width="169.1" height="44.26"/>
          <text class="cls-2" transform="translate(448.24 329.16)"><tspan x="0" y="0">Thread 0</tspan></text>
        </g>
        <g>
          <rect class="cls-12" x="399.83" y="376.69" width="103.05" height="41.61"/>
          <text class="cls-2" transform="translate(421.67 391.4)"><tspan x="0" y="0">Local </tspan><tspan x="0" y="21.6">Memory</tspan></text>
        </g>
        <g>
          <line class="cls-5" x1="451.35" y1="352.68" x2="451.35" y2="370.65"/>
          <path class="cls-6" d="M451.35,346.64c-1.05,2.84-2.85,6.36-4.76,8.55l4.76-1.72,4.75,1.72c-1.9-2.18-3.7-5.71-4.75-8.55Z"/>
          <path class="cls-6" d="M451.35,376.69c-1.05-2.84-2.85-6.36-4.76-8.55l4.76,1.72,4.75-1.72c-1.9,2.18-3.7,5.71-4.75,8.55Z"/>
        </g>
        <g>
          <line class="cls-5" x1="547.41" y1="208.45" x2="547.41" y2="294.34"/>
          <path class="cls-6" d="M547.41,200c-1.48,3.98-3.99,8.91-6.66,11.97l6.66-2.41,6.66,2.41c-2.67-3.06-5.18-7.99-6.66-11.97Z"/>
          <path class="cls-6" d="M547.41,302.79c-1.48-3.98-3.99-8.91-6.66-11.97l6.66,2.41,6.66-2.41c-2.67,3.06-5.18,7.99-6.66,11.97Z"/>
        </g>
        <g>
          <line class="cls-5" x1="516.37" y1="354.55" x2="516.37" y2="440.44"/>
          <path class="cls-6" d="M516.37,346.1c-1.48,3.98-3.99,8.91-6.66,11.97l6.66-2.41,6.66,2.41c-2.67-3.06-5.18-7.99-6.66-11.97Z"/>
          <path class="cls-6" d="M516.37,448.89c-1.48-3.98-3.99-8.91-6.66-11.97l6.66,2.41,6.66-2.41c-2.67,3.06-5.18,7.99-6.66,11.97Z"/>
        </g>
        <g>
          <line class="cls-5" x1="538.5" y1="354.69" x2="538.5" y2="440.58"/>
          <path class="cls-6" d="M538.5,346.24c-1.48,3.98-3.99,8.91-6.66,11.97l6.66-2.41,6.66,2.41c-2.67-3.06-5.18-7.99-6.66-11.97Z"/>
          <path class="cls-6" d="M538.5,449.03c-1.48-3.98-3.99-8.91-6.66-11.97l6.66,2.41,6.66-2.41c-2.67,3.06-5.18,7.99-6.66,11.97Z"/>
        </g>
        <g>
          <line class="cls-5" x1="560.62" y1="354.55" x2="560.62" y2="440.44"/>
          <path class="cls-6" d="M560.62,346.1c-1.48,3.98-3.99,8.91-6.66,11.97l6.66-2.41,6.66,2.41c-2.67-3.06-5.18-7.99-6.66-11.97Z"/>
          <path class="cls-6" d="M560.62,448.89c-1.48-3.98-3.99-8.91-6.66-11.97l6.66,2.41,6.66-2.41c-2.67,3.06-5.18,7.99-6.66,11.97Z"/>
        </g>
        <g>
          <line class="cls-5" x1="452.06" y1="278.57" x2="452.06" y2="296.55"/>
          <path class="cls-6" d="M452.06,272.54c-1.05,2.84-2.85,6.36-4.76,8.55l4.76-1.72,4.75,1.72c-1.9-2.18-3.7-5.71-4.75-8.55Z"/>
          <path class="cls-6" d="M452.06,302.59c-1.05-2.84-2.85-6.36-4.76-8.55l4.76,1.72,4.75-1.72c-1.9,2.18-3.7,5.71-4.75,8.55Z"/>
        </g>
      </g>
    </g>
    <rect class="cls-4" x="51.09" y="141.19" width="529.76" height="356.7"/>
    <circle class="cls-6" cx="268.57" cy="373.38" r="5.46"/>
    <circle class="cls-6" cx="365.79" cy="373.38" r="5.46"/>
    <circle class="cls-6" cx="333.38" cy="373.38" r="5.46"/>
    <circle class="cls-6" cx="300.98" cy="373.38" r="5.46"/>
    <g>
      <rect class="cls-7" x="72.53" y="193.42" width="489.3" height="54.17"/>
      <text class="cls-2" transform="translate(252.85 225.21)"><tspan x="0" y="0">Shared Memory</tspan></text>
    </g>
    <g>
      <rect class="cls-11" x="72.53" y="277.35" width="99.6" height="44.26"/>
      <text class="cls-2" transform="translate(79.52 304.18)"><tspan x="0" y="0">Registers</tspan></text>
    </g>
    <g>
      <rect class="cls-9" x="72.53" y="351.25" width="169.1" height="44.26"/>
      <text class="cls-2" transform="translate(118.51 378.02)"><tspan x="0" y="0">Thread 0</tspan></text>
    </g>
    <g>
      <rect class="cls-12" x="70.1" y="425.55" width="103.05" height="41.61"/>
      <text class="cls-2" transform="translate(91.93 440.26)"><tspan x="0" y="0">Local </tspan><tspan x="0" y="21.6">Memory</tspan></text>
    </g>
    <g>
      <line class="cls-5" x1="121.62" y1="401.54" x2="121.62" y2="419.52"/>
      <path class="cls-6" d="M121.62,395.5c-1.05,2.84-2.85,6.36-4.76,8.55l4.76-1.72,4.75,1.72c-1.9-2.18-3.7-5.71-4.75-8.55Z"/>
      <path class="cls-6" d="M121.62,425.55c-1.05-2.84-2.85-6.36-4.76-8.55l4.76,1.72,4.75-1.72c-1.9,2.18-3.7,5.71-4.75,8.55Z"/>
    </g>
    <g>
      <line class="cls-5" x1="217.68" y1="257.31" x2="217.68" y2="343.2"/>
      <path class="cls-6" d="M217.68,248.86c-1.48,3.98-3.99,8.91-6.66,11.97l6.66-2.41,6.66,2.41c-2.67-3.06-5.18-7.99-6.66-11.97Z"/>
      <path class="cls-6" d="M217.68,351.65c-1.48-3.98-3.99-8.91-6.66-11.97l6.66,2.41,6.66-2.41c-2.67,3.06-5.18,7.99-6.66,11.97Z"/>
    </g>
    <g>
      <line class="cls-5" x1="230.89" y1="403.42" x2="230.89" y2="526.03"/>
      <path class="cls-6" d="M230.89,394.97c-1.48,3.98-3.99,8.91-6.66,11.97l6.66-2.41,6.66,2.41c-2.67-3.06-5.18-7.99-6.66-11.97Z"/>
    </g>
    <g>
      <line class="cls-5" x1="122.33" y1="327.44" x2="122.33" y2="345.42"/>
      <path class="cls-6" d="M122.33,321.4c-1.05,2.84-2.85,6.36-4.76,8.55l4.76-1.72,4.75,1.72c-1.9-2.18-3.7-5.71-4.75-8.55Z"/>
      <path class="cls-6" d="M122.33,351.45c-1.05-2.84-2.85-6.36-4.76-8.55l4.76,1.72,4.75-1.72c-1.9,2.18-3.7,5.71-4.75,8.55Z"/>
    </g>
    <g>
      <rect class="cls-11" x="392.73" y="277.35" width="99.6" height="44.26"/>
      <text class="cls-2" transform="translate(399.72 304.18)"><tspan x="0" y="0">Registers</tspan></text>
    </g>
    <g>
      <rect class="cls-9" x="392.73" y="351.25" width="169.1" height="44.26"/>
      <text class="cls-2" transform="translate(438.71 378.02)"><tspan x="0" y="0">Thread n</tspan></text>
    </g>
    <g>
      <rect class="cls-12" x="390.3" y="425.55" width="103.05" height="41.61"/>
      <text class="cls-2" transform="translate(412.14 440.26)"><tspan x="0" y="0">Local </tspan><tspan x="0" y="21.6">Memory</tspan></text>
    </g>
    <g>
      <line class="cls-5" x1="441.83" y1="401.54" x2="441.83" y2="419.52"/>
      <path class="cls-6" d="M441.83,395.5c-1.05,2.84-2.85,6.36-4.76,8.55l4.76-1.72,4.75,1.72c-1.9-2.18-3.7-5.71-4.75-8.55Z"/>
      <path class="cls-6" d="M441.83,425.55c-1.05-2.84-2.85-6.36-4.76-8.55l4.76,1.72,4.75-1.72c-1.9,2.18-3.7,5.71-4.75,8.55Z"/>
    </g>
    <g>
      <line class="cls-5" x1="537.88" y1="257.31" x2="537.88" y2="343.2"/>
      <path class="cls-6" d="M537.88,248.86c-1.48,3.98-3.99,8.91-6.66,11.97l6.66-2.41,6.66,2.41c-2.67-3.06-5.18-7.99-6.66-11.97Z"/>
      <path class="cls-6" d="M537.88,351.65c-1.48-3.98-3.99-8.91-6.66-11.97l6.66,2.41,6.66-2.41c-2.67,3.06-5.18,7.99-6.66,11.97Z"/>
    </g>
    <g>
      <line class="cls-5" x1="551.1" y1="403.42" x2="551.1" y2="526.03"/>
      <path class="cls-6" d="M551.1,394.97c-1.48,3.98-3.99,8.91-6.66,11.97l6.66-2.41,6.66,2.41c-2.67-3.06-5.18-7.99-6.66-11.97Z"/>
    </g>
    <g>
      <line class="cls-5" x1="442.53" y1="327.44" x2="442.53" y2="345.42"/>
      <path class="cls-6" d="M442.53,321.4c-1.05,2.84-2.85,6.36-4.76,8.55l4.76-1.72,4.75,1.72c-1.9-2.18-3.7-5.71-4.75-8.55Z"/>
      <path class="cls-6" d="M442.53,351.45c-1.05-2.84-2.85-6.36-4.76-8.55l4.76,1.72,4.75-1.72c-1.9,2.18-3.7,5.71-4.75,8.55Z"/>
    </g>
    <circle class="cls-6" cx="276.45" cy="121.92" r="5.46"/>
    <circle class="cls-6" cx="308.86" cy="121.92" r="5.46"/>
    <circle class="cls-6" cx="338.53" cy="121.92" r="5.46"/>
    <text class="cls-3" transform="translate(235.14 171.58)"><tspan x="0" y="0">Thread Block 0</tspan></text>
    <text class="cls-1" transform="translate(275.07 28.36)"><tspan x="0" y="0">Grid</tspan></text>
    <g>
      <rect class="cls-8" x="51.09" y="660.69" width="551.11" height="42.28"/>
      <text class="cls-2" transform="translate(262.32 686.54)"><tspan x="0" y="0">Global Memory</tspan></text>
    </g>
    <g>
      <rect class="cls-8" x="51.09" y="590.77" width="551.11" height="42.28"/>
      <text class="cls-2" transform="translate(257.37 616.61)"><tspan x="0" y="0">Texture Memory</tspan></text>
    </g>
    <g>
      <rect class="cls-8" x="49.94" y="526.03" width="551.11" height="42.28"/>
      <text class="cls-2" transform="translate(254.89 551.87)"><tspan x="0" y="0">Constant Memory</tspan></text>
    </g>
    <g>
      <line class="cls-5" x1="186.64" y1="403.42" x2="186.64" y2="652.24"/>
      <path class="cls-6" d="M186.64,394.97c-1.48,3.98-3.99,8.91-6.66,11.97l6.66-2.41,6.66,2.41c-2.67-3.06-5.18-7.99-6.66-11.97Z"/>
      <path class="cls-6" d="M186.64,660.69c-1.48-3.98-3.99-8.91-6.66-11.97l6.66,2.41,6.66-2.41c-2.67,3.06-5.18,7.99-6.66,11.97Z"/>
    </g>
    <g>
      <line class="cls-5" x1="208.76" y1="403.55" x2="208.76" y2="590.77"/>
      <path class="cls-6" d="M208.76,395.1c-1.48,3.98-3.99,8.91-6.66,11.97l6.66-2.41,6.66,2.41c-2.67-3.06-5.18-7.99-6.66-11.97Z"/>
    </g>
    <g>
      <line class="cls-5" x1="506.84" y1="403.42" x2="506.84" y2="652.24"/>
      <path class="cls-6" d="M506.84,394.97c-1.48,3.98-3.99,8.91-6.66,11.97l6.66-2.41,6.66,2.41c-2.67-3.06-5.18-7.99-6.66-11.97Z"/>
      <path class="cls-6" d="M506.84,660.69c-1.48-3.98-3.99-8.91-6.66-11.97l6.66,2.41,6.66-2.41c-2.67,3.06-5.18,7.99-6.66,11.97Z"/>
    </g>
    <g>
      <line class="cls-5" x1="528.97" y1="403.55" x2="528.97" y2="590.77"/>
      <path class="cls-6" d="M528.97,395.1c-1.48,3.98-3.99,8.91-6.66,11.97l6.66-2.41,6.66,2.41c-2.67-3.06-5.18-7.99-6.66-11.97Z"/>
    </g>
    <text class="cls-1" transform="translate(794.69 611.09)"><tspan x="0" y="0">Host</tspan></text>
    <g>
      <line class="cls-5" x1="727.09" y1="544.34" x2="610.65" y2="544.34"/>
      <path class="cls-6" d="M735.54,544.34c-3.98-1.48-8.91-3.99-11.97-6.66l2.41,6.66-2.41,6.66c3.06-2.67,7.99-5.18,11.97-6.66Z"/>
      <path class="cls-6" d="M602.2,544.34c3.98-1.48,8.91-3.99,11.97-6.66l-2.41,6.66,2.41,6.66c-3.06-2.67-7.99-5.18-11.97-6.66Z"/>
    </g>
    <g>
      <line class="cls-5" x1="727.09" y1="614.5" x2="610.65" y2="614.5"/>
      <path class="cls-6" d="M735.54,614.5c-3.98-1.48-8.91-3.99-11.97-6.66l2.41,6.66-2.41,6.66c3.06-2.67,7.99-5.18,11.97-6.66Z"/>
      <path class="cls-6" d="M602.2,614.5c3.98-1.48,8.91-3.99,11.97-6.66l-2.41,6.66,2.41,6.66c-3.06-2.67-7.99-5.18-11.97-6.66Z"/>
    </g>
    <g>
      <line class="cls-5" x1="727.09" y1="681.83" x2="610.65" y2="681.83"/>
      <path class="cls-6" d="M735.54,681.83c-3.98-1.48-8.91-3.99-11.97-6.66l2.41,6.66-2.41,6.66c3.06-2.67,7.99-5.18,11.97-6.66Z"/>
      <path class="cls-6" d="M602.2,681.83c3.98-1.48,8.91-3.99,11.97-6.66l-2.41,6.66,2.41,6.66c-3.06-2.67-7.99-5.18-11.97-6.66Z"/>
    </g>
  </g>
</svg>