<svg width="3965" height="1784" xmlns="http://www.w3.org/2000/svg" xmlns:xlink="http://www.w3.org/1999/xlink" overflow="hidden"><defs><clipPath id="clip0"><rect x="197" y="459" width="3965" height="1784"/></clipPath><clipPath id="clip1"><rect x="1518" y="-15" width="441" height="2427"/></clipPath><clipPath id="clip2"><rect x="2837" y="-15" width="441" height="2427"/></clipPath><clipPath id="clip3"><rect x="2397" y="1029" width="441" height="1213"/></clipPath><clipPath id="clip4"><rect x="2837" y="1231" width="441" height="809"/></clipPath><clipPath id="clip5"><rect x="3277" y="827" width="440" height="1618"/></clipPath><clipPath id="clip6"><rect x="3716" y="827" width="441" height="1618"/></clipPath></defs><g clip-path="url(#clip0)" transform="translate(-197 -459)"><path d="M199.85 461.546 639.476 461.546 639.476 632.352 199.85 632.352Z" fill="#91D150" fill-rule="evenodd"/><path d="M639.476 461.546 1079.1 461.546 1079.1 632.352 639.476 632.352Z" fill="#91D150" fill-rule="evenodd"/><path d="M1079.1 461.546 1518.73 461.546 1518.73 632.352 1079.1 632.352Z" fill="#91D150" fill-rule="evenodd"/><path d="M1518.73 461.546 1958.35 461.546 1958.35 632.352 1518.73 632.352Z" fill="#91D150" fill-rule="evenodd"/><path d="M1958.35 461.546 2397.98 461.546 2397.98 632.352 1958.35 632.352Z" fill="#91D150" fill-rule="evenodd"/><path d="M2397.98 461.546 2837.61 461.546 2837.61 632.352 2397.98 632.352Z" fill="#91D150" fill-rule="evenodd"/><path d="M2837.61 461.546 3277.23 461.546 3277.23 632.352 2837.61 632.352Z" fill="#91D150" fill-rule="evenodd"/><path d="M3277.23 461.546 3716.86 461.546 3716.86 632.352 3277.23 632.352Z" fill="#91D150" fill-rule="evenodd"/><path d="M3716.86 461.546 4156.48 461.546 4156.48 632.352 3716.86 632.352Z" fill="#91D150" fill-rule="evenodd"/><path d="M639.476 459.254 639.476 2240.38" stroke="#91D150" stroke-width="4.58333" stroke-linejoin="round" stroke-miterlimit="10" fill="none" fill-rule="evenodd"/><path d="M1079.1 459.254 1079.1 2240.38" stroke="#91D150" stroke-width="4.58333" stroke-linejoin="round" stroke-miterlimit="10" fill="none" fill-rule="evenodd"/><path d="M1518.73 459.254 1518.73 2240.38" stroke="#91D150" stroke-width="4.58333" stroke-linejoin="round" stroke-miterlimit="10" fill="none" fill-rule="evenodd"/><path d="M1958.35 459.254 1958.35 2240.38" stroke="#91D150" stroke-width="4.58333" stroke-linejoin="round" stroke-miterlimit="10" fill="none" fill-rule="evenodd"/><path d="M2397.98 459.254 2397.98 2240.38" stroke="#91D150" stroke-width="4.58333" stroke-linejoin="round" stroke-miterlimit="10" fill="none" fill-rule="evenodd"/><path d="M2837.61 459.254 2837.61 2240.38" stroke="#91D150" stroke-width="4.58333" stroke-linejoin="round" stroke-miterlimit="10" fill="none" fill-rule="evenodd"/><path d="M3277.23 459.254 3277.23 2240.38" stroke="#91D150" stroke-width="4.58333" stroke-linejoin="round" stroke-miterlimit="10" fill="none" fill-rule="evenodd"/><path d="M3716.86 459.254 3716.86 2240.38" stroke="#91D150" stroke-width="4.58333" stroke-linejoin="round" stroke-miterlimit="10" fill="none" fill-rule="evenodd"/><path d="M197.558 632.352 4158.78 632.352" stroke="#91D150" stroke-width="4.58333" stroke-linejoin="round" stroke-miterlimit="10" fill="none" fill-rule="evenodd"/><path d="M197.558 803.157 4158.78 803.157" stroke="#91D150" stroke-width="4.58333" stroke-linejoin="round" stroke-miterlimit="10" fill="none" fill-rule="evenodd"/><path d="M197.558 1003.62 4158.78 1003.62" stroke="#91D150" stroke-width="4.58333" stroke-linejoin="round" stroke-miterlimit="10" fill="none" fill-rule="evenodd"/><path d="M197.558 1393.42 4158.78 1393.42" stroke="#91D150" stroke-width="4.58333" stroke-linejoin="round" stroke-miterlimit="10" fill="none" fill-rule="evenodd"/><path d="M197.558 1877.76 4158.78 1877.76" stroke="#91D150" stroke-width="4.58333" stroke-linejoin="round" stroke-miterlimit="10" fill="none" fill-rule="evenodd"/><path d="M197.558 2067.29 4158.78 2067.29" stroke="#91D150" stroke-width="4.58333" stroke-linejoin="round" stroke-miterlimit="10" fill="none" fill-rule="evenodd"/><path d="M199.85 459.254 199.85 2240.38" stroke="#91D150" stroke-width="4.58333" stroke-linejoin="round" stroke-miterlimit="10" fill="none" fill-rule="evenodd"/><path d="M4156.48 459.254 4156.48 2240.38" stroke="#91D150" stroke-width="4.58333" stroke-linejoin="round" stroke-miterlimit="10" fill="none" fill-rule="evenodd"/><path d="M197.558 461.546 4158.78 461.546" stroke="#91D150" stroke-width="4.58333" stroke-linejoin="round" stroke-miterlimit="10" fill="none" fill-rule="evenodd"/><path d="M197.558 2238.09 4158.78 2238.09" stroke="#91D150" stroke-width="4.58333" stroke-linejoin="round" stroke-miterlimit="10" fill="none" fill-rule="evenodd"/><text fill="#FFFFFF" font-family="Microsoft YaHei,Microsoft YaHei_MSFontService,sans-serif" font-weight="700" font-size="55" transform="matrix(1 0 0 1 232.85 567)">架构名称<tspan font-family="Arial,Arial_MSFontService,sans-serif" font-size="64" x="539.069" y="3">Fermi</tspan><tspan font-family="Arial,Arial_MSFontService,sans-serif" font-size="64" x="966.378" y="3">Kepler</tspan><tspan font-family="Arial,Arial_MSFontService,sans-serif" font-size="64" x="1383.09" y="3">Maxwell</tspan><tspan font-family="Arial,Arial_MSFontService,sans-serif" font-size="64" x="1843.91" y="3">Pascal</tspan><tspan font-family="Arial,Arial_MSFontService,sans-serif" font-size="64" x="2309.12" y="3">Volta</tspan><tspan font-family="Arial,Arial_MSFontService,sans-serif" font-size="64" x="2727.55" y="3">Turing</tspan><tspan font-family="Arial,Arial_MSFontService,sans-serif" font-size="64" x="3144.74" y="3">Ampere</tspan><tspan font-family="Arial,Arial_MSFontService,sans-serif" font-size="64" x="3591.82" y="3">Hopper</tspan><tspan fill="#374154" font-size="55" x="0" y="171">中文名字</tspan><tspan fill="#374154" font-weight="400" font-size="48" x="578.314" y="168">费米</tspan><tspan fill="#374154" font-weight="400" font-size="48" x="993.878" y="168">开普勒</tspan><tspan fill="#374154" font-weight="400" font-size="48" x="1409.44" y="168">麦克斯韦</tspan><tspan fill="#374154" font-weight="400" font-size="48" x="1873.13" y="168">帕斯卡</tspan><tspan fill="#374154" font-weight="400" font-size="48" x="2336.82" y="168">伏特</tspan><tspan fill="#374154" font-weight="400" font-size="48" x="2776.44" y="168">图灵</tspan><tspan fill="#374154" font-weight="400" font-size="48" x="3216.07" y="168">安培</tspan><tspan fill="#374154" font-weight="400" font-size="48" x="3655.7" y="168">赫柏</tspan><tspan fill="#374154" font-size="55" x="0" y="356">发布时间</tspan><tspan fill="#374154" font-weight="400" font-size="48" x="570.293" y="354">2010</tspan><tspan fill="#374154" font-weight="400" font-size="48" x="1009.92" y="354">2012</tspan><tspan fill="#374154" font-weight="400" font-size="48" x="1449.55" y="354">2014</tspan><tspan fill="#374154" font-weight="400" font-size="48" x="1889.17" y="354">2016</tspan><tspan fill="#374154" font-weight="400" font-size="48" x="2328.8" y="354">2017</tspan><tspan fill="#374154" font-weight="400" font-size="48" x="2768.42" y="354">2018</tspan><tspan fill="#374154" font-weight="400" font-size="48" x="3208.05" y="354">2020</tspan><tspan fill="#374154" font-weight="400" font-size="48" x="3647.68" y="354">2022</tspan><tspan fill="#374154" font-size="55" x="0" y="652">核心参数</tspan><tspan fill="#374154" font-weight="400" font-size="48" x="439.626" y="562">16</tspan><tspan fill="#374154" font-weight="400" font-size="48" x="495.772" y="562">个</tspan><tspan fill="#374154" font-weight="400" font-size="48" x="543.897" y="562">SM</tspan><tspan fill="#374154" font-weight="400" font-size="48" x="618.376" y="562">，每个</tspan><tspan fill="#374154" font-weight="400" font-size="48" x="762.751" y="562">S</tspan><tspan fill="#374154" font-weight="400" font-size="48" x="439.626" y="620">M</tspan><tspan fill="#374154" font-weight="400" font-size="48" x="486.605" y="620">包含</tspan><tspan fill="#374154" font-weight="400" font-size="48" x="582.855" y="620">32</tspan><tspan fill="#374154" font-weight="400" font-size="48" x="639.001" y="620">个</tspan><tspan fill="#374154" font-weight="400" font-size="48" x="687.126" y="620">CUD</tspan><tspan fill="#374154" font-weight="400" font-size="48" x="439.626" y="678">A</tspan><tspan fill="#374154" font-weight="400" font-size="48" x="487.751" y="678">Cores</tspan><tspan fill="#374154" font-weight="400" font-size="48" x="618.376" y="678">，一共</tspan><tspan fill="#374154" font-weight="400" font-size="48" x="762.751" y="678">5</tspan><tspan fill="#374154" font-weight="400" font-size="48" x="439.626" y="736">12</tspan><tspan fill="#374154" font-weight="400" font-size="48" x="510.095" y="736">CUDA</tspan><tspan fill="#374154" font-weight="400" font-size="48" x="663.064" y="736">Cores</tspan><tspan fill="#374154" font-weight="400" font-size="48" x="879.252" y="562">15</tspan><tspan fill="#374154" font-weight="400" font-size="48" x="935.398" y="562">个</tspan><tspan fill="#374154" font-weight="400" font-size="48" x="983.523" y="562">SMX</tspan><tspan fill="#374154" font-weight="400" font-size="48" x="1088.94" y="562">，每个</tspan><tspan fill="#374154" font-weight="400" font-size="48" x="879.252" y="620">SMX</tspan><tspan fill="#374154" font-weight="400" font-size="48" x="984.669" y="620">包括</tspan><tspan fill="#374154" font-weight="400" font-size="48" x="1080.92" y="620">192</tspan><tspan fill="#374154" font-weight="400" font-size="48" x="1165.14" y="620">个</tspan><tspan fill="#374154" font-weight="400" font-size="48" x="1213.26" y="620">F</tspan><tspan fill="#374154" font-weight="400" font-size="48" x="879.252" y="678">P32+64</tspan><tspan fill="#374154" font-weight="400" font-size="48" x="1056.28" y="678">个</tspan><tspan fill="#374154" font-weight="400" font-size="48" x="1104.41" y="678">FP64</tspan><tspan fill="#374154" font-weight="400" font-size="48" x="879.252" y="736">CUDA</tspan><tspan fill="#374154" font-weight="400" font-size="48" x="1032.22" y="736">Cores</tspan><tspan fill="#374154" font-weight="400" font-size="48" x="1318.88" y="504">16</tspan><tspan fill="#374154" font-weight="400" font-size="48" x="1375.02" y="504">个</tspan><tspan fill="#374154" font-weight="400" font-size="48" x="1423.15" y="504">SM</tspan><tspan fill="#374154" font-weight="400" font-size="48" x="1497.63" y="504">，每个</tspan><tspan fill="#374154" font-weight="400" font-size="48" x="1642" y="504">S</tspan><tspan fill="#374154" font-weight="400" font-size="48" x="1318.88" y="562">M</tspan><tspan fill="#374154" font-weight="400" font-size="48" x="1365.86" y="562">包括</tspan><tspan fill="#374154" font-weight="400" font-size="48" x="1462.11" y="562">4</tspan></text><g clip-path="url(#clip1)"><text fill="#374154" font-family="Microsoft YaHei,Microsoft YaHei_MSFontService,sans-serif" font-weight="400" font-size="48" transform="matrix(1 0 0 1 1723.03 1129)">个处理块，</text></g><text fill="#374154" font-family="Microsoft YaHei,Microsoft YaHei_MSFontService,sans-serif" font-weight="400" font-size="48" transform="matrix(1 0 0 1 1551.73 1187)">每个处理块包括<tspan font-size="48" x="336.875" y="0">3</tspan><tspan font-size="48" x="0" y="58">2</tspan><tspan font-size="48" x="28.073" y="58">个</tspan><tspan font-size="48" x="76.198" y="58">CUDA</tspan><tspan font-size="48" x="229.167" y="58">Cores</tspan><tspan font-size="48" x="0" y="115">+8</tspan><tspan font-size="48" x="63.5938" y="115">个</tspan><tspan font-size="48" x="111.719" y="115">LD/ST</tspan><tspan font-size="48" x="262.969" y="115">Unit</tspan><tspan font-size="48" x="0" y="173">+</tspan><tspan font-size="48" x="49.8438" y="173">8</tspan><tspan font-size="48" x="92.2396" y="173">SFU</tspan><tspan font-size="48" x="439.626" y="-87">GP100</tspan><tspan font-size="48" x="588.585" y="-87">有</tspan>60<tspan font-size="48" x="692.855" y="-87">个</tspan>S<tspan font-size="48" x="439.626" y="-29">M</tspan><tspan font-size="48" x="486.605" y="-29">，每个</tspan><tspan font-size="48" x="630.98" y="-29">SM</tspan><tspan font-size="48" x="705.46" y="-29">包括</tspan><tspan font-size="48" x="439.626" y="29">64</tspan><tspan font-size="48" x="495.772" y="29">个</tspan>CUDA<tspan font-size="48" x="696.866" y="29">Core</tspan><tspan font-size="48" x="439.626" y="87">s</tspan>，<tspan font-size="48" x="510.095" y="87">32</tspan><tspan font-size="48" x="566.241" y="87">个</tspan>DP<tspan font-size="48" x="694.574" y="87">Core</tspan><tspan font-size="48" x="439.626" y="144">s</tspan><tspan font-size="48" x="879.252" y="-87">80</tspan><tspan font-size="48" x="935.398" y="-87">个</tspan>SM<tspan font-size="48" x="1058" y="-87">，每个</tspan>S<tspan font-size="48" x="879.252" y="-29">M</tspan><tspan font-size="48" x="926.232" y="-29">包括</tspan>32<tspan font-size="48" x="1078.63" y="-29">个</tspan>FP64<tspan font-size="48" x="879.252" y="29">+64</tspan><tspan font-size="48" x="985.242" y="29">Int32+64</tspan><tspan font-size="48" x="1209.25" y="29">F</tspan><tspan font-size="48" x="879.252" y="87">P32+8</tspan><tspan font-size="48" x="1028.21" y="87">个</tspan>Tensor<tspan font-size="48" x="879.252" y="144">Cores</tspan><tspan font-size="48" x="1318.88" y="-116">102</tspan>核心92个SM</text><g clip-path="url(#clip2)"><text fill="#374154" font-family="Microsoft YaHei,Microsoft YaHei_MSFontService,sans-serif" font-weight="400" font-size="48" transform="matrix(1 0 0 1 3229.82 1071)">，</text></g><text fill="#374154" font-family="Microsoft YaHei,Microsoft YaHei_MSFontService,sans-serif" font-weight="400" font-size="48" transform="matrix(1 0 0 1 2870.61 1129)">SM<tspan font-size="48" x="74.479" y="0">重新设计，每</tspan><tspan font-size="48" x="0" y="58">个</tspan><tspan font-size="48" x="48.125" y="58">SM</tspan><tspan font-size="48" x="122.604" y="58">包含</tspan><tspan font-size="48" x="218.854" y="58">64</tspan><tspan font-size="48" x="275" y="58">个</tspan>In<tspan font-size="48" x="0" y="116">t32+64</tspan><tspan font-size="48" x="165.573" y="116">个</tspan><tspan font-size="48" x="213.698" y="116">FP32+</tspan><tspan font-size="48" x="0" y="173">8</tspan><tspan font-size="48" x="28.0728" y="173">个</tspan><tspan font-size="48" x="76.1978" y="173">Tensor</tspan><tspan font-size="48" x="246.354" y="173">Core</tspan><tspan font-size="48" x="0" y="231">s</tspan><tspan font-size="48" x="439.626" y="-29">108</tspan>个SM<tspan font-size="48" x="646.449" y="-29">，每个</tspan><tspan font-size="48" x="439.626" y="29">SM</tspan><tspan font-size="48" x="514.105" y="29">包含</tspan>64<tspan font-size="48" x="666.501" y="29">个</tspan>FP3<tspan font-size="48" x="439.626" y="87">2+64</tspan><tspan font-size="48" x="559.366" y="87">个</tspan>INT32+3<tspan font-size="48" x="439.626" y="145">2</tspan><tspan font-size="48" x="467.699" y="145">个</tspan>FP64+4<tspan font-size="48" x="690.564" y="145">个</tspan>Te<tspan font-size="48" x="439.626" y="202">nsor</tspan><tspan font-size="48" x="554.782" y="202">Cores</tspan><tspan font-size="48" x="879.252" y="-29">132</tspan>个SM<tspan font-size="48" x="1086.08" y="-29">，每个</tspan><tspan font-size="48" x="879.252" y="29">SM</tspan><tspan font-size="48" x="953.731" y="29">包含</tspan>128个FP<tspan font-size="48" x="879.252" y="87">32+64</tspan>个INT32+<tspan font-size="48" x="879.252" y="145">64</tspan><tspan font-size="48" x="935.398" y="145">个</tspan>FP64+4<tspan font-size="48" x="1158.26" y="145">个</tspan>T<tspan font-size="48" x="879.252" y="202">ensor</tspan><tspan font-size="48" x="1021.91" y="202">Cores</tspan><tspan font-weight="700" font-size="55" x="-2637.76" y="527">特点</tspan><tspan font-weight="700" font-size="55" x="-2527.76" y="527">&amp;</tspan><tspan font-weight="700" font-size="55" x="-2477.91" y="527">优势</tspan><tspan font-size="48" x="-2198.13" y="379">首个完整</tspan>GPU计<tspan font-size="48" x="-2198.13" y="437">算架构，支持与</tspan><tspan font-size="48" x="-2198.13" y="495">共享存储结合的</tspan>C<tspan font-size="48" x="-2198.13" y="553">ache</tspan>层次<tspan font-size="48" x="-1994.17" y="553">GPU</tspan>架<tspan font-size="48" x="-2198.13" y="610">构，支持</tspan>ECC<tspan font-size="48" x="-1900.79" y="610">GP</tspan><tspan font-size="48" x="-2198.13" y="668">U</tspan>架构<tspan font-size="48" x="-1758.5" y="466">游戏性能大幅提</tspan><tspan font-size="48" x="-1758.5" y="524">升，首次支持</tspan><tspan font-size="48" x="-1469.75" y="524">GP</tspan><tspan font-size="48" x="-1758.5" y="582">U</tspan><tspan font-size="48" x="-1708.09" y="582">Direct</tspan><tspan font-size="48" x="-1571.16" y="582">技术</tspan><tspan font-size="48" x="-1318.88" y="408">每组</tspan>SM<tspan font-size="48" x="-1148.15" y="408">单元从</tspan>19<tspan font-size="48" x="-1318.88" y="466">2</tspan><tspan font-size="48" x="-1290.81" y="466">个减少到每组</tspan>12<tspan font-size="48" x="-1318.88" y="524">8</tspan><tspan font-size="48" x="-1290.81" y="524">个，每个</tspan>SMM<tspan font-size="48" x="-1318.88" y="582">单元拥有更多逻</tspan><tspan font-size="48" x="-1318.88" y="639">辑控制电路</tspan><tspan font-size="48" x="-879.252" y="437">NVLink</tspan><tspan font-size="48" x="-714.252" y="437">第一代，</tspan><tspan font-size="48" x="-879.252" y="495">双向互联带宽</tspan><tspan font-size="48" x="-590.502" y="495">160</tspan><tspan font-size="48" x="-879.252" y="553">GB/s</tspan><tspan font-size="48" x="-770.398" y="553">，</tspan><tspan font-size="48" x="-722.273" y="553">P100</tspan>拥有<tspan font-size="48" x="-879.252" y="611">56</tspan><tspan font-size="48" x="-823.107" y="611">个</tspan>SM<tspan font-size="48" x="-686.18" y="611">HBM</tspan><tspan font-size="48" x="-439.626" y="466">NVLink2.0</tspan><tspan font-size="48" x="-207.022" y="466">，</tspan><tspan font-size="48" x="-158.897" y="466">Ten</tspan><tspan font-size="48" x="-439.626" y="524">sor</tspan><tspan font-size="48" x="-354.262" y="524">Cores</tspan></text><g clip-path="url(#clip3)"><text fill="#374154" font-family="Microsoft YaHei,Microsoft YaHei_MSFontService,sans-serif" font-weight="400" font-size="48" transform="matrix(1 0 0 1 2646.97 1653)">第一代，</text></g><text fill="#374154" font-family="Microsoft YaHei,Microsoft YaHei_MSFontService,sans-serif" font-weight="400" font-size="48" transform="matrix(1 0 0 1 2430.98 1711)">支持<tspan font-size="48" x="96.25" y="0">AI</tspan>运算<tspan font-size="48" x="439.626" y="-87">Tensor</tspan><tspan font-size="48" x="609.783" y="-87">Core2.0</tspan></text><g clip-path="url(#clip4)"><text fill="#374154" font-family="Microsoft YaHei,Microsoft YaHei_MSFontService,sans-serif" font-weight="400" font-size="48" transform="matrix(1 0 0 1 3216.65 1624)">，</text></g><text fill="#374154" font-family="Microsoft YaHei,Microsoft YaHei_MSFontService,sans-serif" font-weight="400" font-size="48" transform="matrix(1 0 0 1 2870.61 1682)">RT<tspan font-size="48" x="73.3333" y="0">Core</tspan><tspan font-size="48" x="181.615" y="0">第一代</tspan><tspan font-size="48" x="439.626" y="-116">Tensor</tspan><tspan font-size="48" x="609.782" y="-116">Core3.0</tspan></text><g clip-path="url(#clip5)"><text fill="#374154" font-family="Microsoft YaHei,Microsoft YaHei_MSFontService,sans-serif" font-weight="400" font-size="48" transform="matrix(1 0 0 1 3656.27 1566)">，</text></g><text fill="#374154" font-family="Microsoft YaHei,Microsoft YaHei_MSFontService,sans-serif" font-weight="400" font-size="48" transform="matrix(1 0 0 1 3310.23 1624)">RT<tspan font-size="48" x="73.3333" y="0">Core2.0</tspan><tspan font-size="48" x="249.219" y="0">，</tspan>NV<tspan font-size="48" x="0" y="58">Link3.0</tspan><tspan font-size="48" x="160.99" y="58">，结构稀</tspan><tspan font-size="48" x="0" y="116">疏性矩阵</tspan><tspan font-size="48" x="192.5" y="116">MIG1.0</tspan><tspan font-size="48" x="439.626" y="-58">Tensor</tspan><tspan font-size="48" x="609.783" y="-58">Core4.0</tspan></text><g clip-path="url(#clip6)"><text fill="#374154" font-family="Microsoft YaHei,Microsoft YaHei_MSFontService,sans-serif" font-weight="400" font-size="48" transform="matrix(1 0 0 1 4095.9 1566)">，</text></g><text fill="#374154" font-family="Microsoft YaHei,Microsoft YaHei_MSFontService,sans-serif" font-weight="400" font-size="48" transform="matrix(1 0 0 1 3749.86 1624)">NVlink4.0<tspan font-size="48" x="220.573" y="0">，结构</tspan><tspan font-size="48" x="0" y="58">稀疏性矩阵</tspan><tspan font-size="48" x="240.625" y="58">MIG2.</tspan><tspan font-size="48" x="0" y="116">0</tspan><tspan font-weight="700" font-size="55" x="-3517.01" y="369">纳米制程</tspan><tspan font-size="48" x="-2994.57" y="337">40/28nm</tspan><tspan font-size="48" x="-3014.89" y="395">30</tspan>亿晶体管<tspan font-size="48" x="-2516.55" y="337">28nm</tspan><tspan font-size="48" x="-2575.27" y="395">71</tspan>亿晶体管<tspan font-size="48" x="-2076.93" y="337">28nm</tspan><tspan font-size="48" x="-2135.64" y="395">80</tspan><tspan font-size="48" x="-2079.49" y="395">亿晶体管</tspan><tspan font-size="48" x="-1637.29" y="337">16nm</tspan><tspan font-size="48" x="-1710.05" y="395">153</tspan><tspan font-size="48" x="-1625.83" y="395">亿晶体管</tspan><tspan font-size="48" x="-1197.66" y="337">12nm</tspan><tspan font-size="48" x="-1270.42" y="395">211</tspan>亿晶体管<tspan font-size="48" x="-758.038" y="337">12nm</tspan><tspan font-size="48" x="-830.799" y="395">186</tspan><tspan font-size="48" x="-746.58" y="395">亿晶体管</tspan><tspan font-size="48" x="-304.364" y="337">7nm</tspan><tspan font-size="48" x="-391.173" y="395">283</tspan><tspan font-size="48" x="-306.954" y="395">亿晶体管</tspan><tspan font-size="48" x="135.262" y="337">4nm</tspan><tspan font-size="48" x="48.4534" y="395">800</tspan><tspan font-size="48" x="132.672" y="395">亿晶体管</tspan><tspan font-weight="700" font-size="55" x="-3517.01" y="549">代表型号</tspan><tspan font-size="48" x="-3041.25" y="546">Quadro</tspan><tspan font-size="48" x="-2852.18" y="546">7000</tspan><tspan font-size="48" x="-2494.2" y="517">K80</tspan><tspan font-size="48" x="-2517.69" y="575">K40M</tspan><tspan font-size="48" x="-2177.75" y="517">M5000</tspan><tspan font-size="48" x="-2004.16" y="517">M4000</tspan><tspan font-size="48" x="-2158.55" y="575">GTX</tspan><tspan font-size="48" x="-2050.26" y="575">9XX</tspan><tspan font-size="48" x="-1960.32" y="575">系列</tspan><tspan font-size="48" x="-1706.33" y="517">P100</tspan><tspan font-size="48" x="-1578.57" y="517">P6000</tspan><tspan font-size="48" x="-1670.81" y="575">TTX1080</tspan><tspan font-size="48" x="-1190.5" y="517">V100</tspan><tspan font-size="48" x="-1217.43" y="575">TiTan</tspan><tspan font-size="48" x="-1079.36" y="575">V</tspan><tspan font-size="48" x="-821.346" y="517">T4</tspan><tspan font-size="48" x="-765.773" y="517">，</tspan>2080TI<tspan font-size="48" x="-800.721" y="575">RTX</tspan><tspan font-size="48" x="-696.45" y="575">5000</tspan><tspan font-size="48" x="-311.812" y="517">A100</tspan><tspan font-size="48" x="-345.912" y="575">A30</tspan><tspan font-size="48" x="-255.964" y="575">系列</tspan><tspan font-size="48" x="126.084" y="546">H100</tspan></text></g></svg>