<?xml version="1.0" encoding="UTF-8"?>
<svg id="_图层_2" data-name="图层 2" xmlns="http://www.w3.org/2000/svg" viewBox="0 0 1169.15 546.75">
  <defs>
    <style>
      .cls-1 {
        font-size: 20.55px;
      }

      .cls-1, .cls-2, .cls-3, .cls-4, .cls-5 {
        fill: #000;
      }

      .cls-1, .cls-3, .cls-6 {
        font-family: AdobeSongStd-Light-GBpc-EUC-H, 'Adobe Song Std';
        font-weight: 300;
      }

      .cls-7, .cls-2, .cls-8, .cls-9 {
        stroke-width: 0px;
      }

      .cls-7, .cls-10 {
        fill: #70ad47;
      }

      .cls-11 {
        stroke-width: 2px;
      }

      .cls-11, .cls-12, .cls-13, .cls-14, .cls-10 {
        stroke: #000;
        stroke-miterlimit: 10;
      }

      .cls-11, .cls-13 {
        fill: none;
      }

      .cls-15, .cls-4 {
        font-family: TimesNewRomanPSMT, 'Times New Roman';
      }

      .cls-3, .cls-4, .cls-5 {
        font-size: 18px;
      }

      .cls-8, .cls-14 {
        fill: #ffc000;
      }

      .cls-12, .cls-9 {
        fill: #73b3dd;
      }

      .cls-16 {
        letter-spacing: -.02em;
      }

      .cls-17 {
        letter-spacing: -.06em;
      }
    </style>
  </defs>
  <g id="DaVinci架构">
    <g>
      <g>
        <rect class="cls-12" x="148.59" y="32.66" width="83.22" height="266.24"/>
        <text class="cls-5"><tspan class="cls-6"><tspan x="172.2" y="150.7">通用</tspan></tspan><tspan class="cls-6"><tspan x="154.2" y="172.3">内部存储</tspan></tspan><tspan class="cls-15"><tspan x="154.62" y="193.9">L1 Bu</tspan><tspan class="cls-16" x="200.12" y="193.9">f</tspan><tspan x="205.79" y="193.9">fer</tspan></tspan></text>
      </g>
      <g>
        <rect class="cls-12" x="277.69" y="32.66" width="127.39" height="266.24"/>
        <text class="cls-5" transform="translate(287.38 165.78)"><tspan class="cls-6"><tspan x="0" y="0">存储转换引擎</tspan></tspan><tspan class="cls-15"><tspan x="35" y="21.6">MTE</tspan></tspan></text>
      </g>
      <g>
        <rect class="cls-10" x="673.05" y="38.97" width="145.04" height="113.93"/>
        <text class="cls-3" transform="translate(691.57 101.57)"><tspan x="0" y="0">矩阵计算单元</tspan></text>
      </g>
      <rect class="cls-12" x="984.86" y="32.66" width="146.99" height="113.93"/>
      <rect class="cls-10" x="810.8" y="184.97" width="321.05" height="66.2"/>
      <text class="cls-3" transform="translate(920.41 219.16)"><tspan x="0" y="0">向量计算单元</tspan></text>
      <g>
        <rect class="cls-10" x="816.44" y="226.04" width="107.01" height="25.22"/>
        <text class="cls-5" transform="translate(817.66 243.81)"><tspan class="cls-15" x="0" y="0">FP16</tspan><tspan class="cls-6" x="38.02" y="0">&lt;-&gt;</tspan><tspan class="cls-15" x="66.55" y="0">FP32</tspan></text>
      </g>
      <g>
        <rect class="cls-10" x="1054" y="226.04" width="68.17" height="25.22"/>
        <text class="cls-4" transform="translate(1066.08 243.64)"><tspan x="0" y="0">ReLU</tspan></text>
      </g>
      <g>
        <g>
          <rect class="cls-12" x="810.8" y="261.32" width="100" height="37.58"/>
          <text class="cls-3" transform="translate(815.8 285.74)"><tspan x="0" y="0">专用寄存器</tspan></text>
        </g>
        <g>
          <rect class="cls-10" x="910.8" y="261.32" width="121.66" height="37.58"/>
          <text class="cls-3" transform="translate(919.87 285.74)"><tspan x="0" y="0">标量计算单元</tspan></text>
        </g>
        <g>
          <rect class="cls-12" x="1032.45" y="261.32" width="99.39" height="37.58"/>
          <text class="cls-3" transform="translate(1041.3 285.74)"><tspan x="0" y="0">通用寄存器</tspan></text>
        </g>
      </g>
      <g>
        <rect class="cls-14" x="148.59" y="350.43" width="83.22" height="76.43"/>
        <text class="cls-3" transform="translate(172.2 372.68)"><tspan x="0" y="0">系统</tspan><tspan x="0" y="21.6">控制</tspan><tspan x="0" y="43.2">模块</tspan></text>
      </g>
      <g>
        <rect class="cls-14" x="290.27" y="350.43" width="83.22" height="76.43"/>
        <text class="cls-3" transform="translate(313.88 372.68)"><tspan x="0" y="0">总线</tspan><tspan x="0" y="21.6">接口</tspan><tspan x="0" y="43.2">单元</tspan></text>
      </g>
      <g>
        <rect class="cls-14" x="547.22" y="350.43" width="83.22" height="76.43"/>
        <text class="cls-3" transform="translate(553.94 383.48) scale(.97 1)"><tspan x="0" y="0">标量指令</tspan><tspan x="0" y="21.6">处理对列</tspan></text>
      </g>
      <g>
        <rect class="cls-12" x="414.34" y="350.43" width="83.22" height="76.43"/>
        <text class="cls-3" transform="translate(419.95 394.28)"><tspan x="0" y="0">指令缓存</tspan></text>
      </g>
      <g>
        <rect class="cls-14" x="680.1" y="350.43" width="83.22" height="76.43"/>
        <text class="cls-3" transform="translate(704.26 383.48) scale(.97 1)"><tspan x="0" y="0">指令</tspan><tspan x="-18" y="21.6">发射模块</tspan></text>
      </g>
      <g>
        <rect class="cls-14" x="1048.62" y="350.43" width="83.22" height="76.43"/>
        <text class="cls-3" transform="translate(1072.23 380.34)"><tspan x="0" y="0">事件</tspan><tspan x="-18" y="21.6">同步模块</tspan></text>
      </g>
      <g>
        <rect class="cls-14" x="812.98" y="350.43" width="185.99" height="20.69"/>
        <text class="cls-3" transform="translate(851.97 367.41)"><tspan x="0" y="0">矩阵运算队列</tspan></text>
      </g>
      <g>
        <rect class="cls-14" x="812.98" y="377.87" width="185.99" height="20.69"/>
        <text class="cls-3" transform="translate(851.97 394.85)"><tspan x="0" y="0">向量运算队列</tspan></text>
      </g>
      <g>
        <rect class="cls-14" x="812.98" y="405.31" width="185.99" height="20.69"/>
        <text class="cls-3" transform="translate(851.97 422.29)"><tspan x="0" y="0">存储转换队列</tspan></text>
      </g>
      <g>
        <line class="cls-13" x1="232.55" y1="95.93" x2="270.63" y2="95.93"/>
        <polygon class="cls-2" points="277.69 95.93 267.74 100 270.1 95.93 267.74 91.87 277.69 95.93"/>
      </g>
      <g>
        <line class="cls-13" x1="273.73" y1="243.22" x2="238.87" y2="243.22"/>
        <polygon class="cls-2" points="231.81 243.22 241.76 239.16 239.4 243.22 241.76 247.29 231.81 243.22"/>
      </g>
      <g>
        <line class="cls-13" x1="405.08" y1="63.45" x2="459.22" y2="63.45"/>
        <polygon class="cls-2" points="466.28 63.45 456.33 67.51 458.69 63.45 456.33 59.38 466.28 63.45"/>
      </g>
      <g>
        <line class="cls-13" x1="412.14" y1="243.22" x2="459.22" y2="243.22"/>
        <polygon class="cls-2" points="405.08 243.22 415.03 247.29 412.67 243.22 415.03 239.16 405.08 243.22"/>
        <polygon class="cls-2" points="466.28 243.22 456.33 247.29 458.69 243.22 456.33 239.16 466.28 243.22"/>
      </g>
      <g>
        <line class="cls-13" x1="625.03" y1="218.06" x2="802.98" y2="218.06"/>
        <polygon class="cls-2" points="617.97 218.06 627.92 222.13 625.55 218.06 627.92 214 617.97 218.06"/>
        <polygon class="cls-2" points="810.04 218.06 800.09 222.13 802.45 218.06 800.09 214 810.04 218.06"/>
      </g>
      <g>
        <line class="cls-13" x1="773.17" y1="287.43" x2="802.46" y2="287.43"/>
        <polygon class="cls-2" points="766.11 287.43 776.06 291.5 773.7 287.43 776.06 283.37 766.11 287.43"/>
        <polygon class="cls-2" points="809.52 287.43 799.57 291.5 801.93 287.43 799.57 283.37 809.52 287.43"/>
      </g>
      <g>
        <line class="cls-13" x1="1088.08" y1="154.47" x2="1088.08" y2="184.14"/>
        <polygon class="cls-2" points="1088.08 147.41 1084.01 157.36 1088.08 155 1092.14 157.36 1088.08 147.41"/>
      </g>
      <g>
        <line class="cls-13" x1="945.81" y1="95.93" x2="977.8" y2="95.93"/>
        <polygon class="cls-2" points="984.86 95.93 974.91 100 977.27 95.93 974.91 91.87 984.86 95.93"/>
      </g>
      <g>
        <line class="cls-13" x1="335.39" y1="306.38" x2="335.39" y2="343.37"/>
        <polygon class="cls-2" points="335.39 299.32 331.32 309.27 335.39 306.91 339.45 309.27 335.39 299.32"/>
        <polygon class="cls-2" points="335.39 350.43 331.32 340.48 335.39 342.84 339.45 340.48 335.39 350.43"/>
      </g>
      <g>
        <line class="cls-13" x1="373.49" y1="389.53" x2="407.28" y2="389.53"/>
        <polygon class="cls-2" points="414.34 389.53 404.39 393.6 406.75 389.53 404.39 385.47 414.34 389.53"/>
      </g>
      <g>
        <line class="cls-13" x1="498.83" y1="389.82" x2="540.16" y2="389.82"/>
        <polygon class="cls-2" points="547.22 389.82 537.27 393.89 539.63 389.82 537.27 385.76 547.22 389.82"/>
      </g>
      <g>
        <line class="cls-13" x1="631.08" y1="388.77" x2="672.41" y2="388.77"/>
        <polygon class="cls-2" points="679.47 388.77 669.52 392.83 671.88 388.77 669.52 384.7 679.47 388.77"/>
      </g>
      <g>
        <line class="cls-13" x1="762.65" y1="360.78" x2="803.98" y2="360.78"/>
        <polygon class="cls-2" points="811.04 360.78 801.09 364.84 803.45 360.78 801.09 356.71 811.04 360.78"/>
      </g>
      <g>
        <line class="cls-13" x1="762.65" y1="388.22" x2="803.98" y2="388.22"/>
        <polygon class="cls-2" points="811.04 388.22 801.09 392.29 803.45 388.22 801.09 384.16 811.04 388.22"/>
      </g>
      <g>
        <line class="cls-13" x1="764.59" y1="415.66" x2="805.92" y2="415.66"/>
        <polygon class="cls-2" points="812.98 415.66 803.03 419.73 805.39 415.66 803.03 411.6 812.98 415.66"/>
      </g>
      <g>
        <line class="cls-13" x1="335.39" y1="433.93" x2="335.39" y2="488.03"/>
        <polygon class="cls-2" points="335.39 426.87 331.32 436.82 335.39 434.45 339.45 436.82 335.39 426.87"/>
        <polygon class="cls-2" points="335.39 495.09 331.32 485.14 335.39 487.5 339.45 485.14 335.39 495.09"/>
      </g>
      <g>
        <line class="cls-13" x1="78.24" y1="389.82" x2="141.52" y2="389.82"/>
        <polygon class="cls-2" points="148.59 389.82 138.64 393.89 141 389.82 138.64 385.76 148.59 389.82"/>
      </g>
      <rect class="cls-12" x="467.04" y="186.26" width="150.93" height="112.64"/>
      <text class="cls-5" transform="translate(497.5 238.65)"><tspan class="cls-6"><tspan x="0" y="0">统一缓冲区</tspan></tspan><tspan class="cls-15"><tspan x="-8.07" y="21.6">Unified Bu</tspan><tspan class="cls-16" x="72.42" y="21.6">f</tspan><tspan x="78.09" y="21.6">fer</tspan></tspan></text>
      <rect class="cls-11" x="113.41" y="1" width="1054.74" height="469.65"/>
      <text class="cls-3" transform="translate(0 395.92)"><tspan x="0" y="0">配置端口</tspan></text>
      <text class="cls-5" transform="translate(317.39 519.63)"><tspan class="cls-6"><tspan x="0" y="0">总线</tspan></tspan><tspan class="cls-6" x="-81.51" y="21.6">（</tspan><tspan class="cls-15" x="-63.51" y="21.6">L2</tspan><tspan class="cls-6" x="-43.51" y="21.6">缓冲区</tspan><tspan class="cls-15" x="10.49" y="21.6">/HBM/DDR</tspan><tspan class="cls-6" x="99.51" y="21.6">）</tspan></text>
      <g>
        <rect class="cls-12" x="655.42" y="276.78" width="110.24" height="21.42"/>
        <text class="cls-1" transform="translate(665.54 294.89) scale(.88 1)"><tspan x="0" y="0">标量缓冲区</tspan></text>
      </g>
      <g>
        <line class="cls-13" x1="1016.95" y1="147.41" x2="1016.95" y2="177.08"/>
        <polygon class="cls-2" points="1016.95 184.14 1012.88 174.19 1016.95 176.56 1021.01 174.19 1016.95 184.14"/>
      </g>
      <g>
        <line class="cls-13" x1="625.03" y1="265.08" x2="802.46" y2="265.08"/>
        <polygon class="cls-2" points="617.97 265.08 627.92 269.14 625.55 265.08 627.92 261.01 617.97 265.08"/>
        <polygon class="cls-2" points="809.52 265.08 799.57 269.14 801.93 265.08 799.57 261.01 809.52 265.08"/>
      </g>
      <g>
        <rect class="cls-10" x="857.13" y="38.97" width="88.68" height="113.93"/>
        <text class="cls-3" transform="translate(874.47 101.57)"><tspan x="0" y="0">累加器</tspan></text>
      </g>
      <g>
        <rect class="cls-12" x="468.02" y="50.31" width="158.8" height="26.27"/>
        <text class="cls-4" transform="translate(505.45 68.17)"><tspan x="0" y="0">Bu</tspan><tspan class="cls-16" x="21.01" y="0">f</tspan><tspan x="26.67" y="0">fer L0</tspan><tspan class="cls-17" x="71.15" y="0">A</tspan></text>
      </g>
      <g>
        <line class="cls-13" x1="825.15" y1="97.14" x2="850.07" y2="97.14"/>
        <polygon class="cls-2" points="818.09 97.14 828.04 101.21 825.68 97.14 828.04 93.08 818.09 97.14"/>
        <polygon class="cls-2" points="857.13 97.14 847.18 101.21 849.54 97.14 847.18 93.08 857.13 97.14"/>
      </g>
      <g>
        <rect class="cls-12" x="466.7" y="117.08" width="158.8" height="26.27"/>
        <text class="cls-4" transform="translate(504.52 134.93)"><tspan x="0" y="0">Bu</tspan><tspan class="cls-16" x="21.01" y="0">f</tspan><tspan x="26.67" y="0">fer L0B</tspan></text>
      </g>
      <g>
        <line class="cls-13" x1="407.82" y1="129.1" x2="459.98" y2="129.1"/>
        <polygon class="cls-2" points="467.04 129.1 457.09 133.17 459.45 129.1 457.09 125.04 467.04 129.1"/>
      </g>
      <text class="cls-4" transform="translate(1016.77 97.14)"><tspan x="0" y="0">Bu</tspan><tspan class="cls-16" x="21.01" y="0">f</tspan><tspan x="26.67" y="0">fer L0C</tspan></text>
      <g>
        <line class="cls-13" x1="626.82" y1="63.45" x2="665.99" y2="63.45"/>
        <polygon class="cls-2" points="673.05 63.45 663.1 67.51 665.46 63.45 663.1 59.38 673.05 63.45"/>
      </g>
      <g>
        <line class="cls-13" x1="625.5" y1="130.21" x2="665.99" y2="130.21"/>
        <polygon class="cls-2" points="673.05 130.21 663.1 134.28 665.46 130.21 663.1 126.15 673.05 130.21"/>
      </g>
      <text class="cls-3" transform="translate(1039.91 495.09)"><tspan x="0" y="0">存储单元</tspan><tspan x="0" y="21.6">计算单元</tspan><tspan x="0" y="43.2">控制单元</tspan></text>
      <rect class="cls-9" x="981.59" y="481.25" width="50.86" height="15.45"/>
      <rect class="cls-7" x="981.59" y="502.33" width="50.86" height="15.45"/>
      <rect class="cls-8" x="981.59" y="523.41" width="50.86" height="15.45"/>
    </g>
  </g>
</svg>