<?xml version="1.0" encoding="UTF-8"?>
<svg id="_图层_2" data-name="图层 2" xmlns="http://www.w3.org/2000/svg" viewBox="0 0 1080.02 443.49">
  <defs>
    <style>
      .cls-1 {
        stroke-width: 2px;
      }

      .cls-1, .cls-2, .cls-3 {
        stroke: #000;
        stroke-miterlimit: 10;
      }

      .cls-1, .cls-3 {
        fill: none;
      }

      .cls-4 {
        stroke-width: 0px;
      }

      .cls-4, .cls-5, .cls-6, .cls-7 {
        fill: #000;
      }

      .cls-2 {
        fill: #fff;
      }

      .cls-8, .cls-6 {
        font-family: TimesNewRomanPSMT, 'Times New Roman';
      }

      .cls-5, .cls-6, .cls-7 {
        font-size: 21px;
      }

      .cls-5, .cls-9 {
        font-family: AdobeSongStd-Light-GBpc-EUC-H, 'Adobe Song Std';
        font-weight: 300;
      }

      .cls-10 {
        letter-spacing: -.06em;
      }
    </style>
  </defs>
  <g id="_处理器逻辑图" data-name="处理器逻辑图">
    <g>
      <g>
        <rect class="cls-3" x="169.27" y="92.46" width="99.08" height="99.08"/>
        <g>
          <rect class="cls-2" x="163.18" y="98.49" width="99.08" height="99.08"/>
          <text class="cls-6" transform="translate(178.61 153.54)"><tspan x="0" y="0">AI Core</tspan></text>
        </g>
      </g>
      <g>
        <rect class="cls-3" x="316.61" y="98.49" width="99.08" height="99.08"/>
        <text class="cls-5" transform="translate(345.15 142.01)"><tspan x="0" y="0">任务</tspan><tspan x="-10.5" y="25.2">调度器</tspan></text>
      </g>
      <g>
        <rect class="cls-3" x="617.39" y="98.49" width="99.08" height="99.08"/>
        <text class="cls-7" transform="translate(625.5 154.06)"><tspan class="cls-9" x="0" y="0">控制</tspan><tspan class="cls-8" x="42" y="0">CPU</tspan></text>
      </g>
      <g>
        <rect class="cls-2" x="30.24" y="275.24" width="124.84" height="66.06"/>
        <text class="cls-5" transform="translate(50.66 302.24)"><tspan x="0" y="0">数字视觉</tspan><tspan x="-10.5" y="25.2">预处理模块</tspan></text>
      </g>
      <g>
        <rect class="cls-2" x="339.11" y="275.24" width="124.84" height="66.06"/>
        <text class="cls-7" transform="translate(366.24 314.28)"><tspan class="cls-8" x="0" y="0">L3 </tspan><tspan class="cls-9" x="28.58" y="0">缓存</tspan></text>
      </g>
      <g>
        <rect class="cls-2" x="548.1" y="275.24" width="124.84" height="66.06"/>
        <text class="cls-7" transform="translate(564.74 314.28)"><tspan class="cls-8" x="0" y="0">L2 </tspan><tspan class="cls-9" x="28.58" y="0">缓冲区</tspan></text>
      </g>
      <g>
        <rect class="cls-2" x="896.91" y="275.33" width="124.84" height="66.06"/>
        <text class="cls-7" transform="translate(903.03 314.38)"><tspan class="cls-8" x="0" y="0">GPIO/I2C </tspan><tspan class="cls-9" x="91.59" y="0">等</tspan></text>
      </g>
      <g>
        <rect class="cls-3" x="470.04" y="92.46" width="99.08" height="99.08"/>
        <g>
          <rect class="cls-2" x="463.95" y="98.49" width="99.08" height="99.08"/>
          <text class="cls-6" transform="translate(479.38 153.54)"><tspan x="0" y="0">AI CPU</tspan></text>
        </g>
      </g>
      <line class="cls-1" x1="6.94" y1="236.41" x2="1044.67" y2="236.41"/>
      <g>
        <line class="cls-3" x1="92.66" y1="243.47" x2="92.66" y2="269.2"/>
        <polygon class="cls-4" points="92.66 236.41 88.59 246.36 92.66 243.99 96.72 246.36 92.66 236.41"/>
        <path class="cls-4" d="M92.66,275.24c-1.05-2.84-2.85-6.36-4.76-8.55l4.76,1.72,4.75-1.72c-1.9,2.18-3.7,5.71-4.75,8.55Z"/>
      </g>
      <g>
        <line class="cls-3" x1="212.72" y1="204.64" x2="212.72" y2="230.37"/>
        <polygon class="cls-4" points="212.72 197.58 208.66 207.53 212.72 205.17 216.79 207.53 212.72 197.58"/>
        <path class="cls-4" d="M212.72,236.41c-1.05-2.84-2.85-6.36-4.76-8.55l4.76,1.72,4.75-1.72c-1.9,2.18-3.7,5.71-4.75,8.55Z"/>
      </g>
      <g>
        <line class="cls-3" x1="366.15" y1="204.64" x2="366.15" y2="230.37"/>
        <polygon class="cls-4" points="366.15 197.58 362.09 207.53 366.15 205.17 370.22 207.53 366.15 197.58"/>
        <path class="cls-4" d="M366.15,236.41c-1.05-2.84-2.85-6.36-4.76-8.55l4.76,1.72,4.75-1.72c-1.9,2.18-3.7,5.71-4.75,8.55Z"/>
      </g>
      <g>
        <line class="cls-3" x1="401.53" y1="243.47" x2="401.53" y2="269.2"/>
        <polygon class="cls-4" points="401.53 236.41 397.47 246.36 401.53 243.99 405.6 246.36 401.53 236.41"/>
        <path class="cls-4" d="M401.53,275.24c-1.05-2.84-2.85-6.36-4.76-8.55l4.76,1.72,4.75-1.72c-1.9,2.18-3.7,5.71-4.75,8.55Z"/>
      </g>
      <g>
        <line class="cls-3" x1="513.5" y1="204.64" x2="513.5" y2="230.37"/>
        <polygon class="cls-4" points="513.5 197.58 509.43 207.53 513.5 205.17 517.56 207.53 513.5 197.58"/>
        <path class="cls-4" d="M513.5,236.41c-1.05-2.84-2.85-6.36-4.76-8.55l4.76,1.72,4.75-1.72c-1.9,2.18-3.7,5.71-4.75,8.55Z"/>
      </g>
      <g>
        <line class="cls-3" x1="610.53" y1="243.47" x2="610.53" y2="269.2"/>
        <polygon class="cls-4" points="610.53 236.41 606.46 246.36 610.53 243.99 614.59 246.36 610.53 236.41"/>
        <path class="cls-4" d="M610.53,275.24c-1.05-2.84-2.85-6.36-4.76-8.55l4.76,1.72,4.75-1.72c-1.9,2.18-3.7,5.71-4.75,8.55Z"/>
      </g>
      <g>
        <line class="cls-3" x1="666.93" y1="204.64" x2="666.93" y2="230.37"/>
        <polygon class="cls-4" points="666.93 197.58 662.86 207.53 666.93 205.17 670.99 207.53 666.93 197.58"/>
        <path class="cls-4" d="M666.93,236.41c-1.05-2.84-2.85-6.36-4.76-8.55l4.76,1.72,4.75-1.72c-1.9,2.18-3.7,5.71-4.75,8.55Z"/>
      </g>
      <g>
        <line class="cls-3" x1="966.12" y1="243.56" x2="966.12" y2="269.29"/>
        <polygon class="cls-4" points="966.12 236.5 962.06 246.45 966.12 244.09 970.19 246.45 966.12 236.5"/>
        <path class="cls-4" d="M966.12,275.33c-1.05-2.84-2.85-6.36-4.76-8.55l4.76,1.72,4.75-1.72c-1.9,2.18-3.7,5.71-4.75,8.55Z"/>
      </g>
      <g>
        <line class="cls-3" x1="799.61" y1="241.49" x2="799.61" y2="409.71"/>
        <polygon class="cls-4" points="799.61 234.42 795.54 244.37 799.61 242.01 803.67 244.37 799.61 234.42"/>
        <path class="cls-4" d="M799.61,415.75c-1.05-2.84-2.85-6.36-4.76-8.55l4.76,1.72,4.75-1.72c-1.9,2.18-3.7,5.71-4.75,8.55Z"/>
      </g>
      <text class="cls-5" transform="translate(996.71 221.6)"><tspan x="0" y="0">总线</tspan></text>
      <g>
        <line class="cls-3" x1="759.97" y1="33.08" x2="759.97" y2="228.39"/>
        <polygon class="cls-4" points="759.97 26.02 755.91 35.97 759.97 33.61 764.04 35.97 759.97 26.02"/>
        <path class="cls-4" d="M759.97,234.42c-1.05-2.84-2.85-6.36-4.76-8.55l4.76,1.72,4.75-1.72c-1.9,2.18-3.7,5.71-4.75,8.55Z"/>
      </g>
      <text class="cls-7" transform="translate(716.37 18.48)"><tspan class="cls-8" x="0" y="0">USB</tspan><tspan class="cls-9" x="40.85" y="0" xml:space="preserve"> 接口</tspan></text>
      <g>
        <line class="cls-3" x1="841.04" y1="33.08" x2="841.04" y2="228.39"/>
        <polygon class="cls-4" points="841.04 26.02 836.97 35.97 841.04 33.61 845.1 35.97 841.04 26.02"/>
        <path class="cls-4" d="M841.04,234.42c-1.05-2.84-2.85-6.36-4.76-8.55l4.76,1.72,4.75-1.72c-1.9,2.18-3.7,5.71-4.75,8.55Z"/>
      </g>
      <text class="cls-5" transform="translate(820.04 19.59)"><tspan x="0" y="0">网卡</tspan></text>
      <g>
        <line class="cls-3" x1="923.13" y1="33.08" x2="923.13" y2="230.28"/>
        <polygon class="cls-4" points="923.13 26.02 919.06 35.97 923.13 33.61 927.19 35.97 923.13 26.02"/>
        <path class="cls-4" d="M923.13,236.31c-1.05-2.84-2.85-6.36-4.76-8.55l4.76,1.72,4.75-1.72c-1.9,2.18-3.7,5.71-4.75,8.55Z"/>
      </g>
      <text class="cls-7" transform="translate(878.5 18.48)"><tspan class="cls-8" x="0" y="0">PCIe </tspan><tspan class="cls-9" x="47.25" y="0">接口</tspan></text>
      <text class="cls-7" transform="translate(727.42 437.05)"><tspan class="cls-8" x="0" y="0">DDR/HBM</tspan><tspan class="cls-9" x="98.02" y="0" xml:space="preserve"> 接口</tspan></text>
      <rect class="cls-1" x="1" y="43.2" width="1078.02" height="355.38"/>
      <text class="cls-7" transform="translate(29.08 83.15)"><tspan class="cls-9" x="0" y="0">昇腾</tspan><tspan class="cls-8" x="42" y="0">AI</tspan><tspan class="cls-9" x="64.16" y="0">处理器</tspan><tspan class="cls-8"><tspan x="28.64" y="25.2">Da</tspan><tspan class="cls-10" x="53.13" y="25.2">V</tspan><tspan x="67.03" y="25.2">inci</tspan></tspan></text>
    </g>
  </g>
</svg>