<?xml version="1.0" encoding="UTF-8"?>
<svg id="_图层_2" data-name="图层 2" xmlns="http://www.w3.org/2000/svg" viewBox="0 0 562.99 250.26">
  <defs>
    <style>
      .cls-1 {
        stroke: #1c75bc;
        stroke-width: 2px;
      }

      .cls-1, .cls-2, .cls-3 {
        fill: none;
        stroke-miterlimit: 10;
      }

      .cls-4 {
        fill: #8daed7;
      }

      .cls-5 {
        fill: #71cc51;
      }

      .cls-6 {
        fill: #231f20;
      }

      .cls-6, .cls-7 {
        font-family: PingFangSC-Semibold-GBpc-EUC-H, 'PingFang SC';
        font-size: 12px;
        font-weight: 600;
      }

      .cls-7 {
        fill: #fff;
      }

      .cls-8 {
        fill: #f19b23;
      }

      .cls-9 {
        fill: #81cc45;
      }

      .cls-10 {
        fill: #e46a6d;
      }

      .cls-11 {
        fill: #1c75bc;
      }

      .cls-12 {
        fill: #fb8c98;
      }

      .cls-2, .cls-3 {
        stroke: #a7a9ac;
      }

      .cls-13 {
        fill: #ffb100;
      }

      .cls-14 {
        fill: #00b2ca;
      }

      .cls-15 {
        fill: #6bd38c;
      }

      .cls-3 {
        stroke-dasharray: 11.46 11.46;
      }
    </style>
  </defs>
  <g id="_图层_1-2" data-name="图层 1">
    <g>
      <rect class="cls-11" x="45.87" y=".67" width="37.28" height="17"/>
      <text class="cls-7" transform="translate(56.83 13.68)"><tspan x="0" y="0">1月</tspan></text>
    </g>
    <g>
      <rect class="cls-11" x="503.45" y=".67" width="37.28" height="17"/>
      <text class="cls-7" transform="translate(511.95 13.68)"><tspan x="0" y="0">11月</tspan></text>
    </g>
    <g>
      <rect class="cls-11" x="457.69" y=".67" width="37.28" height="17"/>
      <text class="cls-7" transform="translate(465.05 13.68)"><tspan x="0" y="0">10月</tspan></text>
    </g>
    <g>
      <rect class="cls-11" x="411.94" y=".67" width="37.28" height="17"/>
      <text class="cls-7" transform="translate(421.76 13.68)"><tspan x="0" y="0">9月</tspan></text>
    </g>
    <g>
      <rect class="cls-11" x="366.18" y=".67" width="37.28" height="17"/>
      <text class="cls-7" transform="translate(376 13.68)"><tspan x="0" y="0">8月</tspan></text>
    </g>
    <g>
      <rect class="cls-11" x="320.42" y=".67" width="37.28" height="17"/>
      <text class="cls-7" transform="translate(330.52 13.68)"><tspan x="0" y="0">7月</tspan></text>
    </g>
    <g>
      <rect class="cls-11" x="274.66" y=".67" width="37.28" height="17"/>
      <text class="cls-7" transform="translate(284.48 13.68)"><tspan x="0" y="0">6月</tspan></text>
    </g>
    <g>
      <rect class="cls-11" x="228.9" y=".67" width="37.28" height="17"/>
      <text class="cls-7" transform="translate(238.72 13.68)"><tspan x="0" y="0">5月</tspan></text>
    </g>
    <g>
      <rect class="cls-11" x="183.14" y=".67" width="37.28" height="17"/>
      <text class="cls-7" transform="translate(192.96 13.68)"><tspan x="0" y="0">4月</tspan></text>
    </g>
    <g>
      <rect class="cls-11" x="137.38" y=".67" width="37.28" height="17"/>
      <text class="cls-7" transform="translate(147.21 13.68)"><tspan x="0" y="0">3月</tspan></text>
    </g>
    <g>
      <rect class="cls-11" x="91.63" y=".67" width="37.28" height="17"/>
      <text class="cls-7" transform="translate(101.45 13.68)"><tspan x="0" y="0">2月</tspan></text>
    </g>
    <g>
      <line class="cls-2" x1="65.2" y1="18.54" x2="65.2" y2="24.54"/>
      <line class="cls-3" x1="65.2" y1="36" x2="65.2" y2="236.53"/>
      <line class="cls-2" x1="65.2" y1="242.26" x2="65.2" y2="248.26"/>
    </g>
    <g>
      <line class="cls-2" x1="522.48" y1="18.54" x2="522.48" y2="24.54"/>
      <line class="cls-3" x1="522.48" y1="36" x2="522.48" y2="236.53"/>
      <line class="cls-2" x1="522.48" y1="242.26" x2="522.48" y2="248.26"/>
    </g>
    <g>
      <line class="cls-2" x1="476.75" y1="18.54" x2="476.75" y2="24.54"/>
      <line class="cls-3" x1="476.75" y1="36" x2="476.75" y2="236.53"/>
      <line class="cls-2" x1="476.75" y1="242.26" x2="476.75" y2="248.26"/>
    </g>
    <g>
      <line class="cls-2" x1="431.02" y1="18.54" x2="431.02" y2="24.54"/>
      <line class="cls-3" x1="431.02" y1="36" x2="431.02" y2="236.53"/>
      <line class="cls-2" x1="431.02" y1="242.26" x2="431.02" y2="248.26"/>
    </g>
    <g>
      <line class="cls-2" x1="385.3" y1="18.54" x2="385.3" y2="24.54"/>
      <line class="cls-3" x1="385.3" y1="36" x2="385.3" y2="236.53"/>
      <line class="cls-2" x1="385.3" y1="242.26" x2="385.3" y2="248.26"/>
    </g>
    <g>
      <line class="cls-2" x1="339.57" y1="18.54" x2="339.57" y2="24.54"/>
      <line class="cls-3" x1="339.57" y1="36" x2="339.57" y2="236.53"/>
      <line class="cls-2" x1="339.57" y1="242.26" x2="339.57" y2="248.26"/>
    </g>
    <g>
      <line class="cls-2" x1="286.2" y1="17.26" x2="286.2" y2="23.26"/>
      <line class="cls-3" x1="286.2" y1="34.72" x2="286.2" y2="235.26"/>
      <line class="cls-2" x1="286.2" y1="240.99" x2="286.2" y2="246.99"/>
    </g>
    <g>
      <line class="cls-2" x1="248.11" y1="18.54" x2="248.11" y2="24.54"/>
      <line class="cls-3" x1="248.11" y1="36" x2="248.11" y2="236.53"/>
      <line class="cls-2" x1="248.11" y1="242.26" x2="248.11" y2="248.26"/>
    </g>
    <g>
      <line class="cls-2" x1="202.39" y1="18.54" x2="202.39" y2="24.54"/>
      <line class="cls-3" x1="202.39" y1="36" x2="202.39" y2="236.53"/>
      <line class="cls-2" x1="202.39" y1="242.26" x2="202.39" y2="248.26"/>
    </g>
    <g>
      <line class="cls-2" x1="156.66" y1="18.54" x2="156.66" y2="24.54"/>
      <line class="cls-3" x1="156.66" y1="36" x2="156.66" y2="236.53"/>
      <line class="cls-2" x1="156.66" y1="242.26" x2="156.66" y2="248.26"/>
    </g>
    <g>
      <line class="cls-2" x1="110.93" y1="18.54" x2="110.93" y2="24.54"/>
      <line class="cls-3" x1="110.93" y1="36" x2="110.93" y2="236.53"/>
      <line class="cls-2" x1="110.93" y1="242.26" x2="110.93" y2="248.26"/>
    </g>
    <g>
      <rect class="cls-4" y="22.03" width="541" height="21.5"/>
      <text class="cls-6" transform="translate(246.17 37.08)"><tspan x="0" y="0">日常实习</tspan></text>
    </g>
    <g>
      <rect class="cls-15" x="110.69" y="84.44" width="110.93" height="21.5"/>
      <text class="cls-6" transform="translate(130.1 99.48)"><tspan x="0" y="0">暑期实习招聘</tspan></text>
    </g>
    <g>
      <rect class="cls-9" x="285.98" y="84.39" width="99.85" height="21.5"/>
      <text class="cls-6" transform="translate(312.38 99.43)"><tspan x="0" y="0">暑期实习</tspan></text>
    </g>
    <g>
      <rect class="cls-5" x="286.02" y="110.88" width="136.53" height="21.5"/>
      <text class="cls-6" transform="translate(304.76 125.94)"><tspan x="0" y="0">暑期实习offer发放</tspan></text>
    </g>
    <g>
      <rect class="cls-8" x="339.66" y="140.88" width="156.12" height="21.5"/>
      <text class="cls-6" transform="translate(350.53 155.94)"><tspan x="0" y="0">应届秋季校园招聘offer多</tspan></text>
    </g>
    <g>
      <rect class="cls-13" x="430.92" y="165.87" width="109.91" height="21.5"/>
      <text class="cls-6" transform="translate(448.47 180.94)"><tspan x="0" y="0">秋季offer发放</tspan></text>
    </g>
    <g>
      <rect class="cls-12" x="137.35" y="212.65" width="83" height="37.61"/>
      <text class="cls-6" transform="translate(143.01 227.17)"><tspan x="0" y="0">春季校园招聘</tspan><tspan x="4.6" y="14.4">补录offer少</tspan></text>
    </g>
    <g>
      <rect class="cls-11" x=".13" width="37.28" height="17"/>
      <text class="cls-7" transform="translate(7.49 13.01)"><tspan x="0" y="0">12月</tspan></text>
    </g>
    <g>
      <line class="cls-2" x1="19.12" y1="17.68" x2="19.12" y2="23.68"/>
      <line class="cls-3" x1="19.12" y1="35.14" x2="19.12" y2="235.67"/>
      <line class="cls-2" x1="19.12" y1="241.4" x2="19.12" y2="247.4"/>
    </g>
    <g>
      <rect class="cls-14" x="19.69" y="53.37" width="137.49" height="21.5"/>
      <text class="cls-6" transform="translate(46.91 68.41)"><tspan x="0" y="0">非应届寒假实习</tspan></text>
    </g>
    <g>
      <rect class="cls-10" x="19.47" y="191.04" width="137.49" height="21.5"/>
      <text class="cls-6" transform="translate(52.7 206.08)"><tspan x="0" y="0">应届寒假实习</tspan></text>
    </g>
    <g>
      <line class="cls-1" x1="553.7" y1="26.26" x2="556.55" y2="238.97"/>
      <polygon class="cls-11" points="556.7 250.26 549.99 234.43 556.54 238.12 562.99 234.26 556.7 250.26"/>
    </g>
  </g>
</svg>