<?xml version="1.0" standalone="no"?><!DOCTYPE svg PUBLIC "-//W3C//DTD SVG 1.1//EN" "http://www.w3.org/Graphics/SVG/1.1/DTD/svg11.dtd"><svg t="1735896008460" class="icon" viewBox="0 0 1024 1024" version="1.1" xmlns="http://www.w3.org/2000/svg" p-id="4381" xmlns:xlink="http://www.w3.org/1999/xlink" width="200" height="200"><path d="M511.296 774.208a15.936 15.936 0 0 1-13.12-6.816l-154.56-218.976-154.624 218.976a16 16 0 0 1-29.12-9.184V283.104a16 16 0 1 1 29.12-9.184l154.624 218.976 154.56-219.008a16 16 0 0 1 29.12 9.216v475.104c0 7.008-4.48 13.12-11.2 15.2a15.52 15.52 0 0 1-4.8 0.8z m-148.096-253.504l132.096 187.104V333.504l-132.096 187.2zM192 333.504v374.304l132.096-187.104L192 333.504z" fill="#000000" p-id="4382"></path><path d="M511.296 774.208a16.032 16.032 0 0 1-13.216-25.088l157.728-228.416-157.6-228.48a16.064 16.064 0 0 1 26.4-18.24l150.784 218.528 150.816-218.528a16 16 0 0 1 29.12 9.088v475.136a15.904 15.904 0 1 1-29.12 9.088l-150.912-218.496-150.784 218.496a15.968 15.968 0 0 1-13.216 6.912z m183.52-253.504l128.576 186.208V334.496l-128.576 186.208z" fill="#000000" p-id="4383"></path><path d="M296 283.104q0 5.888-0.576 11.744-0.576 5.888-1.728 11.648-1.152 5.792-2.88 11.424-1.696 5.664-3.936 11.104-2.24 5.44-5.056 10.656-2.784 5.184-6.048 10.08-3.264 4.896-7.04 9.472-3.712 4.544-7.872 8.736-4.16 4.16-8.736 7.904-4.544 3.744-9.472 7.008-4.896 3.264-10.08 6.08-5.216 2.752-10.656 4.992t-11.072 3.968q-5.664 1.728-11.424 2.88-5.792 1.152-11.648 1.728-5.888 0.576-11.776 0.576t-11.776-0.576q-5.856-0.576-11.648-1.728-5.76-1.152-11.424-2.88-5.632-1.696-11.072-3.968-5.44-2.24-10.656-5.024-5.184-2.784-10.08-6.08-4.928-3.232-9.472-6.976-4.544-3.744-8.736-7.904-4.16-4.16-7.904-8.736-3.744-4.576-7.008-9.472t-6.08-10.08q-2.752-5.216-5.024-10.656-2.24-5.44-3.968-11.104-1.696-5.632-2.848-11.424-1.152-5.76-1.728-11.648-0.576-5.856-0.576-11.744t0.576-11.776q0.576-5.856 1.728-11.648 1.152-5.76 2.88-11.424 1.696-5.632 3.936-11.072 2.272-5.44 5.056-10.656 2.784-5.184 6.048-10.112 3.264-4.896 7.04-9.44 3.712-4.576 7.872-8.736 4.16-4.16 8.736-7.904 4.544-3.744 9.472-7.04 4.896-3.232 10.08-6.016 5.216-2.784 10.656-5.056 5.44-2.24 11.072-3.968 5.664-1.696 11.424-2.88 5.792-1.12 11.648-1.696 5.888-0.576 11.776-0.576t11.776 0.576q5.856 0.576 11.648 1.728 5.76 1.152 11.424 2.88 5.632 1.696 11.072 3.936 5.44 2.24 10.656 5.056 5.184 2.784 10.08 6.048 4.928 3.264 9.472 7.04 4.544 3.712 8.736 7.872 4.16 4.16 7.904 8.736 3.744 4.544 7.008 9.44 3.264 4.928 6.08 10.112 2.752 5.216 5.024 10.656 2.24 5.44 3.968 11.072 1.696 5.664 2.848 11.424 1.152 5.792 1.728 11.648 0.576 5.888 0.576 11.776z" fill="#000000" p-id="4384"></path><path d="M176 419.104a136.128 136.128 0 0 1-136-136 136.128 136.128 0 0 1 136-136 136.128 136.128 0 0 1 136 136c0 75.008-61.12 136-136 136z m0-240c-57.28 0-104 46.72-104 104s46.72 104 104 104 104-46.72 104-104-46.72-104-104-104z" fill="#000000" p-id="4385"></path><path d="M631.296 283.104q0 5.888-0.576 11.744-0.576 5.888-1.728 11.648-1.152 5.792-2.88 11.424-1.696 5.664-3.936 11.104-2.24 5.44-5.056 10.656-2.752 5.184-6.048 10.08-3.264 4.896-7.008 9.472-3.744 4.544-7.904 8.736-4.16 4.16-8.736 7.904-4.544 3.744-9.44 7.008-4.928 3.264-10.112 6.08-5.184 2.752-10.656 4.992-5.44 2.24-11.072 3.968-5.632 1.728-11.424 2.88-5.76 1.152-11.648 1.728-5.856 0.576-11.776 0.576-5.888 0-11.744-0.576-5.888-0.576-11.648-1.728-5.792-1.152-11.424-2.88-5.664-1.696-11.104-3.968-5.44-2.24-10.624-5.024-5.216-2.784-10.112-6.08-4.896-3.232-9.472-6.976-4.544-3.744-8.704-7.904-4.16-4.16-7.936-8.736-3.712-4.576-7.008-9.472-3.264-4.896-6.048-10.08-2.784-5.216-5.024-10.656t-3.968-11.104q-1.728-5.632-2.88-11.424-1.152-5.76-1.728-11.648-0.576-5.856-0.576-11.744t0.576-11.776q0.576-5.856 1.728-11.648 1.152-5.76 2.88-11.424 1.696-5.632 3.968-11.072 2.24-5.44 5.024-10.656 2.784-5.184 6.08-10.112 3.264-4.896 6.976-9.44 3.744-4.576 7.936-8.736 4.16-4.16 8.704-7.904 4.576-3.744 9.472-7.04 4.896-3.232 10.112-6.016 5.184-2.784 10.624-5.056 5.44-2.24 11.104-3.968 5.632-1.696 11.424-2.88 5.76-1.12 11.648-1.696 5.856-0.576 11.744-0.576 5.92 0 11.776 0.576t11.648 1.728q5.76 1.152 11.424 2.88 5.632 1.696 11.072 3.936 5.44 2.24 10.656 5.056 5.184 2.784 10.112 6.048 4.896 3.264 9.44 7.04 4.576 3.712 8.736 7.872 4.16 4.16 7.904 8.736 3.744 4.544 7.04 9.44 3.264 4.928 6.016 10.112 2.784 5.216 5.056 10.656 2.24 5.44 3.968 11.072 1.696 5.664 2.88 11.424 1.12 5.792 1.696 11.648 0.576 5.888 0.576 11.776z" fill="#000000" p-id="4386"></path><path d="M511.296 419.104a136.128 136.128 0 0 1-136-136 136.128 136.128 0 0 1 136-136 136.128 136.128 0 0 1 136 136 136.128 136.128 0 0 1-136 136z m0-240c-57.28 0-104 46.72-104 104s46.72 104 104 104 104-46.72 104-104-46.592-104-104-104z" fill="#000000" p-id="4387"></path><path d="M959.296 283.104q0 5.888-0.576 11.744-0.576 5.888-1.728 11.648-1.152 5.792-2.88 11.424-1.696 5.664-3.936 11.104-2.24 5.44-5.056 10.656-2.752 5.184-6.048 10.08-3.264 4.896-7.008 9.472-3.744 4.544-7.904 8.736-4.16 4.16-8.736 7.904-4.544 3.744-9.44 7.008-4.928 3.264-10.112 6.08-5.184 2.752-10.656 4.992-5.44 2.24-11.072 3.968-5.632 1.728-11.424 2.88-5.76 1.152-11.648 1.728-5.856 0.576-11.776 0.576-5.888 0-11.744-0.576-5.888-0.576-11.648-1.728-5.792-1.152-11.424-2.88-5.664-1.696-11.104-3.968-5.44-2.24-10.624-5.024-5.216-2.784-10.112-6.08-4.896-3.232-9.472-6.976-4.544-3.744-8.704-7.904-4.16-4.16-7.936-8.736-3.712-4.576-7.008-9.472-3.264-4.896-6.048-10.08-2.784-5.216-5.024-10.656t-3.968-11.104q-1.728-5.632-2.88-11.424-1.152-5.76-1.728-11.648-0.576-5.856-0.576-11.744t0.576-11.776q0.576-5.856 1.728-11.648 1.152-5.76 2.88-11.424 1.696-5.632 3.968-11.072 2.24-5.44 5.024-10.656 2.784-5.184 6.08-10.112 3.264-4.896 6.976-9.44 3.744-4.576 7.936-8.736 4.16-4.16 8.704-7.904 4.576-3.744 9.472-7.04 4.896-3.232 10.112-6.016 5.184-2.784 10.624-5.056 5.44-2.24 11.104-3.968 5.632-1.696 11.424-2.88 5.76-1.12 11.648-1.696 5.856-0.576 11.744-0.576 5.92 0 11.776 0.576t11.648 1.728q5.76 1.152 11.424 2.88 5.632 1.696 11.072 3.936 5.44 2.24 10.656 5.056 5.184 2.784 10.112 6.048 4.896 3.264 9.44 7.04 4.576 3.712 8.736 7.872 4.16 4.16 7.904 8.736 3.744 4.544 7.04 9.44 3.264 4.928 6.016 10.112 2.784 5.216 5.056 10.656 2.24 5.44 3.968 11.072 1.696 5.664 2.88 11.424 1.12 5.792 1.696 11.648 0.576 5.888 0.576 11.776z" fill="#000000" p-id="4388"></path><path d="M839.296 419.104a136.128 136.128 0 0 1-136-136 136.128 136.128 0 0 1 136-136 136.128 136.128 0 0 1 136 136 136.128 136.128 0 0 1-136 136z m0-240c-57.28 0-104 46.72-104 104s46.72 104 104 104 104-46.72 104-104-46.592-104-104-104z" fill="#000000" p-id="4389"></path><path d="M296 758.208q0 5.888-0.576 11.744-0.576 5.888-1.728 11.648-1.152 5.792-2.88 11.424-1.696 5.664-3.936 11.104-2.24 5.44-5.056 10.656-2.784 5.184-6.048 10.08-3.264 4.896-7.04 9.472-3.712 4.544-7.872 8.704-4.16 4.16-8.736 7.936-4.544 3.712-9.472 7.008-4.896 3.264-10.08 6.048-5.216 2.784-10.656 5.024t-11.072 3.968q-5.664 1.728-11.424 2.88-5.792 1.152-11.648 1.728-5.888 0.576-11.776 0.576t-11.776-0.576q-5.856-0.576-11.648-1.728-5.76-1.152-11.424-2.88-5.632-1.696-11.072-3.968-5.44-2.24-10.656-5.024-5.184-2.784-10.08-6.08-4.928-3.264-9.472-6.976-4.544-3.744-8.736-7.936-4.16-4.16-7.904-8.704-3.744-4.576-7.008-9.472t-6.08-10.08q-2.752-5.216-5.024-10.656-2.24-5.44-3.968-11.104-1.696-5.632-2.848-11.424-1.152-5.76-1.728-11.648-0.576-5.856-0.576-11.744t0.576-11.776q0.576-5.856 1.728-11.648 1.152-5.76 2.88-11.424 1.696-5.632 3.936-11.072 2.272-5.44 5.056-10.656 2.784-5.184 6.048-10.112 3.264-4.896 7.04-9.44 3.712-4.576 7.872-8.736 4.16-4.16 8.736-7.904 4.544-3.744 9.472-7.04 4.896-3.264 10.08-6.016 5.216-2.784 10.656-5.056 5.44-2.24 11.072-3.968 5.664-1.696 11.424-2.88 5.792-1.12 11.648-1.696 5.888-0.576 11.776-0.576t11.776 0.576q5.856 0.576 11.648 1.728 5.76 1.152 11.424 2.88 5.632 1.696 11.072 3.936 5.44 2.24 10.656 5.056 5.184 2.752 10.08 6.048 4.928 3.264 9.472 7.008t8.736 7.904q4.16 4.16 7.904 8.736 3.744 4.544 7.008 9.44 3.264 4.928 6.08 10.112 2.752 5.216 5.024 10.656 2.24 5.44 3.968 11.072 1.696 5.664 2.848 11.424t1.728 11.648q0.576 5.888 0.576 11.776z" fill="#000000" p-id="4390"></path><path d="M176 894.208a136.128 136.128 0 0 1-136-136 136.128 136.128 0 0 1 136-136 136.128 136.128 0 0 1 136 136c0 75.008-61.12 136-136 136z m0-240c-57.28 0-104 46.72-104 104s46.72 104 104 104 104-46.72 104-104-46.72-104-104-104z" fill="#000000" p-id="4391"></path><path d="M631.296 758.208q0 5.888-0.576 11.744-0.576 5.888-1.728 11.648-1.152 5.792-2.88 11.424-1.696 5.664-3.936 11.104-2.24 5.44-5.056 10.656-2.752 5.184-6.048 10.08-3.264 4.896-7.008 9.472-3.744 4.544-7.904 8.704-4.16 4.16-8.736 7.936-4.544 3.712-9.44 7.008-4.928 3.264-10.112 6.048-5.184 2.784-10.656 5.024-5.44 2.24-11.072 3.968-5.632 1.728-11.424 2.88-5.76 1.152-11.648 1.728-5.856 0.576-11.776 0.576-5.888 0-11.744-0.576-5.888-0.576-11.648-1.728-5.792-1.152-11.424-2.88-5.664-1.696-11.104-3.968-5.44-2.24-10.624-5.024-5.216-2.784-10.112-6.08-4.896-3.264-9.472-6.976-4.544-3.744-8.704-7.936-4.16-4.16-7.936-8.704-3.712-4.576-7.008-9.472-3.264-4.896-6.048-10.08-2.784-5.216-5.024-10.656t-3.968-11.104q-1.728-5.632-2.88-11.424-1.152-5.76-1.728-11.648-0.576-5.856-0.576-11.744t0.576-11.776q0.576-5.856 1.728-11.648 1.152-5.76 2.88-11.424 1.696-5.632 3.968-11.072 2.24-5.44 5.024-10.656 2.784-5.184 6.08-10.112 3.264-4.896 6.976-9.44 3.744-4.576 7.936-8.736 4.16-4.16 8.704-7.904 4.576-3.744 9.472-7.04 4.896-3.264 10.112-6.016 5.184-2.784 10.624-5.056 5.44-2.24 11.104-3.968 5.632-1.696 11.424-2.88 5.76-1.12 11.648-1.696 5.856-0.576 11.744-0.576 5.92 0 11.776 0.576t11.648 1.728q5.76 1.152 11.424 2.88 5.632 1.696 11.072 3.936 5.44 2.24 10.656 5.056 5.184 2.752 10.112 6.048 4.896 3.264 9.44 7.008 4.576 3.744 8.736 7.904 4.16 4.16 7.904 8.736 3.744 4.544 7.04 9.44 3.264 4.928 6.016 10.112 2.784 5.216 5.056 10.656 2.24 5.44 3.968 11.072 1.696 5.664 2.88 11.424 1.12 5.76 1.696 11.648 0.576 5.888 0.576 11.776z" fill="#000000" p-id="4392"></path><path d="M511.296 894.208a136.128 136.128 0 0 1-136-136 136.128 136.128 0 0 1 136-136 136.128 136.128 0 0 1 136 136 136.128 136.128 0 0 1-136 136z m0-240c-57.28 0-104 46.72-104 104s46.72 104 104 104 104-46.72 104-104-46.592-104-104-104z" fill="#000000" p-id="4393"></path><path d="M959.296 758.208q0 5.888-0.576 11.744-0.576 5.888-1.728 11.648-1.152 5.792-2.88 11.424-1.696 5.664-3.936 11.104-2.24 5.44-5.056 10.656-2.752 5.184-6.048 10.08-3.264 4.896-7.008 9.472-3.744 4.544-7.904 8.704-4.16 4.16-8.736 7.936-4.544 3.712-9.44 7.008-4.928 3.264-10.112 6.048-5.184 2.784-10.656 5.024-5.44 2.24-11.072 3.968-5.632 1.728-11.424 2.88-5.76 1.152-11.648 1.728-5.856 0.576-11.776 0.576-5.888 0-11.744-0.576-5.888-0.576-11.648-1.728-5.792-1.152-11.424-2.88-5.664-1.696-11.104-3.968-5.44-2.24-10.624-5.024-5.216-2.784-10.112-6.08-4.896-3.264-9.472-6.976-4.544-3.744-8.704-7.936-4.16-4.16-7.936-8.704-3.712-4.576-7.008-9.472-3.264-4.896-6.048-10.08-2.784-5.216-5.024-10.656t-3.968-11.104q-1.728-5.632-2.88-11.424-1.152-5.76-1.728-11.648-0.576-5.856-0.576-11.744t0.576-11.776q0.576-5.856 1.728-11.648 1.152-5.76 2.88-11.424 1.696-5.632 3.968-11.072 2.24-5.44 5.024-10.656 2.784-5.184 6.08-10.112 3.264-4.896 6.976-9.44 3.744-4.576 7.936-8.736 4.16-4.16 8.704-7.904 4.576-3.744 9.472-7.04 4.896-3.264 10.112-6.016 5.184-2.784 10.624-5.056 5.44-2.24 11.104-3.968 5.632-1.696 11.424-2.88 5.76-1.12 11.648-1.696 5.856-0.576 11.744-0.576 5.92 0 11.776 0.576t11.648 1.728q5.76 1.152 11.424 2.88 5.632 1.696 11.072 3.936 5.44 2.24 10.656 5.056 5.184 2.752 10.112 6.048 4.896 3.264 9.44 7.008 4.576 3.744 8.736 7.904 4.16 4.16 7.904 8.736 3.744 4.544 7.04 9.44 3.264 4.928 6.016 10.112 2.784 5.216 5.056 10.656 2.24 5.44 3.968 11.072 1.696 5.664 2.88 11.424 1.12 5.76 1.696 11.648 0.576 5.888 0.576 11.776z" fill="#000000" p-id="4394"></path><path d="M839.296 894.208a136.128 136.128 0 0 1-136-136 136.128 136.128 0 0 1 136-136 136.128 136.128 0 0 1 136 136 136.128 136.128 0 0 1-136 136z m0-240c-57.28 0-104 46.72-104 104s46.72 104 104 104 104-46.72 104-104-46.592-104-104-104z" fill="#000000" p-id="4395"></path></svg>